<?xml version="1.0" standalone="no"?>
<!DOCTYPE svg PUBLIC "-//W3C//DTD SVG 1.1//EN" "http://www.w3.org/Graphics/SVG/1.1/DTD/svg11.dtd" >
<svg xmlns="http://www.w3.org/2000/svg">
<metadata></metadata>
<defs>
<font id="MyriadWebProBold" horiz-adv-x="1237" >
<font-face units-per-em="2048" ascent="1556" descent="-492" />
<missing-glyph horiz-adv-x="448" />
<glyph horiz-adv-x="0" />
<glyph horiz-adv-x="2048" />
<glyph unicode=" "  horiz-adv-x="448" />
<glyph unicode="&#x09;" horiz-adv-x="448" />
<glyph unicode="&#xa0;" horiz-adv-x="448" />
<glyph unicode="!" horiz-adv-x="588" d="M95 176q0 88 56 143.5t142 55.5t142 -55.5t56 -143.5t-55 -144t-143 -56q-87 0 -142.5 56.5t-55.5 143.5zM122 1463h344l-47 -983h-249z" />
<glyph unicode="&#x22;" horiz-adv-x="878" d="M78 1504h299l-52 -590h-197zM501 1504h300l-49 -590h-199z" />
<glyph unicode="#" horiz-adv-x="1226" d="M85 384v204h215l34 243h-185v205h218l54 375h196l-55 -375h204l57 375h196l-55 -375h176v-205h-208l-35 -243h180v-204h-215l-54 -384h-201l58 384h-203l-56 -384h-197l56 384h-180zM497 588h202l35 243h-202z" />
<glyph unicode="$" d="M120 110l67 259q185 -100 375 -100q98 0 156.5 36.5t58.5 98.5q0 60 -54.5 102t-184.5 82q-214 66 -310 163t-96 237q0 146 99.5 251.5t280.5 138.5v205h217v-191q188 -8 326 -72l-67 -249q-156 78 -326 77q-92 0 -140.5 -33t-48.5 -88q0 -51 61.5 -92t207.5 -92 q201 -70 288.5 -164t87.5 -247q0 -148 -103.5 -258t-293.5 -143v-222h-217v206q-229 11 -384 95z" />
<glyph unicode="%" horiz-adv-x="1966" d="M60 990q0 194 112 319.5t294 125.5q181 0 287.5 -115t106.5 -305q0 -212 -118 -331.5t-286 -119.5q-171 0 -283.5 117.5t-112.5 308.5zM315 999q0 -111 39 -180.5t110 -69.5q146 -1 146 252q0 112 -36 181t-110 69q-71 0 -110 -68t-39 -184zM482 -24l816 1457h181 l-817 -1457h-180zM1105 406q0 194 112.5 318.5t292.5 124.5q181 0 287.5 -114.5t106.5 -304.5q0 -211 -118.5 -331t-285.5 -120q-171 0 -283 117t-112 310zM1359 412q0 -114 40 -181.5t109 -67.5q147 -1 147 251q0 113 -36 182t-111 69q-71 0 -110 -68t-39 -185z" />
<glyph unicode="&#x26;" horiz-adv-x="1508" d="M70 391q0 276 284 421v8q-112 128 -113 278q0 159 123 274t326 115q178 0 292 -95t114 -248q0 -232 -293 -376l-2 -6l247 -271q94 145 133 360h300q-65 -362 -250 -561q172 -192 265 -290h-391q-49 46 -100 106q-170 -130 -412 -130q-245 0 -384 119t-139 296zM389 447 q0 -97 69 -162.5t180 -65.5q126 0 207 74q-107 102 -337 358q-120 -86 -119 -204zM545 1131q0 -103 104 -209q88 57 125.5 105.5t37.5 107.5t-36 101t-94 42q-62 0 -99.5 -43t-37.5 -104z" />
<glyph unicode="'" horiz-adv-x="453" d="M78 1504h297l-50 -590h-197z" />
<glyph unicode="(" horiz-adv-x="696" d="M137 623q0 509 247 877h233q-217 -360 -217 -877q0 -504 217 -875h-233q-247 368 -247 875z" />
<glyph unicode=")" horiz-adv-x="696" d="M81 -252q217 371 217 877q0 505 -217 875h232q247 -364 247 -875q0 -506 -247 -877h-232z" />
<glyph unicode="*" horiz-adv-x="1002" d="M70 942v222l342 -70v4l-230 280l193 109l122 -337h4l127 337l190 -109l-234 -280v-4l352 70v-222l-354 61v-7l236 -269l-193 -112l-126 336h-4l-124 -336l-189 112l235 272l-3 4z" />
<glyph unicode="+" horiz-adv-x="1293" d="M89 478v204h452v473h215v-473h451v-204h-451v-478h-215v478h-452z" />
<glyph unicode="," horiz-adv-x="570" d="M0 -257q108 309 161 622l340 22q-114 -357 -275 -623z" />
<glyph unicode="-" horiz-adv-x="713" d="M65 456v221h584v-221h-584z" />
<glyph unicode="." horiz-adv-x="570" d="M108 178q0 88 57 144.5t143 56.5q88 0 143 -56t55 -145t-56 -145.5t-144 -56.5q-87 0 -142.5 57t-55.5 145z" />
<glyph unicode="/" horiz-adv-x="731" d="M46 -87l458 1574h223l-460 -1574h-221z" />
<glyph unicode="0" d="M72 702q0 324 141 528.5t410 204.5q260 0 401.5 -195.5t141.5 -529.5q0 -344 -144 -539t-405 -195q-259 0 -402 195.5t-143 530.5zM406 706q0 -234 54.5 -358t156.5 -124t156 122.5t54 359.5q0 478 -208 477q-101 0 -157 -123t-56 -354z" />
<glyph unicode="1" d="M193 1237l380 174h276v-1411h-323v1114h-4l-272 -128z" />
<glyph unicode="2" d="M98 0v199q475 415 568.5 538t93.5 222q0 97 -61.5 152t-174.5 55q-154 0 -313 -122l-99 239q205 151 478 152q235 0 370.5 -122.5t135.5 -324.5q0 -143 -88.5 -293.5t-427.5 -416.5v-5h545v-273h-1027z" />
<glyph unicode="3" d="M87 81l69 249q179 -89 343 -89q124 0 193.5 50.5t69.5 133.5q0 92 -81 146t-205 54h-148v241h141q104 0 178 43t74 118q0 66 -56.5 105.5t-156.5 39.5q-157 0 -309 -89l-71 241q187 110 454 111q219 0 349 -100t130 -254q0 -235 -262 -327v-5q142 -25 227.5 -119 t85.5 -222q0 -191 -161 -311.5t-427 -120.5q-265 1 -437 105z" />
<glyph unicode="4" d="M54 338v215l541 858h418v-825h172v-248h-172v-338h-319v338h-640zM369 586h325v315q0 84 10 267h-8q-112 -231 -134 -267z" />
<glyph unicode="5" d="M95 58l64 253q153 -75 330 -75q123 0 205.5 57.5t82.5 155.5q0 235 -408 235q-82 0 -199 -13l93 740h798v-274h-566l-31 -211q64 5 98 6q253 0 407 -117.5t154 -343.5q0 -207 -169.5 -351t-449.5 -144q-237 0 -409 82z" />
<glyph unicode="6" d="M67 595q0 180 58 334.5t159.5 258.5t229.5 161.5t287 74.5q61 7 218 7v-257q-103 0 -172 -5t-151.5 -32.5t-141 -74.5t-94 -103.5t-50.5 -123.5h7q116 113 310 114q193 0 321.5 -127.5t128.5 -334.5q0 -216 -153 -363.5t-382 -147.5q-268 0 -421.5 172t-153.5 447z M400 514q0 -119 61.5 -204.5t176.5 -85.5q88 0 142.5 67.5t54.5 174.5q0 109 -58 176.5t-160 67.5q-92 0 -154.5 -62t-62.5 -134z" />
<glyph unicode="7" d="M108 1137v274h1025v-208l-597 -1203h-360l599 1133v4h-667z" />
<glyph unicode="8" d="M74 369q0 242 256 352v6q-209 106 -208 309q0 178 143.5 288.5t362.5 110.5q227 0 354.5 -106t127.5 -256q0 -207 -209 -311v-6q125 -46 195 -137.5t70 -212.5q0 -191 -152 -310.5t-404 -119.5q-251 0 -393.5 115t-142.5 278zM419 404q0 -79 57.5 -137t146.5 -58 q90 0 146 48.5t56 124.5q0 59 -28.5 106t-100 83t-101.5 36q-17 0 -67 -24.5t-79.5 -72t-29.5 -106.5zM443 1048q-1 -129 206 -190q65 19 106.5 68.5t41.5 109.5q0 75 -46.5 124t-129.5 49t-130.5 -45t-47.5 -116z" />
<glyph unicode="9" d="M67 926q0 212 155.5 360.5t390.5 148.5q257 0 403 -168.5t146 -441.5q0 -200 -56.5 -354.5t-155.5 -257.5t-231.5 -157.5t-293.5 -69.5q-53 -5 -226 -5v257q31 -3 64 -3q464 0 555 351l-4 2q-101 -104 -296 -104q-193 0 -322 123t-129 319zM402 947q0 -98 55.5 -161 t152.5 -63q65 0 114.5 25.5t71.5 58.5t22 86q0 133 -55.5 214.5t-159.5 81.5q-88 0 -144.5 -68t-56.5 -174z" />
<glyph unicode=":" horiz-adv-x="570" d="M106 176q0 88 55.5 144.5t142.5 56.5q88 0 142.5 -56t54.5 -145q0 -88 -54.5 -144t-142.5 -56q-87 0 -142.5 56.5t-55.5 143.5zM108 874q0 88 55 145.5t143 57.5t143 -56.5t55 -146.5q0 -86 -54.5 -142.5t-143.5 -56.5q-87 0 -142.5 56.5t-55.5 142.5z" />
<glyph unicode=";" horiz-adv-x="570" d="M2 -259q108 309 161 622l338 21q-114 -356 -275 -622zM122 874q0 88 55 145.5t142 57.5q88 0 142.5 -56.5t54.5 -146.5q0 -86 -54 -142.5t-143 -56.5q-87 0 -142 56.5t-55 142.5z" />
<glyph unicode="&#x3c;" horiz-adv-x="1293" d="M124 482v191l1044 482v-233l-793 -342v-4l793 -344v-232z" />
<glyph unicode="=" horiz-adv-x="1293" d="M87 252v204h1120v-204h-1120zM87 706v203h1120v-203h-1120z" />
<glyph unicode="&#x3e;" horiz-adv-x="1293" d="M126 0v230l804 346v4l-804 344v231l1044 -478v-199z" />
<glyph unicode="?" horiz-adv-x="993" d="M108 1396q162 91 376 91q199 0 311 -93.5t112 -245.5q0 -76 -39.5 -160t-148.5 -203q-113 -118 -114 -271v-36h-292q-2 66 -2 74q0 173 128 318q84 96 107 142.5t23 83.5q0 128 -159 128q-126 0 -226 -66zM254 176q0 88 55.5 143.5t142.5 55.5q86 0 141.5 -55.5 t55.5 -143.5t-54.5 -144t-142.5 -56q-87 0 -142.5 56.5t-55.5 143.5z" />
<glyph unicode="@" horiz-adv-x="1707" d="M116 665q0 223 106 414.5t295.5 299.5t422.5 108q291 0 482 -179.5t191 -456.5q0 -227 -120 -367.5t-302 -140.5q-167 0 -188 165h-4q-109 -166 -287 -165q-110 0 -180 78t-70 209q0 206 143.5 353.5t373.5 147.5q162 0 262 -54l-62 -403q-9 -52 -9 -88q0 -95 68 -95 q81 0 144.5 97.5t63.5 260.5q0 224 -143 362.5t-387 138.5q-265 0 -447.5 -185.5t-182.5 -478.5q0 -267 157 -418.5t410 -151.5q182 0 319 66l40 -130q-173 -76 -404 -76q-291 0 -491.5 192.5t-200.5 496.5zM686 658q0 -136 111 -136q62 0 119 66.5t70 160.5l27 198 q-35 8 -66 8q-107 0 -184 -88t-77 -209z" />
<glyph unicode="A" horiz-adv-x="1473" d="M41 0l463 1463h443l474 -1463h-364l-119 382h-439l-108 -382h-350zM549 630h337q-132 428 -172 588h-4l-70 -278z" />
<glyph unicode="B" horiz-adv-x="1340" d="M145 6v1438q177 33 439 33q336 0 479.5 -103.5t143.5 -268.5q0 -103 -62.5 -185t-180.5 -125v-5q138 -37 216.5 -133t78.5 -227q0 -192 -160.5 -318.5t-586.5 -126.5q-213 0 -367 21zM478 238q28 -6 135 -6q137 0 214.5 54.5t77.5 156.5q0 100 -80.5 152t-227.5 52h-119 v-409zM478 886h112q134 0 206 48t72 132q0 167 -240 167h-3q-100 0 -147 -11v-336z" />
<glyph unicode="C" horiz-adv-x="1343" d="M78 712q0 352 230 563.5t593 211.5q244 0 379 -68l-68 -264q-136 59 -296 59q-221 0 -352.5 -128.5t-131.5 -354.5q0 -220 129.5 -348.5t356.5 -128.5q164 0 294 50l52 -261q-150 -66 -394 -67q-370 0 -581 201t-211 535z" />
<glyph unicode="D" horiz-adv-x="1562" d="M145 6v1438q218 33 465 33q467 0 671 -196.5t204 -512.5q0 -373 -231.5 -578t-715.5 -205q-223 0 -393 21zM482 252q29 -6 121 -7q251 0 388.5 132t137.5 379q0 226 -125.5 344t-361.5 118q-98 0 -160 -13v-953z" />
<glyph unicode="E" horiz-adv-x="1193" d="M145 0v1463h934v-274h-597v-301h562v-271h-562v-344h628v-273h-965z" />
<glyph unicode="F" horiz-adv-x="1178" d="M145 0v1463h926v-274h-589v-331h549v-272h-549v-586h-337z" />
<glyph unicode="G" horiz-adv-x="1531" d="M78 714q0 349 237 557t625 208q265 0 425 -75l-71 -264q-148 64 -360 65q-229 0 -365.5 -125.5t-136.5 -345.5q0 -219 132.5 -349.5t351.5 -130.5q124 0 174 22v304h-237v261h562v-771q-266 -85 -510 -85q-412 0 -619.5 203.5t-207.5 525.5z" />
<glyph unicode="H" horiz-adv-x="1539" d="M145 0v1463h337v-562h575v562h337v-1463h-337v610h-575v-610h-337z" />
<glyph unicode="I" horiz-adv-x="626" d="M145 0v1463h337v-1463h-337z" />
<glyph unicode="J" horiz-adv-x="920" d="M-2 13l39 267q92 -26 172 -26h6q127 0 180.5 72.5t53.5 224.5v912h336v-918q0 -287 -130 -428t-403 -141q-142 0 -254 37z" />
<glyph unicode="K" horiz-adv-x="1371" d="M145 0v1463h333v-645q67 99 121 175l335 470h416l-501 -620l529 -843h-392l-379 634l-129 -156v-478h-333z" />
<glyph unicode="L" horiz-adv-x="1141" d="M145 0v1463h337v-1181h606v-282h-943z" />
<glyph unicode="M" horiz-adv-x="1889" d="M116 0l93 1463h456q168 -560 202 -693t69 -316h8q81 340 137 508l168 501h446l78 -1463h-329q-35 870 -35 1181h-7q-53 -233 -356 -1157h-263q-181 637 -216.5 781.5t-82.5 375.5h-4q-14 -439 -24 -632l-29 -549h-311z" />
<glyph unicode="N" horiz-adv-x="1543" d="M145 0v1463h400l353 -598q101 -175 212 -444h4q-26 230 -26 604v438h310v-1463h-356q-372 646 -443.5 779t-149.5 311h-8q15 -277 15 -636v-454h-311z" />
<glyph unicode="O" horiz-adv-x="1616" d="M78 721q0 334 206.5 550t531.5 216q328 0 525.5 -208.5t197.5 -534.5q0 -349 -204.5 -558.5t-537.5 -209.5q-323 0 -521 209t-198 536zM432 729q0 -215 103 -351.5t271 -136.5q171 0 273 135.5t102 357.5q0 213 -102.5 350.5t-270.5 137.5q-170 0 -273 -138t-103 -355z " />
<glyph unicode="P" horiz-adv-x="1291" d="M145 0v1446q208 31 465 31q321 0 466.5 -130.5t145.5 -331.5q0 -243 -166.5 -373t-458.5 -130q-57 0 -119 10v-522h-333zM478 779q36 -8 117 -8q136 0 215.5 63t79.5 173q0 102 -70.5 158.5t-198.5 56.5q-102 0 -143 -10v-433z" />
<glyph unicode="Q" horiz-adv-x="1616" d="M78 717q0 337 204.5 553.5t537.5 216.5q325 0 522 -208.5t197 -531.5q0 -223 -97 -398.5t-263 -250.5v-9q132 -38 360 -81l-93 -260q-268 74 -603 206q-46 18 -105 22q-286 20 -473 218.5t-187 522.5zM435 727q0 -215 102.5 -350.5t270.5 -135.5q170 0 272.5 135.5 t102.5 357.5q0 213 -102 350.5t-269 137.5q-171 0 -274 -139t-103 -356z" />
<glyph unicode="R" horiz-adv-x="1319" d="M145 0v1444q185 33 454 33q332 0 477.5 -110t145.5 -314q0 -122 -73 -220t-190 -139v-8q137 -51 199 -269q111 -394 120 -417h-342q-43 82 -105 341q-31 131 -83 183t-166 52h-104v-576h-333zM478 816h139q126 0 198.5 57.5t72.5 153.5q0 97 -65.5 149.5t-186.5 52.5 q-118 0 -158 -11v-402z" />
<glyph unicode="S" horiz-adv-x="1208" d="M91 70l70 276q188 -96 382 -96q111 0 173.5 42t62.5 116q0 66 -56 110.5t-195 91.5q-419 138 -420 436q0 192 154.5 316.5t410.5 124.5q224 0 391 -76l-76 -267q-153 72 -319 72q-102 0 -159.5 -39.5t-57.5 -101.5q0 -57 48 -98t231 -107q203 -72 297.5 -177.5 t94.5 -262.5q0 -201 -158.5 -327.5t-442.5 -126.5q-244 1 -431 94z" />
<glyph unicode="T" horiz-adv-x="1228" d="M33 1183v280h1163v-280h-417v-1183h-336v1183h-410z" />
<glyph unicode="U" horiz-adv-x="1525" d="M145 655v808h337v-829q0 -191 71.5 -292t206.5 -101q284 0 284 393v829h337v-812q0 -331 -162 -503t-470 -172q-603 0 -604 679z" />
<glyph unicode="V" horiz-adv-x="1427" d="M21 1463h370q305 -1014 323 -1142h5q52 234 144 529l194 613h356l-510 -1463h-395z" />
<glyph unicode="W" horiz-adv-x="1979" d="M33 1463h360q152 -779 206 -1115h4q29 211 224 1115h367q172 -888 198 -1107h4q17 167 213 1107h342l-390 -1463h-365q-146 720 -164 820t-36 274h-4q-39 -245 -85 -447l-145 -647h-371z" />
<glyph unicode="X" horiz-adv-x="1382" d="M39 0l441 740l-426 723h391q195 -388 247 -510h4q47 130 236 510h388l-430 -711l452 -752h-393q-264 511 -272 528h-4q-24 -63 -82 -182l-164 -346h-388z" />
<glyph unicode="Y" horiz-adv-x="1358" d="M26 1463h386q266 -604 276 -630q50 135 271 630h383l-501 -846v-617h-337v603z" />
<glyph unicode="Z" horiz-adv-x="1299" d="M54 0v180l725 999v6h-659v278h1100v-189l-710 -990v-6h723v-278h-1179z" />
<glyph unicode="[" horiz-adv-x="696" d="M152 -243v1730h449v-182h-208v-1365h208v-183h-449z" />
<glyph unicode="\" horiz-adv-x="756" d="M33 1487h224l457 -1574h-223z" />
<glyph unicode="]" horiz-adv-x="696" d="M95 -60h209v1365h-209v182h450v-1730h-450v183z" />
<glyph unicode="^" horiz-adv-x="1293" d="M91 384l454 1027h204l454 -1027h-239l-317 774l-322 -774h-234z" />
<glyph unicode="_" horiz-adv-x="1085" d="M0 -163h1085v-108h-1085v108z" />
<glyph unicode="`" horiz-adv-x="650" d="M4 1522h311l191 -333h-230z" />
<glyph unicode="a" horiz-adv-x="1173" d="M65 302q0 197 165.5 302.5t475.5 105.5v13q0 132 -200 132q-164 0 -301 -80l-64 213q177 97 423 97q234 0 355 -118t121 -339v-369q0 -161 17 -259h-301l-20 106h-9q-109 -130 -310 -130q-156 0 -254 95t-98 231zM398 336q0 -59 35.5 -92t98.5 -33q69 0 127 47.5 t58 134.5v108q-319 0 -319 -165z" />
<glyph unicode="b" horiz-adv-x="1334" d="M126 0q9 143 9 319v1226h336v-613h5q110 153 334 153q198 0 326 -148t128 -388q0 -164 -64.5 -295.5t-182 -204.5t-255.5 -73q-226 0 -332 173h-5l-15 -149h-284zM471 460q0 -107 66 -164.5t147 -57.5q110 0 174 80t64 218q0 133 -63 213t-175 80q-87 0 -150 -64 t-63 -166v-139z" />
<glyph unicode="c" horiz-adv-x="1011" d="M72 522q0 248 168 405.5t454 157.5q147 0 263 -43l-54 -247q-81 34 -187 34h-6q-131 0 -212 -82t-81 -213q0 -135 84 -215.5t216 -80.5q107 0 199 35l41 -244q-123 -52 -310 -53q-263 0 -419 148t-156 398z" />
<glyph unicode="d" horiz-adv-x="1330" d="M74 522q0 255 142.5 409t347 154t291.5 -121h5v581h336v-1228q0 -174 9 -317h-300l-12 161h-5q-110 -184 -347 -185q-197 0 -332 152.5t-135 393.5zM414 532q0 -132 64.5 -210.5t172.5 -78.5q78 0 143.5 57t65.5 182v123q0 98 -58 161t-149 63q-110 0 -174.5 -81.5 t-64.5 -215.5z" />
<glyph unicode="e" horiz-adv-x="1171" d="M72 518q0 231 148.5 399t400.5 168q232 0 360.5 -150t128.5 -384q-1 -77 -14 -128h-705q9 -94 95 -146.5t216 -52.5q165 0 303 45l43 -223q-165 -70 -395 -70q-272 0 -426.5 145.5t-154.5 396.5zM389 653h408q0 75 -44 143t-150 68q-87 0 -143.5 -58.5t-70.5 -152.5z" />
<glyph unicode="f" horiz-adv-x="754" d="M33 814v247h139v39q0 134 53 247t156.5 168t223.5 55q87 0 176 -22l-10 -258q-49 15 -109 15q-75 0 -115.5 -50.5t-40.5 -138.5v-55h215v-247h-213v-814h-336v814h-139z" />
<glyph unicode="g" horiz-adv-x="1303" d="M74 526q0 245 143 402t352 157q207 0 301 -151h4l12 127h291q-9 -125 -9 -314v-588q0 -311 -144.5 -463t-461.5 -152q-238 0 -395 85l67 253q147 -81 315 -81h4q134 0 209.5 72t75.5 208v68h-5q-105 -141 -297 -141q-200 0 -331 145t-131 373zM414 534q0 -121 60 -200.5 t164 -79.5q70 0 131.5 50.5t61.5 177.5v141q0 93 -53 151.5t-140 58.5q-96 0 -160 -81t-64 -218z" />
<glyph unicode="h" horiz-adv-x="1301" d="M137 0v1545h336v-613h5q49 67 131.5 110t175.5 43q177 0 281 -122t104 -348v-615h-337v576q0 238 -178 238q-74 0 -128 -50.5t-54 -138.5v-625h-336z" />
<glyph unicode="i" horiz-adv-x="607" d="M116 1376q0 76 52 126t136 50t136.5 -50t52.5 -126t-52 -125.5t-137 -49.5t-136.5 50t-51.5 125zM137 0v1061h336v-1061h-336z" />
<glyph unicode="j" horiz-adv-x="648" d="M-87 -209q98 7 161.5 41t85.5 116t22 269v844h336v-926q0 -342 -153 -473t-419 -131zM161 1376q0 76 52.5 126t136.5 50q85 0 136.5 -49.5t51.5 -126.5q0 -75 -51 -125t-137 -50q-85 0 -137 50t-52 125z" />
<glyph unicode="k" horiz-adv-x="1210" d="M135 0v1545h336v-930h5q29 56 303 446h406l-395 -429l454 -632h-417l-269 437l-87 -107v-330h-336z" />
<glyph unicode="l" horiz-adv-x="607" d="M137 0v1545h336v-1545h-336z" />
<glyph unicode="m" horiz-adv-x="1912" d="M128 1061h282l15 -147h7q113 171 328 171q103 0 182.5 -48.5t114.5 -137.5h4q134 186 350 186q168 0 267.5 -121t99.5 -345v-619h-326v571q0 245 -162 245q-73 0 -121.5 -55.5t-48.5 -145.5v-615h-325v586q0 110 -41.5 170t-117.5 60q-71 0 -122.5 -56t-51.5 -147v-613 h-325v721q0 157 -9 340z" />
<glyph unicode="n" horiz-adv-x="1301" d="M128 1061h291l16 -149h8q119 173 336 173q179 0 285 -120.5t106 -341.5v-623h-337v580q0 236 -175 236q-72 0 -128.5 -54t-56.5 -155v-607h-336v721q0 157 -9 340z" />
<glyph unicode="o" horiz-adv-x="1286" d="M72 524q0 253 160.5 407t425.5 154q247 0 402.5 -152t155.5 -390q0 -261 -164 -414t-412 -153q-250 0 -409 150.5t-159 397.5zM417 530q0 -141 61.5 -228t163.5 -87q101 0 162.5 86t61.5 231q0 139 -58.5 227t-163.5 88q-107 0 -167 -88.5t-60 -228.5z" />
<glyph unicode="p" horiz-adv-x="1334" d="M126 1061h293l16 -152q131 176 373 176q187 0 320 -149t133 -389q0 -263 -145.5 -417t-353.5 -154q-92 0 -170 33t-116 91h-5v-530h-336v1134q0 163 -9 357zM471 462q0 -69 23 -115.5t74.5 -80.5t113.5 -34q109 0 173.5 80.5t64.5 217.5q0 134 -62 214.5t-170 80.5 q-88 0 -152.5 -66.5t-64.5 -165.5v-131z" />
<glyph unicode="q" horiz-adv-x="1330" d="M74 516q0 171 63.5 300.5t177 199t240.5 69.5q213 0 311 -149l8 125h329q-6 -260 -7 -317v-1174h-336v569h-5q-107 -163 -327 -163q-188 0 -321 150.5t-133 389.5zM414 530q0 -132 64 -212t171 -80q89 0 150 63t61 165v144q0 99 -62.5 158t-144.5 59q-110 0 -174.5 -81 t-64.5 -216z" />
<glyph unicode="r" horiz-adv-x="845" d="M128 1061h289l10 -201h10q39 109 120.5 167t173.5 58q51 0 72 -6v-315q-42 11 -91 11q-93 0 -166 -52.5t-73 -186.5v-536h-336v708q0 239 -9 353z" />
<glyph unicode="s" horiz-adv-x="969" d="M74 52l61 238q58 -33 143.5 -56t151.5 -23q146 0 146 87q0 43 -35.5 67t-126.5 52q-312 96 -312 317q0 152 122.5 251.5t320.5 99.5q174 0 308 -62l-58 -230q-126 60 -240 60q-130 0 -130 -85q0 -38 40 -64t138 -57q152 -48 224 -126.5t72 -199.5q0 -157 -124 -251 t-345 -94q-204 0 -356 76z" />
<glyph unicode="t" horiz-adv-x="808" d="M37 814v247h143v200l328 89v-289h241v-247h-241v-373q0 -105 31 -148t101 -43q65 0 102 11l2 -255q-79 -30 -218 -30q-152 0 -249 90.5t-97 320.5v427h-143z" />
<glyph unicode="u" horiz-adv-x="1299" d="M132 439v622h337v-566q0 -250 173 -250q74 0 129.5 53.5t55.5 136.5v626h337v-718q0 -170 8 -343h-291l-15 154h-8q-113 -178 -342 -178q-182 0 -283 119t-101 344z" />
<glyph unicode="v" horiz-adv-x="1185" d="M21 1061h366q210 -686 212 -748h8q19 108 58 239l145 509h356l-408 -1061h-339z" />
<glyph unicode="w" horiz-adv-x="1684" d="M26 1061h341q126 -605 151 -783h6q17 110 58 268l135 515h267q168 -645 188 -783h5q15 167 155 783h329l-331 -1061h-317q-114 416 -130.5 487.5t-41.5 216.5h-6q-25 -173 -63 -308l-114 -396h-317z" />
<glyph unicode="x" horiz-adv-x="1158" d="M6 0l373 543l-364 518h376q152 -238 199 -332h7q31 67 182 332h367l-363 -503l367 -558h-382q-160 270 -195 352h-6q-29 -63 -190 -352h-371z" />
<glyph unicode="y" horiz-adv-x="1167" d="M15 1061h374q206 -651 218 -718h8l186 718h361l-246 -671q-99 -271 -179 -430t-160 -244.5t-178.5 -135t-203.5 -60.5l-69 283q142 28 224 110.5t82 121.5q0 14 -18 56z" />
<glyph unicode="z" horiz-adv-x="1046" d="M48 0v191q351 420 387.5 461.5t131.5 144.5h-482v264h897v-199q-358 -431 -399 -479t-112 -114v-4h528v-265h-951z" />
<glyph unicode="{" horiz-adv-x="696" d="M70 541v165q75 2 120.5 35t45.5 117q0 72 -10 169q-13 118 -13 171q0 288 330 289h80v-184h-39q-135 0 -135 -155l11 -121q11 -108 11 -153q0 -114 -43.5 -171t-143.5 -78v-4q99 -18 143 -76t44 -174q0 -40 -11 -154q-11 -108 -11 -119q0 -156 135 -156h39v-185h-80 q-330 0 -330 295q0 52 13 170q10 97 10 167q1 144 -166 152z" />
<glyph unicode="|" horiz-adv-x="628" d="M199 -543v2171h233v-2171h-233z" />
<glyph unicode="}" horiz-adv-x="696" d="M74 -58h38q135 0 135 156q0 32 -13 119q-10 77 -10 154q0 116 44 173.5t142 76.5v4q-99 21 -142.5 78.5t-43.5 170.5q0 65 12 153q11 76 11 121q0 154 -135 155h-38v184h80q329 0 330 -289q0 -54 -13 -171q-13 -118 -13 -169q0 -64 33.5 -106t136.5 -46l-3 -165 q-167 -8 -167 -152q0 -31 15 -167q10 -98 11 -170q0 -296 -330 -295h-80v185z" />
<glyph unicode="~" horiz-adv-x="1293" d="M89 414q0 411 304 411q57 0 116.5 -16t186.5 -86q160 -87 211 -87q79 0 87 176h211q0 -129 -18 -200t-58.5 -120.5t-95.5 -70.5t-121 -21q-61 0 -125 19.5t-182 84.5q-160 89 -205 89q-88 0 -102 -179h-209z" />
<glyph unicode="&#xa1;" horiz-adv-x="588" d="M98 872q0 87 55.5 144t142.5 57t142 -57t55 -144q0 -89 -54.5 -144t-142.5 -55q-87 0 -142.5 55.5t-55.5 143.5zM124 -414l48 981h249l48 -981h-345z" />
<glyph unicode="&#xa2;" d="M170 712q0 203 119 353.5t334 193.5v204h218v-195q106 -4 212 -44l-54 -245q-83 40 -198 40q-131 0 -210 -80t-79 -212q0 -137 81 -214.5t210 -77.5q119 0 220 38l41 -241q-89 -41 -223 -52v-206h-218v213q-216 31 -334.5 171t-118.5 354z" />
<glyph unicode="&#xa3;" d="M116 0v176q109 48 178 136t69 185q0 56 -7 83h-215v230h176q-15 91 -15 169q0 205 138.5 330.5t360.5 125.5q166 0 265 -54l-55 -252q-76 41 -191 41q-101 0 -154 -54.5t-53 -151.5q0 -63 19 -154h308v-230h-278q0 -95 -23.5 -162.5t-102.5 -139.5v-5h595v-273h-1015z " />
<glyph unicode="&#xa5;" d="M2 1411h365l158 -343q37 -81 92 -237h4q13 32 41.5 109t55.5 133l159 338h356l-384 -614h265v-157h-350v-139h350v-155h-350v-346h-315v346h-345v155h345v139h-345v157h265z" />
<glyph unicode="&#xa8;" horiz-adv-x="650" d="M-50 1332q0 63 44.5 107t109.5 44q60 0 101.5 -43.5t41.5 -107.5q0 -61 -41.5 -105t-103.5 -44q-64 0 -108 44.5t-44 104.5zM402 1332q0 64 43 107.5t106 43.5t105.5 -43t42.5 -108q0 -61 -41.5 -105t-106.5 -44q-62 0 -105.5 44t-43.5 105z" />
<glyph unicode="&#xa9;" horiz-adv-x="1469" d="M70 738q0 275 195.5 472t472.5 197q274 0 468 -196.5t194 -472.5q0 -280 -193 -476.5t-469 -196.5q-277 0 -472.5 197t-195.5 476zM215 734q0 -227 153.5 -386t369.5 -159t368.5 159.5t152.5 387.5q0 226 -153 386.5t-368 160.5q-218 0 -370.5 -160.5t-152.5 -388.5z M369 725q0 176 123.5 290t295.5 114q74 0 145 -17.5t96 -43.5l-33 -117q-87 50 -206 50q-128 0 -198 -71t-70 -199q0 -118 74.5 -194.5t191.5 -76.5q135 0 219 54l33 -112q-107 -70 -269 -70q-184 0 -293 109.5t-109 283.5z" />
<glyph unicode="&#xab;" horiz-adv-x="1028" d="M60 549l255 415h232l-263 -415l263 -417h-232zM491 549l253 415h233l-263 -415l263 -417h-233z" />
<glyph unicode="&#xad;" horiz-adv-x="713" d="M65 456v221h584v-221h-584z" />
<glyph unicode="&#xae;" horiz-adv-x="1106" d="M67 999q0 201 143.5 344.5t344.5 143.5t343 -143t142 -345q0 -206 -141 -348.5t-344 -142.5q-201 0 -344.5 144t-143.5 347zM184 996q0 -163 109 -277t262 -114q154 0 262.5 114t108.5 277q0 164 -108.5 279t-262.5 115q-152 0 -261.5 -115t-109.5 -279zM356 714v543 q99 15 174 15q122 0 178 -37t56 -123q0 -95 -104 -126v-4q75 -14 87 -133q12 -92 28 -135h-117q-14 18 -33 141q-11 83 -101 83h-53v-224h-115zM471 1027h55q120 0 118 78q0 80 -110 80q-51 0 -63 -2v-156z" />
<glyph unicode="&#xb4;" horiz-adv-x="650" d="M156 1189l192 333h310l-271 -333h-231z" />
<glyph unicode="&#xb8;" horiz-adv-x="650" d="M98 -400l43 122q64 -35 120 -35q78 0 77 56q0 66 -171 79l96 186h178l-59 -103q70 -9 114.5 -53t44.5 -104q0 -100 -75 -145.5t-193 -45.5q-101 0 -175 43z" />
<glyph unicode="&#xbb;" horiz-adv-x="1028" d="M54 132l263 417l-263 415h230l257 -415l-257 -417h-230zM478 132l262 417l-262 415h230l256 -415l-256 -417h-230z" />
<glyph unicode="&#xbf;" horiz-adv-x="993" d="M98 -100q0 77 39.5 160.5t148.5 202.5q113 122 114 273v37h292q2 -68 2 -77q0 -171 -127 -318q-84 -95 -107 -142t-23 -84q0 -128 158 -128q126 0 225 68l77 -240q-162 -91 -375 -91q-199 0 -311.5 94t-112.5 245zM354 872q0 87 55 144t142 57t142.5 -57t55.5 -144 t-54.5 -143t-143.5 -56q-87 0 -142 56t-55 143z" />
<glyph unicode="&#xc0;" horiz-adv-x="1473" d="M41 0l463 1463h443l474 -1463h-364l-119 382h-439l-108 -382h-350zM338 1850h350l191 -272h-269zM549 630h337q-132 428 -172 588h-4l-70 -278z" />
<glyph unicode="&#xc1;" horiz-adv-x="1473" d="M41 0l463 1463h443l474 -1463h-364l-119 382h-439l-108 -382h-350zM549 630h337q-132 428 -172 588h-4l-70 -278zM587 1574l187 274h352l-270 -274h-269z" />
<glyph unicode="&#xc2;" horiz-adv-x="1473" d="M41 0l463 1463h443l474 -1463h-364l-119 382h-439l-108 -382h-350zM399 1574l227 274h239l228 -274h-232l-113 143l-115 -143h-234zM549 630h337q-132 428 -172 588h-4l-70 -278z" />
<glyph unicode="&#xc3;" horiz-adv-x="1473" d="M41 0l463 1463h443l474 -1463h-364l-119 382h-439l-108 -382h-350zM428 1583q0 275 170 275q60 0 143 -43q87 -44 99 -44q32 0 43 24q12 23 17 72h149q0 -165 -46 -217q-48 -53 -127 -53q-70 0 -144 42q-74 39 -97 39q-46 0 -52 -95h-155zM549 630h337q-132 428 -172 588 h-4l-70 -278z" />
<glyph unicode="&#xc4;" horiz-adv-x="1473" d="M41 0l463 1463h443l474 -1463h-364l-119 382h-439l-108 -382h-350zM368 1728q0 62 44 107q45 43 111 43q59 0 100 -43q43 -45 43 -107q0 -61 -41.5 -104.5t-101.5 -43.5q-65 0 -111 44q-44 43 -44 104zM549 630h337q-132 428 -172 588h-4l-70 -278zM819 1728q0 63 44 107 q42 42 106 43q61 0 104 -43q42 -45 42 -107t-42 -105t-104 -43q-65 0 -107.5 42.5t-42.5 105.5z" />
<glyph unicode="&#xc5;" horiz-adv-x="1473" d="M41 0l463 1463q-63 49 -63 152q0 100 78.5 168.5t214.5 68.5q138 0 214.5 -63t76.5 -171q0 -109 -78 -155l474 -1463h-364l-117 382h-441l-106 -382h-352zM547 630h339q-109 354 -174 588l-70 -263zM619 1622q0 -49 31 -81.5t81 -32.5q54 0 86 31.5t32 84.5q0 50 -32 82 t-86 32q-53 0 -82.5 -31t-29.5 -85z" />
<glyph unicode="&#xc6;" horiz-adv-x="1951" d="M8 0l645 1463h1151v-274h-625l39 -305h578v-271h-532l47 -340h578v-273h-866l-55 400h-444l-168 -400h-348zM628 671h302l-75 555h-6l-74 -199z" />
<glyph unicode="&#xc7;" horiz-adv-x="1343" d="M78 712q0 352 230 563.5t593 211.5q241 0 379 -68l-68 -264q-139 59 -298 59q-219 0 -350.5 -128.5t-131.5 -354.5q0 -220 129.5 -348.5t354.5 -128.5q164 0 293 50l59 -261q-141 -62 -394 -67l-41 -71q72 -10 115.5 -54t43.5 -105q0 -99 -74 -144t-191 -45 q-106 0 -176 43l44 122q60 -35 117 -35q79 0 78 56q0 66 -171 79l87 167q-302 47 -465 240.5t-163 482.5z" />
<glyph unicode="&#xc8;" horiz-adv-x="1193" d="M145 0v1463h934v-274h-597v-301h562v-271h-562v-344h628v-273h-965zM253 1850h349l192 -272h-269z" />
<glyph unicode="&#xc9;" horiz-adv-x="1193" d="M145 0v1463h934v-274h-597v-301h562v-271h-562v-344h628v-273h-965zM462 1575l187 274h352l-270 -274h-269z" />
<glyph unicode="&#xca;" horiz-adv-x="1193" d="M145 0v1463h934v-274h-597v-301h562v-271h-562v-344h628v-273h-965zM277 1574l228 274h238l228 -274h-232l-113 143l-115 -143h-234z" />
<glyph unicode="&#xcb;" horiz-adv-x="1193" d="M145 0v1463h934v-274h-597v-301h562v-271h-562v-344h628v-273h-965zM234 1728q0 62 45 107q44 43 110 43q59 0 101 -43q42 -45 42 -107q0 -61 -41.5 -104.5t-101.5 -43.5q-65 0 -110 44q-45 43 -45 104zM686 1728q0 63 43 107q43 42 106 43q62 0 104 -43q43 -45 43 -107 t-43 -105q-41 -43 -104 -43q-64 0 -106.5 42.5t-42.5 105.5z" />
<glyph unicode="&#xcc;" horiz-adv-x="626" d="M-61 1850h348l192 -272h-269zM145 0v1463h337v-1463h-337z" />
<glyph unicode="&#xcd;" horiz-adv-x="626" d="M145 0v1463h337v-1463h-337zM155 1574l187 274h351l-269 -274h-269z" />
<glyph unicode="&#xce;" horiz-adv-x="626" d="M-30 1574l228 274h240l228 -274h-232l-114 143l-114 -143h-236zM145 0v1463h337v-1463h-337z" />
<glyph unicode="&#xcf;" horiz-adv-x="626" d="M-57 1728q0 62 44 107q45 43 109 43q60 0 102 -43q42 -45 42 -107q0 -61 -41.5 -104.5t-102.5 -43.5q-64 0 -108.5 43.5t-44.5 104.5zM145 0v1463h337v-1463h-337zM394 1728q0 63 43 107q42 42 107 43q61 0 104 -43q41 -45 41 -107t-41 -105q-42 -43 -104 -43 q-65 0 -107.5 42.5t-42.5 105.5z" />
<glyph unicode="&#xd1;" horiz-adv-x="1543" d="M145 0v1463h400l353 -598q101 -175 212 -444h4q-26 230 -26 604v438h310v-1463h-356q-372 646 -444 779t-149 311h-8q15 -277 15 -636v-454h-311zM460 1583q0 275 170 275q60 0 143 -43q87 -44 97 -44q33 0 44.5 23.5t17.5 72.5h149q0 -165 -47 -217q-48 -53 -127 -53 q-70 0 -143 42q-74 39 -97 39q-46 0 -52 -95h-155z" />
<glyph unicode="&#xd2;" horiz-adv-x="1616" d="M78 721q0 334 206 550q207 216 532 216q328 0 526 -209q197 -208 197 -534q0 -349 -204 -557q-205 -210 -538 -211q-323 0 -521 210q-198 208 -198 535zM424 1850h350l191 -272h-270zM432 729q0 -215 103 -351.5t271 -136.5q171 0 273 135.5t102 357.5q0 213 -103 350.5 t-270 137.5q-170 0 -273 -139q-103 -137 -103 -354z" />
<glyph unicode="&#xd3;" horiz-adv-x="1616" d="M78 721q0 334 206 550q207 216 532 216q328 0 526 -209q197 -208 197 -534q0 -349 -204 -557q-205 -210 -538 -211q-323 0 -521 210q-198 208 -198 535zM432 729q0 -215 103 -351.5t271 -136.5q171 0 273 135.5t102 357.5q0 213 -103 350.5t-270 137.5q-170 0 -273 -139 q-103 -137 -103 -354zM665 1574l186 274h352l-269 -274h-269z" />
<glyph unicode="&#xd4;" horiz-adv-x="1616" d="M78 721q0 334 206 550q207 216 532 216q328 0 526 -209q197 -208 197 -534q0 -349 -204 -557q-205 -210 -538 -211q-323 0 -521 210q-198 208 -198 535zM432 729q0 -215 103 -351.5t271 -136.5q171 0 273 135.5t102 357.5q0 213 -103 350.5t-270 137.5q-170 0 -273 -139 q-103 -137 -103 -354zM462 1574l228 274h240l228 -274h-234l-112 143l-116 -143h-234z" />
<glyph unicode="&#xd5;" horiz-adv-x="1616" d="M78 721q0 334 206 550q207 216 532 216q328 0 526 -209q197 -208 197 -534q0 -349 -204 -557q-205 -210 -538 -211q-323 0 -521 210q-198 208 -198 535zM432 729q0 -215 103 -351.5t271 -136.5q171 0 273 135.5t102 357.5q0 213 -103 350.5t-270 137.5q-170 0 -273 -139 q-103 -137 -103 -354zM499 1583q0 275 170 275q60 0 143 -43q87 -44 97 -44q33 0 45 23.5t16 72.5h150q0 -165 -47 -217q-48 -53 -126 -53q-70 0 -144 42q-74 39 -97 39q-47 0 -53 -95h-154z" />
<glyph unicode="&#xd6;" horiz-adv-x="1616" d="M78 721q0 334 206 550q207 216 532 216q328 0 526 -209q197 -208 197 -534q0 -349 -204 -557q-205 -210 -538 -211q-323 0 -521 210q-198 208 -198 535zM432 729q0 -215 103 -351.5t271 -136.5q171 0 273 135.5t102 357.5q0 213 -103 350.5t-270 137.5q-170 0 -273 -139 q-103 -137 -103 -354zM434 1728q0 62 44 107q45 43 109 43q60 0 102 -43q41 -45 41 -107q0 -61 -41 -104.5t-102 -43.5q-64 0 -108.5 43.5t-44.5 104.5zM885 1728q0 63 43 107q42 42 107 43q61 0 103 -43q42 -45 42 -107t-42 -105q-41 -43 -103 -43q-65 0 -109 43 q-42 42 -41 105z" />
<glyph unicode="&#xd8;" horiz-adv-x="1616" d="M78 729q0 328 206.5 543t527.5 215q189 0 336 -78l126 178l191 -133l-125 -180q199 -213 199 -534q0 -345 -204 -554.5t-525 -209.5q-176 0 -323 74l-139 -197l-185 147l127 182q-213 213 -212 547zM417 731q0 -144 61 -273l512 719q-84 52 -180 52q-178 0 -285.5 -138 t-107.5 -360zM644 284q66 -50 166 -50q177 0 284 137.5t107 362.5q-1 132 -57 254z" />
<glyph unicode="&#xd9;" horiz-adv-x="1525" d="M145 655v808h337v-829q0 -191 71 -292q72 -100 207 -101q284 0 284 393v829h337v-812q0 -331 -162 -502.5t-470 -172.5q-603 0 -604 679zM390 1850h349l192 -272h-270z" />
<glyph unicode="&#xda;" horiz-adv-x="1525" d="M145 655v808h337v-829q0 -191 71 -292q72 -100 207 -101q284 0 284 393v829h337v-812q0 -331 -162 -502.5t-470 -172.5q-603 0 -604 679zM619 1574l187 274h352l-270 -274h-269z" />
<glyph unicode="&#xdb;" horiz-adv-x="1525" d="M145 655v808h337v-829q0 -191 71 -292q72 -100 207 -101q284 0 284 393v829h337v-812q0 -331 -162 -502.5t-470 -172.5q-603 0 -604 679zM441 1574l228 274h238l228 -274h-232l-113 143l-115 -143h-234z" />
<glyph unicode="&#xdc;" horiz-adv-x="1525" d="M145 655v808h337v-829q0 -191 71 -292q72 -100 207 -101q284 0 284 393v829h337v-812q0 -331 -162 -502.5t-470 -172.5q-603 0 -604 679zM403 1728q0 62 44 107q45 43 109 43q60 0 102 -43q42 -45 42 -107q0 -61 -41 -104q-41 -44 -103 -44q-64 0 -108.5 43.5 t-44.5 104.5zM854 1728q0 63 43 107q42 42 107 43q61 0 104 -43q41 -45 41 -107t-41 -105q-42 -43 -104 -43q-65 0 -107.5 42.5t-42.5 105.5z" />
<glyph unicode="&#xdd;" horiz-adv-x="1358" d="M26 1463h386q266 -604 276 -630q50 135 271 630h383l-501 -846v-617h-337v603zM554 1574l187 274h352l-269 -274h-270z" />
<glyph unicode="&#xdf;" horiz-adv-x="1328" d="M137 0v936q0 319 150.5 476.5t418.5 157.5q207 0 341 -113t134 -293q0 -115 -54 -178q-126 -60 -126 -151q0 -65 74 -143q176 -186 176 -340q0 -171 -120 -273.5t-325 -102.5q-148 0 -237 37l41 246q61 -31 154 -31q67 0 107.5 30.5t40.5 79.5q0 62 -79 144 q-172 177 -171 311q0 176 179 273q17 34 17 71q0 79 -48 128.5t-126 49.5q-211 0 -211 -351v-964h-336z" />
<glyph unicode="&#xe0;" horiz-adv-x="1173" d="M65 302q0 197 166 302q165 105 475 106v13q0 132 -200 132q-164 0 -301 -80l-64 213q177 97 423 97q234 0 355 -118t121 -339v-369q0 -161 17 -259h-301l-20 106h-9q-109 -130 -310 -130q-156 0 -253.5 95t-98.5 231zM226 1522h310l191 -333h-230zM398 336q0 -59 36 -92 t98 -33q69 0 126 48q59 47 59 134v108q-319 0 -319 -165z" />
<glyph unicode="&#xe1;" horiz-adv-x="1173" d="M65 302q0 197 166 302q165 105 475 106v13q0 132 -200 132q-164 0 -301 -80l-64 213q177 97 423 97q234 0 355 -118t121 -339v-369q0 -161 17 -259h-301l-20 106h-9q-109 -130 -310 -130q-156 0 -253.5 95t-98.5 231zM398 336q0 -59 36 -92t98 -33q69 0 126 48 q59 47 59 134v108q-319 0 -319 -165zM432 1189l191 333h311l-272 -333h-230z" />
<glyph unicode="&#xe2;" horiz-adv-x="1173" d="M65 302q0 197 166 302q165 105 475 106v13q0 132 -200 132q-164 0 -301 -80l-64 213q177 97 423 97q234 0 355 -118t121 -339v-369q0 -161 17 -259h-301l-20 106h-9q-109 -130 -310 -130q-156 0 -253.5 95t-98.5 231zM252 1189l219 333h215l219 -333h-215l-110 189 l-116 -189h-212zM398 336q0 -59 36 -92t98 -33q69 0 126 48q59 47 59 134v108q-319 0 -319 -165z" />
<glyph unicode="&#xe3;" horiz-adv-x="1173" d="M65 302q0 197 166 302q165 105 475 106v13q0 132 -200 132q-164 0 -301 -80l-64 213q177 97 423 97q234 0 355 -118t121 -339v-369q0 -161 17 -259h-301l-20 106h-9q-109 -130 -310 -130q-156 0 -253.5 95t-98.5 231zM260 1205q0 276 166 276q49 0 146 -44q71 -41 96 -41 q32 0 42 23q12 24 16 72h147q0 -144 -42 -206.5t-131 -62.5q-63 0 -154 48q-58 33 -85 33q-45 0 -52 -98h-149zM398 336q0 -59 36 -92t98 -33q69 0 126 48q59 47 59 134v108q-319 0 -319 -165z" />
<glyph unicode="&#xe4;" horiz-adv-x="1173" d="M65 302q0 197 166 302q165 105 475 106v13q0 132 -200 132q-164 0 -301 -80l-64 213q177 97 423 97q234 0 355 -118t121 -339v-369q0 -161 17 -259h-301l-20 106h-9q-109 -130 -310 -130q-156 0 -253.5 95t-98.5 231zM212 1332q0 63 45 107q44 44 109 44 q60 0 101.5 -43.5t41.5 -107.5q0 -61 -41.5 -104.5t-103.5 -44.5q-64 0 -109 44q-43 45 -43 105zM398 336q0 -59 36 -92t98 -33q69 0 126 48q59 47 59 134v108q-319 0 -319 -165zM664 1332q0 64 42 107t107 44q63 0 105 -42q42 -44 42 -109q0 -61 -41 -104.5t-106 -44.5 q-63 0 -106 44t-43 105z" />
<glyph unicode="&#xe5;" horiz-adv-x="1173" d="M65 302q0 197 166 302q165 105 475 106v13q0 132 -200 132q-164 0 -301 -80l-64 213q177 97 423 97q234 0 355 -118t121 -339v-369q0 -161 17 -259h-301l-20 106h-9q-109 -130 -310 -130q-156 0 -253.5 95t-98.5 231zM337 1381q0 97 69 158.5t185 60.5q117 0 184 -60 t67 -159q0 -92 -69 -152.5t-182 -60.5q-114 0 -183 61q-71 60 -71 152zM398 336q0 -59 36 -92t98 -33q69 0 126 48q59 47 59 134v108q-319 0 -319 -165zM492 1381q0 -41 27.5 -72t69.5 -31q46 0 75 30q27 31 27 75q0 46 -27 76q-28 30 -73 30t-72.5 -30.5t-26.5 -77.5z" />
<glyph unicode="&#xe6;" horiz-adv-x="1786" d="M65 308q0 190 172 290.5t475 100.5v30q0 41 -52.5 82.5t-155.5 41.5q-155 0 -295 -82l-66 213q194 101 385 101q259 0 365 -173q137 173 371 173q215 0 336 -152t121 -378q0 -22 -8 -118h-690q6 -98 86.5 -155.5t205.5 -57.5q168 0 309 58l46 -224q-157 -82 -402 -82 q-137 0 -247 49.5t-166 139.5h-8q-140 -188 -406 -189q-170 0 -273 94.5t-103 237.5zM398 332q0 -56 38 -88.5t100 -32.5q65 0 111.5 34t60 66.5t13.5 77.5v106q-323 0 -323 -163zM1021 665h390q0 88 -49 144.5t-138 56.5q-87 0 -142.5 -59.5t-60.5 -141.5z" />
<glyph unicode="&#xe7;" horiz-adv-x="1011" d="M72 524q0 240 164 400.5t456 160.5q149 0 265 -43l-54 -249q-78 37 -193 36q-132 0 -212.5 -81.5t-80.5 -213.5q0 -136 84 -217t216 -81q110 0 199 37l45 -244q-110 -47 -273 -50l-41 -72q71 -10 115 -54.5t44 -104.5q0 -100 -75.5 -145.5t-192.5 -45.5q-101 0 -175 43 l45 124q58 -37 118 -37q78 0 77 56q0 66 -171 79l84 167q-212 37 -328 180t-116 355z" />
<glyph unicode="&#xe8;" horiz-adv-x="1171" d="M72 518q0 231 148 400q149 167 401 167q232 0 360.5 -149t128.5 -385q-1 -77 -14 -128h-705q9 -94 94 -146q86 -53 217 -53q165 0 303 45l43 -223q-165 -70 -395 -70q-272 0 -426 146q-155 145 -155 396zM269 1522h311l191 -333h-230zM389 653h408q0 75 -44 143t-150 68 q-87 0 -143 -58q-57 -59 -71 -153z" />
<glyph unicode="&#xe9;" horiz-adv-x="1171" d="M72 518q0 231 148 400q149 167 401 167q232 0 360.5 -149t128.5 -385q-1 -77 -14 -128h-705q9 -94 94 -146q86 -53 217 -53q165 0 303 45l43 -223q-165 -70 -395 -70q-272 0 -426 146q-155 145 -155 396zM389 653h408q0 75 -44 143t-150 68q-87 0 -143 -58 q-57 -59 -71 -153zM476 1189l191 333h310l-271 -333h-230z" />
<glyph unicode="&#xea;" horiz-adv-x="1171" d="M72 518q0 231 148 400q149 167 401 167q232 0 360.5 -149t128.5 -385q-1 -77 -14 -128h-705q9 -94 94 -146q86 -53 217 -53q165 0 303 45l43 -223q-165 -70 -395 -70q-272 0 -426 146q-155 145 -155 396zM284 1189l220 333h215l219 -333h-215l-110 189l-116 -189h-213z M389 653h408q0 75 -44 143t-150 68q-87 0 -143 -58q-57 -59 -71 -153z" />
<glyph unicode="&#xeb;" horiz-adv-x="1171" d="M72 518q0 231 148 400q149 167 401 167q232 0 360.5 -149t128.5 -385q-1 -77 -14 -128h-705q9 -94 94 -146q86 -53 217 -53q165 0 303 45l43 -223q-165 -70 -395 -70q-272 0 -426 146q-155 145 -155 396zM247 1332q0 63 45 107q44 44 110 44q60 0 101.5 -43.5 t41.5 -107.5q0 -61 -41.5 -104.5t-103.5 -44.5q-64 0 -108 44q-44 45 -45 105zM389 653h408q0 75 -44 143t-150 68q-87 0 -143 -58q-57 -59 -71 -153zM699 1332q0 64 43 107q42 43 107 44q63 0 105 -42q42 -44 42 -109q0 -61 -41 -104.5t-106 -44.5q-62 0 -107 44 q-43 44 -43 105z" />
<glyph unicode="&#xec;" horiz-adv-x="607" d="M-64 1522h310l192 -333h-230zM137 0v1061h336v-1061h-336z" />
<glyph unicode="&#xed;" horiz-adv-x="607" d="M137 0v1061h336v-1061h-336zM165 1189l191 333h311l-272 -333h-230z" />
<glyph unicode="&#xee;" horiz-adv-x="607" d="M-18 1189l218 333h216l219 -333h-215l-110 189l-116 -189h-212zM137 0v1061h336v-1061h-336z" />
<glyph unicode="&#xef;" horiz-adv-x="607" d="M-69 1332q0 63 45 107q44 44 110 44q60 0 101.5 -43.5t41.5 -107.5q0 -61 -41.5 -104.5t-103.5 -44.5q-64 0 -108 44q-44 45 -45 105zM137 0v1061h336v-1061h-336zM383 1332q0 64 43 107t107 44q63 0 105 -42q43 -44 43 -109q0 -61 -41.5 -104.5t-106.5 -44.5 q-62 0 -107 44q-43 44 -43 105z" />
<glyph unicode="&#xf1;" horiz-adv-x="1301" d="M128 1061h291l16 -149h8q119 173 336 173q179 0 285 -120.5t106 -341.5v-623h-337v580q0 236 -175 236q-72 0 -128 -54t-57 -155v-607h-336v721q0 157 -9 340zM349 1205q0 276 166 276q49 0 146 -44q71 -41 96 -41q32 0 42 23q12 24 16 72h147q0 -144 -42 -206.5 t-131 -62.5q-63 0 -154 48q-58 33 -85 33q-45 0 -52 -98h-149z" />
<glyph unicode="&#xf2;" horiz-adv-x="1286" d="M72 524q0 253 160 407q161 154 426 154q247 0 402 -151q156 -153 156 -391q0 -261 -164.5 -413.5t-411.5 -153.5q-250 0 -409 150q-160 151 -159 398zM302 1522h311l190 -333h-230zM417 530q0 -141 61.5 -228t163.5 -87q101 0 162.5 86t61.5 231q0 139 -58.5 227 t-163.5 88q-107 0 -167 -89q-60 -88 -60 -228z" />
<glyph unicode="&#xf3;" horiz-adv-x="1286" d="M72 524q0 253 160 407q161 154 426 154q247 0 402 -151q156 -153 156 -391q0 -261 -164.5 -413.5t-411.5 -153.5q-250 0 -409 150q-160 151 -159 398zM417 530q0 -141 61.5 -228t163.5 -87q101 0 162.5 86t61.5 231q0 139 -58.5 227t-163.5 88q-107 0 -167 -89 q-60 -88 -60 -228zM493 1189l191 333h310l-271 -333h-230z" />
<glyph unicode="&#xf4;" horiz-adv-x="1286" d="M72 524q0 253 160 407q161 154 426 154q247 0 402 -151q156 -153 156 -391q0 -261 -164.5 -413.5t-411.5 -153.5q-250 0 -409 150q-160 151 -159 398zM319 1189l219 333h216l219 -333h-215l-111 189l-115 -189h-213zM417 530q0 -141 61.5 -228t163.5 -87q101 0 162.5 86 t61.5 231q0 139 -58.5 227t-163.5 88q-107 0 -167 -89q-60 -88 -60 -228z" />
<glyph unicode="&#xf5;" horiz-adv-x="1286" d="M72 524q0 253 160 407q161 154 426 154q247 0 402 -151q156 -153 156 -391q0 -261 -164.5 -413.5t-411.5 -153.5q-250 0 -409 150q-160 151 -159 398zM338 1205q0 276 168 276q48 0 145 -44q71 -41 96 -41q32 0 43 23q11 24 16 72h147q0 -144 -42.5 -206.5t-131.5 -62.5 q-62 0 -154 48q-58 33 -84 33q-46 0 -52 -98h-151zM417 530q0 -141 61.5 -228t163.5 -87q101 0 162.5 86t61.5 231q0 139 -58.5 227t-163.5 88q-107 0 -167 -89q-60 -88 -60 -228z" />
<glyph unicode="&#xf6;" horiz-adv-x="1286" d="M72 524q0 253 160 407q161 154 426 154q247 0 402 -151q156 -153 156 -391q0 -261 -164.5 -413.5t-411.5 -153.5q-250 0 -409 150q-160 151 -159 398zM269 1332q0 63 45 107q44 44 109 44q60 0 103 -44q41 -43 41 -107q0 -61 -42 -105q-42 -43 -104 -44q-64 0 -108 44 q-44 45 -44 105zM417 530q0 -141 61.5 -228t163.5 -87q101 0 162.5 86t61.5 231q0 139 -58.5 227t-163.5 88q-107 0 -167 -89q-60 -88 -60 -228zM721 1332q0 64 42 107q43 43 107 44q63 0 106 -42q43 -44 43 -109q0 -61 -43 -105q-41 -43 -106 -44q-62 0 -106 44 q-43 44 -43 105z" />
<glyph unicode="&#xf8;" horiz-adv-x="1286" d="M74 528q0 248 158 402.5t412 154.5q150 0 268 -58l103 154l114 -81l-100 -145q187 -152 187 -419q0 -167 -74 -293.5t-206.5 -196.5t-288.5 -70q-149 0 -258 57l-111 -157l-108 87l97 141q-193 153 -193 424zM400 530q0 -106 41 -172l4 -2l321 454q-50 37 -122 37 q-115 0 -179.5 -90t-64.5 -227zM532 252q43 -37 115 -37q112 0 180 84.5t68 228.5q0 98 -37 166l-5 2z" />
<glyph unicode="&#xf9;" horiz-adv-x="1299" d="M132 439v622h337v-566q0 -250 173 -250q74 0 130 54q56 53 55 136v626h337v-718q0 -170 8 -343h-291l-15 154h-8q-113 -178 -342 -178q-182 0 -283 119t-101 344zM288 1522h311l191 -333h-230z" />
<glyph unicode="&#xfa;" horiz-adv-x="1299" d="M132 439v622h337v-566q0 -250 173 -250q74 0 130 54q56 53 55 136v626h337v-718q0 -170 8 -343h-291l-15 154h-8q-113 -178 -342 -178q-182 0 -283 119t-101 344zM510 1189l192 333h309l-271 -333h-230z" />
<glyph unicode="&#xfb;" horiz-adv-x="1299" d="M132 439v622h337v-566q0 -250 173 -250q74 0 130 54q56 53 55 136v626h337v-718q0 -170 8 -343h-291l-15 154h-8q-113 -178 -342 -178q-182 0 -283 119t-101 344zM323 1189l220 333h215l219 -333h-215l-111 189l-115 -189h-213z" />
<glyph unicode="&#xfc;" horiz-adv-x="1299" d="M132 439v622h337v-566q0 -250 173 -250q74 0 130 54q56 53 55 136v626h337v-718q0 -170 8 -343h-291l-15 154h-8q-113 -178 -342 -178q-182 0 -283 119t-101 344zM280 1332q0 63 44 107q45 44 111 44q60 0 101.5 -43.5t41.5 -107.5q0 -61 -43 -105q-41 -43 -103 -44 q-63 0 -108 44q-43 45 -44 105zM731 1332q0 64 44 107q42 43 106 44q62 0 106 -42q42 -44 42 -109q0 -61 -42 -105q-41 -43 -106 -44q-63 0 -106 44q-44 44 -44 105z" />
<glyph unicode="&#xfd;" horiz-adv-x="1167" d="M15 1061h374q206 -651 218 -718h8l186 718h361l-246 -671q-99 -271 -179.5 -430t-159.5 -245q-80 -85 -178.5 -135t-203.5 -60l-69 283q142 28 224 110q81 83 82 122q0 14 -18 56zM473 1189l192 333h310l-271 -333h-231z" />
<glyph unicode="&#xff;" horiz-adv-x="1167" d="M15 1061h374q206 -651 218 -718h8l186 718h361l-246 -671q-99 -271 -179.5 -430t-159.5 -245q-80 -85 -178.5 -135t-203.5 -60l-69 283q142 28 224 110q81 83 82 122q0 14 -18 56zM234 1332q0 63 45 107q44 44 110 44q60 0 101.5 -43.5t41.5 -107.5q0 -61 -42 -105 q-42 -43 -103 -44q-64 0 -108 44q-44 45 -45 105zM686 1332q0 64 43 107t106 44q63 0 106 -42q43 -44 43 -109q0 -61 -43 -105q-41 -43 -106 -44q-62 0 -106 44q-43 44 -43 105z" />
<glyph unicode="&#x104;" horiz-adv-x="1473" d="M41 0l463 1463h443l474 -1463q-93 -46 -149 -108.5t-56 -113.5q0 -37 24.5 -59.5t62.5 -22.5q50 0 110 24l22 -120q-75 -39 -186 -39q-95 0 -151 48.5t-56 131.5q0 73 62 148t147 111h-194l-119 382h-439l-108 -382h-350zM549 630h337q-132 428 -172 588l-74 -278z" />
<glyph unicode="&#x105;" horiz-adv-x="1173" d="M65 302q0 197 165.5 302.5t475.5 105.5v13q0 132 -200 132q-164 0 -301 -80l-64 213q177 97 423 97q234 0 355 -118t121 -339v-369q0 -161 17 -259q-93 -46 -149.5 -108.5t-56.5 -113.5q0 -36 25 -59t62 -23q50 0 108 24l25 -120q-76 -39 -187 -39q-94 0 -150.5 48.5 t-56.5 131.5q0 75 61.5 148.5t147.5 110.5h-130l-20 106h-9q-109 -130 -310 -130q-156 0 -254 95t-98 231zM398 336q0 -59 35.5 -92t98.5 -33q69 0 127 47.5t58 134.5v108q-319 0 -319 -165z" />
<glyph unicode="&#x106;" horiz-adv-x="1343" d="M78 712q0 352 230 563q230 212 593 212q244 0 379 -68l-68 -264q-136 59 -296 59q-221 0 -352.5 -128.5t-131.5 -354.5q0 -220 129.5 -348.5t356.5 -128.5q164 0 294 50l52 -261q-150 -66 -394 -67q-370 0 -581 201t-211 535zM658 1574l187 274h351l-270 -274h-268z" />
<glyph unicode="&#x107;" horiz-adv-x="1011" d="M72 522q0 248 168 406q168 157 454 157q147 0 263 -43l-54 -247q-83 35 -193 34q-131 0 -212 -82q-80 -82 -81 -213q0 -135 84 -215q84 -79 216 -81q107 0 199 35l41 -244q-123 -52 -310 -53q-263 0 -419 148t-156 398zM478 1189l191 333h310l-271 -333h-230z" />
<glyph unicode="&#x10c;" horiz-adv-x="1343" d="M78 712q0 352 230 563q230 212 593 212q244 0 379 -68l-68 -264q-136 59 -296 59q-221 0 -352.5 -128.5t-131.5 -354.5q0 -220 129.5 -348.5t356.5 -128.5q164 0 294 50l52 -261q-150 -66 -394 -67q-370 0 -581 201t-211 535zM509 1848h230l120 -144l112 144h233 l-224 -274h-245z" />
<glyph unicode="&#x10d;" horiz-adv-x="1011" d="M72 522q0 248 168 406q168 157 454 157q147 0 263 -43l-54 -247q-83 35 -193 34q-131 0 -212 -82q-80 -82 -81 -213q0 -135 84 -215q84 -79 216 -81q107 0 199 35l41 -244q-123 -52 -310 -53q-263 0 -419 148t-156 398zM325 1522h216l117 -192l115 192h215l-220 -333 h-223z" />
<glyph unicode="&#x10e;" horiz-adv-x="1562" d="M145 6v1438q218 33 465 33q467 0 672 -197q203 -196 203 -512q0 -373 -232 -578.5t-715 -204.5q-223 0 -393 21zM368 1848h230l120 -144l112 144h232l-222 -274h-246zM482 252q29 -6 121 -7q251 0 388 132q138 132 138 379q0 226 -125 343q-125 119 -362 119 q-98 0 -160 -13v-953z" />
<glyph unicode="&#x10f;" horiz-adv-x="1568" d="M74 522q0 255 142 409q143 154 347.5 154t291.5 -121h5v581h336v-1228q0 -174 9 -317h-300l-12 161h-5q-110 -184 -347 -185q-197 0 -332 152q-135 153 -135 394zM414 532q0 -132 65 -211q64 -78 172 -78q78 0 144 57q65 57 65 182v123q0 98 -58 161q-57 63 -149 63 q-110 0 -173.5 -81.5t-65.5 -215.5zM1301 1112q78 216 112 433l240 16q-84 -255 -194 -436z" />
<glyph unicode="&#x110;" horiz-adv-x="1581" d="M4 613v264h159v571q218 33 465 33q338 0 519.5 -93.5t269 -251t87.5 -365.5q0 -377 -231.5 -584.5t-717.5 -207.5q-223 0 -392 21v613h-159zM499 245q28 -7 124 -7q256 0 390.5 133.5t134.5 386.5q0 227 -125 345.5t-363 118.5q-98 0 -161 -13v-332h307v-264h-307v-368z " />
<glyph unicode="&#x111;" horiz-adv-x="1330" d="M74 522q0 251 141.5 407t348.5 156q204 0 291 -121h5v245h-296v204h296v132h336v-132h109v-204h-109v-892q0 -174 9 -317h-300l-12 161h-5q-110 -184 -347 -185q-197 0 -332 152.5t-135 393.5zM414 532q0 -132 64.5 -210.5t172.5 -78.5q80 0 144.5 58.5t64.5 180.5v123 q0 98 -58 161t-149 63q-110 0 -174.5 -81.5t-64.5 -215.5z" />
<glyph unicode="&#x118;" horiz-adv-x="1193" d="M145 0v1463h934v-274h-597v-301h562v-271h-562v-344h628v-273q-93 -46 -150 -108.5t-57 -113.5q0 -37 24.5 -59.5t62.5 -22.5q50 0 110 24l23 -120q-76 -39 -187 -39q-94 0 -150.5 48.5t-56.5 131.5q0 73 62 148t147 111h-793z" />
<glyph unicode="&#x119;" horiz-adv-x="1171" d="M72 518q0 231 148.5 399t400.5 168q232 0 360.5 -150t128.5 -384q-1 -77 -14 -128h-705q9 -94 95 -146.5t216 -52.5q165 0 303 45l43 -223q-38 -15 -90 -31t-105.5 -54.5t-88.5 -86.5t-35 -87q0 -36 25 -59.5t62 -23.5q50 0 108 25l25 -120q-76 -39 -187 -39 q-94 0 -150.5 48.5t-56.5 131.5q0 125 153 229q-14 -2 -55 -3q-272 0 -426.5 145.5t-154.5 396.5zM389 653h408q0 75 -44 143t-150 68q-87 0 -143.5 -58.5t-70.5 -152.5z" />
<glyph unicode="&#x11a;" horiz-adv-x="1193" d="M145 0v1463h934v-274h-597v-301h562v-271h-562v-344h628v-273h-965zM275 1848h230l119 -144l113 144h232l-224 -274h-245z" />
<glyph unicode="&#x11b;" horiz-adv-x="1171" d="M72 518q0 231 148 400q149 167 401 167q232 0 360.5 -149t128.5 -385q-1 -77 -14 -128h-705q9 -94 94 -146q86 -53 217 -53q165 0 303 45l43 -223q-165 -70 -395 -70q-272 0 -426 146q-155 145 -155 396zM280 1522h215l118 -192l114 192h215l-219 -333h-224zM389 653h408 q0 75 -44 143t-150 68q-87 0 -143 -58q-57 -59 -71 -153z" />
<glyph unicode="&#x139;" horiz-adv-x="1141" d="M145 0v1463h337v-1181h606v-282h-943zM159 1574l187 274h350l-269 -274h-268z" />
<glyph unicode="&#x13a;" horiz-adv-x="607" d="M137 0v1545h336v-1545h-336zM145 1639l187 273h352l-270 -273h-269z" />
<glyph unicode="&#x13d;" horiz-adv-x="1141" d="M145 0v1463h337v-1181h606v-282h-943zM640 1183q79 216 114 435l238 14q-83 -255 -193 -436z" />
<glyph unicode="&#x13e;" horiz-adv-x="845" d="M137 0v1545h336v-1545h-336zM578 1112q78 216 112 433l240 16q-84 -255 -194 -436z" />
<glyph unicode="&#x141;" horiz-adv-x="1156" d="M-6 398v227l167 113v725h336v-502l282 187v-228l-282 -189v-449h605v-282h-941v512z" />
<glyph unicode="&#x142;" horiz-adv-x="638" d="M6 373v234l143 116v822h338v-568l157 125v-238l-157 -124v-740h-338v487z" />
<glyph unicode="&#x143;" horiz-adv-x="1543" d="M145 0v1463h400l353 -598q101 -175 212 -444h4q-26 230 -26 604v438h310v-1463h-356q-372 646 -444 779t-149 311h-8q15 -277 15 -636v-454h-311zM605 1574l188 274h351l-270 -274h-269z" />
<glyph unicode="&#x144;" horiz-adv-x="1301" d="M128 1061h291l16 -149h8q119 173 336 173q179 0 285 -120.5t106 -341.5v-623h-337v580q0 236 -175 236q-72 0 -128 -54t-57 -155v-607h-336v721q0 157 -9 340zM482 1189l191 333h311l-272 -333h-230z" />
<glyph unicode="&#x147;" horiz-adv-x="1543" d="M145 0v1463h400l353 -598q101 -175 212 -444h4q-26 230 -26 604v438h310v-1463h-356q-372 646 -444 779t-149 311h-8q15 -277 15 -636v-454h-311zM424 1848h230l120 -144l113 144h232l-223 -274h-246z" />
<glyph unicode="&#x148;" horiz-adv-x="1301" d="M128 1061h291l16 -149h8q119 173 336 173q179 0 285 -120.5t106 -341.5v-623h-337v580q0 236 -175 236q-72 0 -128 -54t-57 -155v-607h-336v721q0 157 -9 340zM319 1522h215l117 -192l115 192h216l-220 -333h-224z" />
<glyph unicode="&#x150;" horiz-adv-x="1616" d="M78 721q0 334 206 550q207 216 532 216q328 0 526 -209q197 -208 197 -534q0 -349 -204 -557q-205 -210 -538 -211q-323 0 -521 210q-198 208 -198 535zM432 729q0 -215 103 -351.5t271 -136.5q171 0 273 135.5t102 357.5q0 213 -103 350.5t-270 137.5q-170 0 -273 -139 q-103 -137 -103 -354zM492 1593l149 259h311l-226 -259h-234zM891 1593l150 259h311l-226 -259h-235z" />
<glyph unicode="&#x151;" horiz-adv-x="1286" d="M72 524q0 253 160 407q161 154 426 154q247 0 402 -151q156 -153 156 -391q0 -261 -164.5 -413.5t-411.5 -153.5q-250 0 -409 150q-160 151 -159 398zM304 1198l135 324h265l-211 -324h-189zM417 530q0 -141 61.5 -228t163.5 -87q101 0 162.5 86t61.5 231 q0 139 -58.5 227t-163.5 88q-107 0 -167 -89q-60 -88 -60 -228zM688 1198l135 324h265l-211 -324h-189z" />
<glyph unicode="&#x152;" horiz-adv-x="2103" d="M78 719q0 349 210 558.5t553 209.5q114 0 207 -10q113 -13 143 -14h798v-274h-597v-301h562v-271h-562v-344h627v-273h-855q-52 0 -139 -11q-104 -12 -190 -13q-353 0 -555 207.5t-202 535.5zM435 729q0 -220 125 -354t339 -134q95 0 156 26v924q-69 31 -181 31 q-191 0 -315 -134t-124 -359z" />
<glyph unicode="&#x153;" horiz-adv-x="1935" d="M72 528q0 247 154.5 402t401.5 155q124 0 226.5 -49.5t160.5 -140.5q135 190 381 190q227 0 351 -149t124 -383q0 -35 -9 -123h-690q8 -93 92.5 -148.5t204.5 -55.5q159 0 304 58l46 -226q-149 -82 -395 -82q-269 0 -409 189q-137 -188 -410 -189q-229 0 -381 153 t-152 399zM419 530q0 -141 61 -228t162 -87t160.5 85t59.5 232q0 141 -57.5 228t-157.5 87q-110 0 -169 -87t-59 -230zM1164 658h394q0 92 -48.5 149t-144.5 57q-85 0 -140 -59.5t-61 -146.5z" />
<glyph unicode="&#x154;" horiz-adv-x="1319" d="M145 0v1444q185 33 454 33q332 0 478 -111q145 -109 145 -313q0 -122 -73 -220t-190 -139v-8q137 -51 199 -269q111 -394 120 -417h-342q-43 82 -105 341q-31 131 -82 183q-52 52 -167 52h-104v-576h-333zM478 816h139q126 0 198 57q73 58 73 154q0 97 -65.5 150 t-186.5 52q-118 0 -158 -11v-402zM493 1574l186 274h352l-269 -274h-269z" />
<glyph unicode="&#x155;" horiz-adv-x="845" d="M128 1061h289l10 -201h10q39 109 120.5 167t173.5 58q51 0 72 -6v-315q-42 11 -91 11q-93 0 -166 -53t-73 -186v-536h-336v708q0 239 -9 353zM254 1189l191 333h311l-272 -333h-230z" />
<glyph unicode="&#x158;" horiz-adv-x="1319" d="M145 0v1444q185 33 454 33q332 0 478 -111q145 -109 145 -313q0 -122 -73 -220t-190 -139v-8q137 -51 199 -269q111 -394 120 -417h-342q-43 82 -105 341q-31 131 -82 183q-52 52 -167 52h-104v-576h-333zM301 1848h230l119 -144l113 144h232l-223 -274h-245zM478 816 h139q126 0 198 57q73 58 73 154q0 97 -65.5 150t-186.5 52q-118 0 -158 -11v-402z" />
<glyph unicode="&#x159;" horiz-adv-x="845" d="M112 1522h216l117 -192l115 192h215l-220 -333h-223zM128 1061h289l10 -201h10q39 109 120.5 167t173.5 58q51 0 72 -6v-315q-42 11 -91 11q-93 0 -166 -53t-73 -186v-536h-336v708q0 239 -9 353z" />
<glyph unicode="&#x15a;" horiz-adv-x="1208" d="M91 70l70 276q188 -96 382 -96q111 0 174 42q62 42 62 116q0 66 -56 110.5t-195 91.5q-419 138 -420 436q0 192 155 317q154 124 410 124q224 0 391 -76l-76 -267q-153 72 -319 72q-102 0 -160 -39q-57 -40 -57 -102q0 -57 48 -99q49 -40 231 -106q203 -72 297 -177 q95 -106 95 -263q0 -201 -159 -328q-159 -126 -442 -126q-244 1 -431 94zM449 1574l187 274h352l-269 -274h-270z" />
<glyph unicode="&#x15b;" horiz-adv-x="969" d="M74 52l61 238q58 -33 144 -56q85 -23 151 -23q146 0 146 87q0 43 -36 67q-35 24 -126 52q-312 96 -312 317q0 152 122 251.5t321 99.5q174 0 308 -62l-58 -230q-126 60 -240 60q-130 0 -130 -85q0 -38 40 -63q40 -27 138 -58q152 -48 224 -126.5t72 -199.5 q0 -157 -124 -251t-345 -94q-204 0 -356 76zM382 1189l191 333h311l-271 -333h-231z" />
<glyph unicode="&#x160;" horiz-adv-x="1208" d="M91 70l70 276q188 -96 382 -96q111 0 174 42q62 42 62 116q0 66 -56 110.5t-195 91.5q-419 138 -420 436q0 192 155 317q154 124 410 124q224 0 391 -76l-76 -267q-153 72 -319 72q-102 0 -160 -39q-57 -40 -57 -102q0 -57 48 -99q49 -40 231 -106q203 -72 297 -177 q95 -106 95 -263q0 -201 -159 -328q-159 -126 -442 -126q-244 1 -431 94zM285 1848h230l120 -144l113 144h232l-223 -274h-246z" />
<glyph unicode="&#x161;" horiz-adv-x="969" d="M74 52l61 238q58 -33 144 -56q85 -23 151 -23q146 0 146 87q0 43 -36 67q-35 24 -126 52q-312 96 -312 317q0 152 122 251.5t321 99.5q174 0 308 -62l-58 -230q-126 60 -240 60q-130 0 -130 -85q0 -38 40 -63q40 -27 138 -58q152 -48 224 -126.5t72 -199.5 q0 -157 -124 -251t-345 -94q-204 0 -356 76zM161 1522h214l118 -192l114 192h216l-220 -333h-224z" />
<glyph unicode="&#x164;" horiz-adv-x="1228" d="M33 1183v280h1163v-280h-417v-1183h-336v1183h-410zM266 1848h230l120 -144l112 144h232l-223 -274h-245z" />
<glyph unicode="&#x165;" horiz-adv-x="808" d="M37 814v247h143v200l328 89v-289h241v-247h-241v-373q0 -105 30 -148q31 -43 102 -43q65 0 102 11l2 -255q-79 -30 -218 -30q-152 0 -249 91t-97 320v427h-143zM628 1174q78 217 112 435l239 15q-83 -256 -194 -437z" />
<glyph unicode="&#x16e;" horiz-adv-x="1525" d="M145 655v808h337v-829q0 -191 71 -292q72 -100 207 -101q284 0 284 393v829h337v-812q0 -331 -162 -502.5t-470 -172.5q-603 0 -604 679zM513 1702q0 94 70 154t184 60q117 0 184 -58q67 -59 66 -156q0 -92 -67 -151.5t-183 -59.5q-112 0 -183 60t-71 151zM668 1702 q0 -41 26 -71q28 -29 69 -29q46 0 74 28q28 29 28 72q0 44 -28 74t-74 30q-42 0 -68.5 -30.5t-26.5 -73.5z" />
<glyph unicode="&#x16f;" horiz-adv-x="1299" d="M132 439v622h337v-566q0 -250 173 -250q74 0 130 54q56 53 55 136v626h337v-718q0 -170 8 -343h-291l-15 154h-8q-113 -178 -342 -178q-182 0 -283 119t-101 344zM400 1381q0 97 68.5 158.5t184.5 60.5q117 0 183 -60q67 -60 67 -159q0 -92 -69 -152.5t-181 -60.5 q-115 0 -183 61q-70 60 -70 152zM553 1381q0 -41 27.5 -72t70.5 -31q45 0 74 30q29 31 29 75q0 46 -28 76q-27 30 -73 30t-72 -30q-28 -31 -28 -78z" />
<glyph unicode="&#x170;" horiz-adv-x="1525" d="M145 655v808h337v-829q0 -191 71 -292q72 -100 207 -101q284 0 284 393v829h337v-812q0 -331 -162 -502.5t-470 -172.5q-603 0 -604 679zM446 1593l150 259h310l-225 -259h-235zM846 1593l149 259h311l-226 -259h-234z" />
<glyph unicode="&#x171;" horiz-adv-x="1299" d="M132 439v622h337v-566q0 -250 173 -250q74 0 130 54q56 53 55 136v626h337v-718q0 -170 8 -343h-291l-15 154h-8q-113 -178 -342 -178q-182 0 -283 119t-101 344zM311 1198l134 324h265l-211 -324h-188zM694 1198l135 324h265l-210 -324h-190z" />
<glyph unicode="&#x178;" horiz-adv-x="1358" d="M26 1463h386q266 -604 276 -630q50 135 271 630h383l-501 -846v-617h-337v603zM322 1728q0 62 45 107q44 43 110 43q59 0 101 -43q42 -45 42 -107q0 -61 -41.5 -104.5t-101.5 -43.5q-65 0 -110 44q-45 43 -45 104zM774 1728q0 63 43 107q43 42 106 43q62 0 104 -43 q43 -45 43 -107t-43 -105q-41 -43 -104 -43q-64 0 -106.5 42.5t-42.5 105.5z" />
<glyph unicode="&#x179;" horiz-adv-x="1299" d="M54 0v180l725 999v6h-659v278h1100v-189l-710 -990v-6h723v-278h-1179zM484 1574l187 274h352l-269 -274h-270z" />
<glyph unicode="&#x17a;" horiz-adv-x="1046" d="M48 0v191q351 420 388 462q37 41 131 144h-482v264h897v-199q-358 -431 -399 -478q-41 -49 -112 -115v-4h528v-265h-951zM398 1189l190 333h311l-271 -333h-230z" />
<glyph unicode="&#x17b;" horiz-adv-x="1299" d="M54 0v180l725 999v6h-659v278h1100v-189l-710 -990v-6h723v-278h-1179zM535 1730q0 62 45 107q44 43 109 43q60 0 104 -43q41 -45 41 -107q0 -60 -41 -105q-43 -45 -104 -45q-64 0 -109 45t-45 105z" />
<glyph unicode="&#x17c;" horiz-adv-x="1046" d="M48 0v191q351 420 388 462q37 41 131 144h-482v264h897v-199q-358 -431 -399 -478q-41 -49 -112 -115v-4h528v-265h-951zM412 1332q0 63 45 107q44 44 110 44q61 0 102 -43.5t41 -107.5q0 -61 -42 -105q-42 -43 -104 -44q-64 0 -107.5 44.5t-44.5 104.5z" />
<glyph unicode="&#x17d;" horiz-adv-x="1299" d="M54 0v180l725 999v6h-659v278h1100v-189l-710 -990v-6h723v-278h-1179zM320 1848h230l120 -144l112 144h232l-223 -274h-245z" />
<glyph unicode="&#x17e;" horiz-adv-x="1046" d="M48 0v191q351 420 388 462q37 41 131 144h-482v264h897v-199q-358 -431 -399 -478q-41 -49 -112 -115v-4h528v-265h-951zM202 1522h216l117 -192l115 192h215l-219 -333h-224z" />
<glyph unicode="&#x192;" d="M63 -163l47 235q49 -19 105 -20q96 0 127 75t45 176l43 364h-173v230h201q54 538 486 538q112 0 183 -35l-52 -236q-51 19 -107 19q-66 0 -116 -46.5t-71 -239.5h224v-230h-251q-53 -412 -66 -490.5t-58.5 -172.5t-134.5 -148.5t-230 -54.5q-123 0 -202 36z" />
<glyph unicode="&#x2c6;" horiz-adv-x="650" d="M0 1189l219 333h216l218 -333h-214l-111 189l-115 -189h-213z" />
<glyph unicode="&#x2da;" horiz-adv-x="868" d="M182 1381q0 97 69 158t186 61q116 0 182.5 -60t66.5 -159q0 -92 -69 -152.5t-180 -60.5q-115 0 -185 60.5t-70 152.5zM336 1381q0 -41 28 -72t71 -31q45 0 73 30.5t28 74.5q0 46 -27.5 76t-71.5 30q-46 0 -73.5 -30.5t-27.5 -77.5z" />
<glyph unicode="&#x2dc;" horiz-adv-x="650" d="M19 1205q0 276 168 276q48 0 145 -44q71 -41 95 -41q32 0 43.5 23.5t16.5 71.5h147q0 -144 -42.5 -206.5t-131.5 -62.5q-62 0 -154 48q-58 33 -84 33q-46 0 -52 -98h-151z" />
<glyph unicode="&#x2000;" horiz-adv-x="958" />
<glyph unicode="&#x2001;" horiz-adv-x="1916" />
<glyph unicode="&#x2002;" horiz-adv-x="958" />
<glyph unicode="&#x2003;" horiz-adv-x="1916" />
<glyph unicode="&#x2004;" horiz-adv-x="638" />
<glyph unicode="&#x2005;" horiz-adv-x="479" />
<glyph unicode="&#x2006;" horiz-adv-x="319" />
<glyph unicode="&#x2007;" horiz-adv-x="319" />
<glyph unicode="&#x2008;" horiz-adv-x="239" />
<glyph unicode="&#x2009;" horiz-adv-x="383" />
<glyph unicode="&#x200a;" horiz-adv-x="106" />
<glyph unicode="&#x2010;" horiz-adv-x="713" d="M65 456v221h584v-221h-584z" />
<glyph unicode="&#x2011;" horiz-adv-x="713" d="M65 456v221h584v-221h-584z" />
<glyph unicode="&#x2012;" horiz-adv-x="713" d="M65 456v221h584v-221h-584z" />
<glyph unicode="&#x2013;" horiz-adv-x="1085" d="M65 447v204h956v-204h-956z" />
<glyph unicode="&#x2014;" horiz-adv-x="2170" d="M65 447v204h2041v-204h-2041z" />
<glyph unicode="&#x2018;" horiz-adv-x="580" d="M63 895q102 327 262 592l207 17q-104 -290 -153 -590z" />
<glyph unicode="&#x2019;" horiz-adv-x="580" d="M60 895q104 290 153 590l317 19q-107 -334 -263 -590z" />
<glyph unicode="&#x201a;" horiz-adv-x="580" d="M39 -224q104 291 152 591l317 20q-103 -329 -263 -594z" />
<glyph unicode="&#x201c;" horiz-adv-x="1013" d="M60 895q103 327 263 592l207 17q-104 -290 -153 -590zM495 895q111 339 263 592l206 17q-104 -290 -152 -590z" />
<glyph unicode="&#x201d;" horiz-adv-x="1013" d="M60 895q104 290 153 590l317 19q-114 -346 -263 -590zM495 895q104 290 152 590l317 19q-106 -334 -262 -590z" />
<glyph unicode="&#x201e;" horiz-adv-x="1026" d="M37 -224q104 291 152 591l317 20q-112 -340 -263 -594zM471 -224q104 291 152 591l317 20q-103 -329 -263 -594z" />
<glyph unicode="&#x2022;" horiz-adv-x="746" d="M85 744q0 120 85 205t203 85q119 0 204 -85t85 -205t-84.5 -204t-204.5 -84t-204 83.5t-84 204.5z" />
<glyph unicode="&#x2026;" horiz-adv-x="2170" d="M163 178q0 88 56.5 144.5t143.5 56.5t142 -56t55 -145t-56 -145.5t-144 -56.5q-87 0 -142 57t-55 145zM886 178q0 88 56.5 144.5t142.5 56.5q88 0 143 -56t55 -145t-56 -145.5t-144 -56.5q-87 0 -142 57t-55 145zM1609 178q0 88 55.5 144.5t143.5 56.5t143 -56t55 -145 t-56 -145.5t-144 -56.5q-87 0 -142 57t-55 145z" />
<glyph unicode="&#x202f;" horiz-adv-x="383" />
<glyph unicode="&#x2039;" horiz-adv-x="598" d="M60 549l255 415h232l-263 -415l263 -417h-232z" />
<glyph unicode="&#x203a;" horiz-adv-x="598" d="M52 132l263 417l-263 415h230l256 -415l-256 -417h-230z" />
<glyph unicode="&#x205f;" horiz-adv-x="479" />
<glyph unicode="&#x20ac;" d="M6 504v156h122v36q0 16 1 32t1 32h-124v156h150q42 177 155 296q95 106 225 164.5t287 58.5q102 0 190 -19.5t151 -48.5l-64 -249q-44 22 -110.5 39t-140.5 17q-82 0 -154 -29.5t-124 -91.5q-25 -27 -41.5 -61.5t-28.5 -75.5h565v-156h-600q-3 -15 -3.5 -31t-0.5 -35v-34 h604v-156h-571q12 -46 30.5 -81.5t43.5 -64.5q55 -58 130.5 -85.5t162.5 -27.5q39 0 77 6.5t72 15t61.5 19t45.5 18.5l54 -241q-57 -35 -149.5 -61t-202.5 -26q-83 0 -162 17t-149.5 49.5t-131 81t-108.5 110.5q-42 54 -72.5 121.5t-47.5 148.5h-143z" />
<glyph unicode="&#x2122;" horiz-adv-x="1935" d="M37 1287v176h715v-176h-253v-688h-215v688h-247zM803 599l59 864h296q114 -377 162 -579h4q60 231 73 265l103 314h280l53 -864h-209q-21 408 -27 710h-4q-41 -172 -210 -694h-167q-122 427 -139 501l-46 193h-4q-4 -289 -28 -710h-196z" />
<glyph unicode="&#xe000;" horiz-adv-x="1063" d="M0 0v1064h1064v-1064h-1064z" />
</font>
</defs>
</svg>
