<?xml version="1.0" standalone="no"?>
<!DOCTYPE svg PUBLIC "-//W3C//DTD SVG 1.1//EN" "http://www.w3.org/Graphics/SVG/1.1/DTD/svg11.dtd" >
<svg xmlns="http://www.w3.org/2000/svg">
<metadata></metadata>
<defs>
<font id="MyriadProRegular" horiz-adv-x="1123" >
<font-face units-per-em="2048" ascent="1536" descent="-512" />
<missing-glyph horiz-adv-x="464" />
<glyph horiz-adv-x="0" />
<glyph horiz-adv-x="2048" />
<glyph unicode=" "  horiz-adv-x="464" />
<glyph unicode="&#x09;" horiz-adv-x="464" />
<glyph unicode="&#xa0;" horiz-adv-x="464" />
<glyph unicode="!" horiz-adv-x="503" d="M123 111q0 60 37 98t95 38q57 0 91.5 -38t34.5 -98q0 -38 -16 -69t-46 -49t-70 -18q-36 0 -65 18t-45 49t-16 69zM147 1477h210l-31 -1054h-148z" />
<glyph unicode="&#x22;" horiz-adv-x="738" d="M111 1516h192l-38 -525h-118zM439 1516h190l-37 -525h-117z" />
<glyph unicode="#" horiz-adv-x="1088" d="M81 429v130h201l42 317h-190v130h207l58 418h130l-58 -418h230l55 418h129l-55 -418h180v-130h-199l-40 -317h189v-130h-209l-57 -429h-131l58 429h-228l-56 -429h-130l56 429h-182zM412 559h228l42 317h-228z" />
<glyph unicode="$" d="M144 129l53 147q41 -26 88 -46.5t107 -34t118 -13.5q116 0 188.5 60.5t72.5 154.5q0 88 -60.5 148.5t-187.5 111.5q-88 35 -151 70.5t-112 81.5t-73 103t-24 127q0 136 89.5 231.5t238.5 120.5v219h138v-212q160 -5 285 -77l-55 -144q-130 76 -276 76q-49 0 -89 -11.5 t-66 -30t-44 -43.5t-25.5 -51.5t-7.5 -53.5q0 -81 60.5 -133t211.5 -117q175 -71 257 -164t82 -235q0 -89 -39 -166t-118.5 -133t-189.5 -73v-228h-138v219q-94 2 -184 28.5t-149 67.5z" />
<glyph unicode="%" horiz-adv-x="1735" d="M65 1004q0 104 27 189t74.5 140.5t110 85.5t135.5 30q98 0 171.5 -49.5t114 -145.5t40.5 -229q0 -109 -27 -196t-73.5 -141.5t-107.5 -82.5t-131 -28q-54 0 -103.5 16.5t-91 51.5t-72.5 85t-48.5 120t-18.5 154zM217 1012q-3 -139 47.5 -229.5t138.5 -90.5q62 0 104 42.5 t61 113.5t19 166q0 69 -10 124.5t-31.5 100t-58 69t-86.5 24.5q-57 0 -99.5 -43t-63.5 -115t-21 -162zM383 -27l840 1478h122l-839 -1478h-123zM995 414q0 104 27 189t74 140.5t109.5 85.5t135.5 30q150 0 238.5 -112t88.5 -313q0 -109 -27 -196t-74 -141.5t-108 -83 t-131 -28.5q-69 0 -128 27t-105 79.5t-72.5 135.5t-27.5 187zM1146 421q-3 -140 47 -230t139 -90q92 0 138 88t46 236q0 67 -10 123t-31.5 100.5t-58.5 69.5t-86 25q-58 0 -100 -43.5t-63 -115.5t-21 -163z" />
<glyph unicode="&#x26;" horiz-adv-x="1325" d="M67 391q0 273 290 431v6q-58 73 -90.5 153t-32.5 156q0 70 25 134.5t70.5 117t118 83.5t161.5 31q141 0 233.5 -85.5t92.5 -227.5q0 -79 -32 -146t-104 -129t-188 -120v-9q235 -270 359 -409q99 150 143 432h175q-63 -369 -212 -546q25 -26 109 -117.5t134 -145.5h-228 q-19 19 -63 65.5t-75 76.5q-182 -167 -432 -167q-104 0 -191 34t-143.5 91t-88 132t-31.5 159zM253 418q0 -84 38 -151.5t107.5 -106.5t157.5 -39q91 0 169 36.5t134 97.5q-250 274 -416 466q-190 -123 -190 -303zM410 1157q0 -74 28.5 -136t82.5 -132q34 20 60.5 37 t53 36.5t46 38t36.5 39.5t27.5 42.5t16.5 46.5t6 52q0 35 -10 68t-30 61t-54.5 45t-78.5 17q-87 0 -135.5 -62.5t-48.5 -152.5z" />
<glyph unicode="'" horiz-adv-x="411" d="M111 1516h192l-38 -525h-118z" />
<glyph unicode="(" horiz-adv-x="621" d="M140 625q3 517 287 895h150q-274 -370 -274 -897q0 -142 20.5 -271.5t59.5 -239t86 -200t108 -177.5h-150q-287 378 -287 890z" />
<glyph unicode=")" horiz-adv-x="621" d="M44 -265q274 388 274 894q0 144 -20.5 273.5t-59 239.5t-86 200.5t-108.5 177.5h149q287 -374 287 -891q-2 -514 -287 -894h-149z" />
<glyph unicode="*" horiz-adv-x="908" d="M65 1043v149l322 -42v5l-205 269l134 77l136 -307h4l134 309l131 -77l-208 -274v-4l330 44v-149l-330 42v-6l210 -264l-138 -79l-133 307h-5l-140 -309l-125 79l209 268v6z" />
<glyph unicode="+" horiz-adv-x="1305" d="M88 519v132h495v515h140v-515h496v-132h-496v-519h-140v519h-495z" />
<glyph unicode="," horiz-adv-x="452" d="M35 -272q37 99 75.5 253t56.5 274l214 21q-39 -139 -101.5 -297.5t-108.5 -235.5z" />
<glyph unicode="-" horiz-adv-x="671" d="M65 521v140h542v-140h-542z" />
<glyph unicode="." horiz-adv-x="452" d="M113 113.5q0 59.5 37.5 99.5t95 40t93 -39t35.5 -101q0 -60 -36.5 -99t-96.5 -39q-56 0 -92 39.5t-36 99z" />
<glyph unicode="/" horiz-adv-x="751" d="M-2 -86l609 1589h152l-615 -1589h-146z" />
<glyph unicode="0" d="M79 708q0 177 37 318t103.5 233t157.5 141t200 49q223 0 347 -190t124 -531q0 -362 -130 -557.5t-366 -195.5q-212 0 -341 193t-132 540zM274 705q0 -274 78 -427t211 -153q95 0 161 73.5t97.5 205t31.5 315.5q0 179 -30 306.5t-96 200.5t-164 73q-129 0 -209 -155.5 t-80 -438.5z" />
<glyph unicode="1" d="M228 1258l311 166h164v-1424h-186v1244h-4l-248 -133z" />
<glyph unicode="2" d="M98 0v119l151 146q74 71 127.5 123.5t108.5 109t92.5 99.5t73 89.5t58 85.5t39.5 79.5t24.5 79.5t7.5 79q0 57 -14.5 105t-45.5 88t-87 62.5t-133 22.5q-88 0 -165.5 -35t-137.5 -85l-61 136q77 65 181 105t220 40q75 0 139 -16.5t111 -46t83 -68.5t58 -85.5t33.5 -96 t11.5 -101.5q0 -65 -15 -127.5t-46.5 -125t-70.5 -120t-98.5 -125.5t-118 -128t-141.5 -139l-113 -105v-5h638v-160h-910z" />
<glyph unicode="3" d="M92 73l52 146q33 -19 76 -37.5t110 -34t130 -15.5q59 0 109 11.5t84.5 32.5t60.5 48t40.5 58.5t21.5 62.5t6 63q0 48 -14.5 89.5t-40.5 72.5t-60 54.5t-75.5 38.5t-86 22t-91.5 7h-107v145h107q55 0 109.5 14.5t102 42.5t77 76t29.5 109q0 43 -14.5 81t-43.5 68t-78 47.5 t-113 17.5q-79 0 -156 -28.5t-130 -66.5l-53 141q41 28 97 52.5t130.5 41t147.5 16.5q101 0 181 -28.5t128.5 -77t73.5 -108.5t25 -126q0 -114 -67.5 -202.5t-195.5 -135.5v-4q67 -12 124 -43t100 -76.5t68 -108.5t26 -136q0 -68 -21 -131.5t-64.5 -117.5t-104.5 -93.5 t-146 -62.5t-184 -23q-111 0 -210.5 29t-159.5 69z" />
<glyph unicode="4" d="M33 391v124l636 909h207v-885h200v-148h-200v-391h-182v391h-661zM228 539h466v475q0 112 7 224h-7q-61 -118 -117 -210l-349 -484v-5z" />
<glyph unicode="5" d="M92 63l48 148q52 -32 134.5 -55.5t172.5 -23.5q91 0 167 36.5t122.5 108.5t45.5 164q0 144 -101.5 228.5t-306.5 84.5q-85 0 -199 -14l93 684h681v-161h-543l-55 -366q50 6 116 6q183 0 307 -77q89 -49 146 -143t57 -221q0 -103 -39.5 -193t-109 -154.5t-168.5 -102 t-213 -37.5q-108 0 -202 25.5t-153 62.5z" />
<glyph unicode="6" d="M75 583q0 203 64.5 367.5t176.5 274.5q180 177 455 210q78 12 141 12v-159q-57 3 -145 -10q-111 -18 -200.5 -66t-149.5 -116.5t-96 -149.5t-49 -172h4q54 73 144.5 120t202.5 47q190 0 309.5 -127t119.5 -334q0 -99 -33 -189.5t-92.5 -161t-150.5 -112.5t-199 -42 q-150 0 -264 74.5t-176 212.5t-62 321zM265 535q1 -119 37 -210.5t108 -145.5t171 -54q61 0 112.5 25t87.5 69.5t56 108t20 139.5q0 151 -80 238.5t-214 87.5q-58 0 -112 -21.5t-97 -61t-69 -92.5q-20 -38 -20 -83z" />
<glyph unicode="7" d="M125 1265v159h898v-127l-620 -1297h-200l619 1260v5h-697z" />
<glyph unicode="8" d="M81 360q0 131 74 228t209 155l-2 6q-116 54 -172 138t-56 182q0 111 58 198t158.5 134.5t226.5 47.5q100 0 181 -29.5t131 -79t77 -112t27 -130.5q0 -64 -21.5 -122t-76.5 -115t-139 -96v-6q137 -55 212 -149t75 -219q0 -122 -64.5 -217.5t-174.5 -147t-245 -51.5 q-110 0 -200.5 31t-151 83.5t-93.5 122t-33 148.5zM278 385q-2 -53 17 -101.5t55 -85.5t91 -59t122 -22q128 0 207 71t79 182q0 122 -80 195t-234 117q-62 -18 -110.5 -48t-80.5 -68t-49 -84t-17 -97zM318 1083q-1 -52 18 -94.5t55.5 -74.5t85.5 -54.5t113 -39.5 q97 33 157 99.5t60 159.5q0 35 -8.5 67.5t-27 62.5t-46 52.5t-69 36t-91.5 13.5q-116 0 -181.5 -65.5t-65.5 -162.5z" />
<glyph unicode="9" d="M90 943q0 100 35.5 192.5t98 161.5t154.5 110.5t199 41.5q217 0 344 -163t127 -440q0 -222 -66.5 -389.5t-179.5 -276.5q-53 -53 -121 -93t-142.5 -64.5t-151.5 -33.5q-95 -14 -176 -10v157q44 -5 155 6q182 25 298 138q150 137 189 377h-7q-124 -151 -338 -151 q-124 0 -220.5 58.5t-147 157.5t-50.5 221zM280 953q0 -134 75 -218t199 -84q94 0 167.5 41t113.5 108q18 33 18 72q0 93 -18 170t-53 136t-92 91.5t-131 32.5q-122 0 -200.5 -98t-78.5 -251z" />
<glyph unicode=":" horiz-adv-x="452" d="M117 111q0 61 36 99.5t92 38.5q39 0 68.5 -17.5t45 -48.5t15.5 -72q0 -38 -15.5 -69t-45.5 -49t-70 -18q-56 0 -91 39t-35 97zM117 885q0 61 36 99.5t92 38.5q59 0 94 -38.5t35 -99.5q0 -59 -35.5 -97.5t-95.5 -38.5q-37 0 -66 18t-44.5 49t-15.5 69z" />
<glyph unicode=";" horiz-adv-x="452" d="M37 -270q24 66 50 158t48 190.5t34 178.5l212 21q-39 -139 -101 -297t-109 -236zM132 885q0 61 36.5 99.5t92.5 38.5q59 0 94.5 -38.5t35.5 -99.5q0 -59 -36 -97.5t-96 -38.5q-56 0 -91.5 39t-35.5 97z" />
<glyph unicode="&#x3c;" horiz-adv-x="1305" d="M144 523v119l1017 524v-152l-856 -429v-4l856 -430v-151z" />
<glyph unicode="=" horiz-adv-x="1305" d="M88 309v132h1131v-132h-1131zM88 738v132h1131v-132h-1131z" />
<glyph unicode="&#x3e;" horiz-adv-x="1305" d="M144 0v151l864 430v4l-864 429v152l1017 -520v-125z" />
<glyph unicode="?" horiz-adv-x="889" d="M111 1416q57 39 142 63t172 24q91 0 163 -26.5t115 -72t65.5 -102t22.5 -121.5q0 -53 -13.5 -102t-43 -99t-57 -86.5t-75.5 -93.5q-71 -83 -100.5 -161.5t-24.5 -163.5l6 -54h-174l-4 56q-21 191 136 380q80 95 116.5 162.5t36.5 137.5q0 85 -54 135.5t-155 52.5 q-60 0 -120 -18t-100 -49zM263 111q0 40 17 71.5t46.5 49t66.5 17.5q58 0 93 -38t35 -100q0 -59 -35.5 -97.5t-94.5 -38.5q-56 0 -92 39t-36 97z" />
<glyph unicode="@" horiz-adv-x="1614" d="M94 456q0 135 36 261t106 231t166 184t223 123t270 44q112 0 211.5 -30.5t176.5 -87.5t133 -135t85 -175.5t29 -206.5q0 -119 -32 -219t-86 -165.5t-124 -101.5t-146 -36q-72 0 -120 48.5t-45 144.5h-7q-114 -193 -309 -193q-99 0 -167.5 75.5t-68.5 200.5 q0 102 39 196.5t106 166t165 114.5t210 43q137 0 234 -46l-75 -397q-48 -242 67 -246q33 -1 67 15.5t64 51t53.5 82t37.5 112.5t14 138q0 121 -35.5 221.5t-102 174t-167.5 114t-226 40.5q-133 0 -253 -52t-209.5 -145t-142 -231t-52.5 -301q0 -108 27.5 -202t78 -165.5 t119.5 -122.5t155 -77.5t183 -26.5q193 0 331 77l35 -94q-168 -88 -389 -88q-108 0 -207.5 30.5t-182.5 89.5t-144.5 141t-96 191.5t-34.5 233.5zM569 427q0 -75 38 -120.5t108 -45.5q60 0 119 46.5t97.5 114t50.5 137.5l46 246q-43 17 -110 17q-94 0 -175 -54t-127.5 -145 t-46.5 -196z" />
<glyph unicode="A" horiz-adv-x="1340" d="M55 0l504 1477h227l504 -1477h-203l-158 464h-523l-153 -464h-198zM445 613h447l-147 426q-31 91 -76 270h-5q-45 -184 -74 -268z" />
<glyph unicode="B" horiz-adv-x="1187" d="M167 4v1451q144 33 348 33q142 0 239 -25.5t164 -82.5q125 -92 125 -260q0 -71 -30.5 -135.5t-87 -113.5t-132.5 -76v-6q44 -11 85.5 -30t82 -51t70.5 -72.5t48.5 -96t18.5 -118.5q0 -179 -128 -296q-147 -138 -508 -138q-169 0 -295 17zM357 144q53 -8 160 -8 q51 0 96.5 6.5t89 20t78 36.5t61 54t41 74t14.5 96q0 72 -30 128t-83 89.5t-121 50.5t-148 17h-158v-564zM357 851h174q146 0 232 70t86 179q0 124 -85.5 182.5t-237.5 58.5q-107 0 -169 -13v-477z" />
<glyph unicode="C" horiz-adv-x="1270" d="M79 725q0 172 56.5 317t157.5 246t244.5 157t313.5 56q84 0 159.5 -11.5t118 -25t72.5 -29.5l-49 -155q-122 61 -295 61q-130 0 -236.5 -41t-182 -118t-117 -192t-41.5 -258q0 -275 150 -434.5t416 -159.5q89 0 172 16.5t141 44.5l37 -153q-56 -29 -159.5 -50t-229.5 -21 q-157 0 -289.5 49.5t-230.5 142.5t-153 236.5t-55 321.5z" />
<glyph unicode="D" horiz-adv-x="1458" d="M167 4v1451q201 33 405 33q398 0 599 -184q209 -189 209 -530q0 -179 -54.5 -325.5t-157.5 -249.5q-105 -103 -272.5 -157.5t-382.5 -54.5q-192 0 -346 17zM357 149q65 -9 193 -9q306 0 467.5 163t161.5 464v7q0 128 -36 230q-37 104 -110.5 178.5t-188 114t-263.5 39.5 q-133 0 -224 -19v-1168z" />
<glyph unicode="E" horiz-adv-x="1077" d="M165 0v1477h799v-160h-607v-466h572v-159h-572v-532h640v-160h-832z" />
<glyph unicode="F" horiz-adv-x="1066" d="M165 0v1477h795v-160h-603v-491h557v-157h-557v-669h-192z" />
<glyph unicode="G" horiz-adv-x="1415" d="M79 730q0 164 56 304.5t157.5 242t252.5 159t333 57.5q118 0 216.5 -21t154.5 -48l-48 -155q-134 63 -327 63q-134 0 -244 -41t-187.5 -116.5t-120 -187.5t-42.5 -249q0 -278 154.5 -437t416.5 -159q172 0 253 40v441h-297v153h486v-711q-81 -31 -201.5 -55.5 t-254.5 -24.5q-349 0 -552 195q-97 93 -151.5 236t-54.5 314z" />
<glyph unicode="H" horiz-adv-x="1428" d="M165 0v1477h192v-618h714v618h194v-1477h-194v692h-714v-692h-192z" />
<glyph unicode="I" horiz-adv-x="523" d="M165 0v1477h192v-1477h-192z" />
<glyph unicode="J" horiz-adv-x="809" d="M9 11l26 156q77 -29 162 -29q67 0 114.5 17t83.5 57.5t54 112.5t18 179v973h192v-988q0 -115 -22 -204t-61 -147t-96 -95t-122.5 -52.5t-144.5 -15.5q-53 0 -111 10.5t-93 25.5z" />
<glyph unicode="K" horiz-adv-x="1187" d="M167 0v1477h190v-712h7q50 72 116 157l451 555h237l-535 -626l576 -851h-225l-484 725l-143 -162v-563h-190z" />
<glyph unicode="L" horiz-adv-x="1033" d="M165 0v1477h192v-1317h632v-160h-824z" />
<glyph unicode="M" horiz-adv-x="1761" d="M127 0l103 1477h243l252 -714q88 -261 149 -498h4q51 191 159 498l262 714h244l92 -1477h-188l-36 648q-24 475 -24 638h-5q-100 -328 -186 -561l-261 -716h-144l-241 704q-113 336 -169 573h-4q-7 -282 -28 -653l-40 -633h-182z" />
<glyph unicode="N" horiz-adv-x="1441" d="M167 0v1477h210l472 -747q171 -279 262 -481l6 4q-21 246 -21 606v618h179v-1477h-192l-470 749q-184 296 -274 493l-6 -2q14 -242 14 -609v-631h-180z" />
<glyph unicode="O" horiz-adv-x="1509" d="M79 728q0 172 51.5 318t142 246t217 155.5t273.5 55.5q120 0 224.5 -35t185 -101.5t138 -158t87.5 -207t30 -247.5q0 -148 -35 -274.5t-97.5 -218.5t-148.5 -157t-188.5 -97t-215.5 -32q-146 0 -269.5 55t-210 153t-135.5 238.5t-49 306.5zM280 732q0 -68 10.5 -133.5 t31 -125t50 -111.5t69.5 -94.5t87 -72.5t105 -46.5t121 -16.5q75 0 140.5 22t117 62t92.5 96.5t68 124.5t41 146t14 162q0 90 -18 176t-56.5 163.5t-93 136t-132.5 93t-171 34.5q-92 0 -170.5 -33t-134 -91t-94.5 -136t-58 -168t-19 -188z" />
<glyph unicode="P" horiz-adv-x="1165" d="M167 0v1459q177 29 366 29q278 0 414 -123q40 -36 68.5 -82t44.5 -104t16 -123q0 -198 -114 -316q-76 -79 -193 -120t-259 -41q-100 0 -153 13v-592h-190zM357 747q59 -15 158 -15q114 0 197.5 36.5t128 107.5t44.5 169q0 144 -93 217.5t-255 73.5q-122 0 -180 -15v-574z " />
<glyph unicode="Q" horiz-adv-x="1509" d="M79 725q0 175 51.5 321t142 246t217 155.5t275.5 55.5t273.5 -55.5t210 -154t132.5 -236.5t47 -301q0 -139 -31 -258t-87.5 -207t-132.5 -150t-169 -95v-9q240 -61 432 -94l-55 -160q-287 75 -565 171q-67 21 -90 21q-89 4 -171 27.5t-154.5 66.5t-132.5 107.5t-103 145 t-66.5 184t-23.5 219.5zM280 730q0 -95 20 -183.5t60 -164t96 -131.5t133 -87.5t165 -31.5q75 0 140.5 22t117 62t92.5 96.5t68 124.5t41 146t14 162q0 91 -18 177.5t-56 164t-92 135.5t-131.5 92t-168.5 34q-94 0 -173.5 -33.5t-135.5 -92t-95 -137t-58 -168.5t-19 -187z " />
<glyph unicode="R" horiz-adv-x="1178" d="M167 0v1457q174 31 366 31q151 0 255 -29.5t172 -91.5q55 -49 85.5 -122.5t30.5 -159.5q0 -70 -21 -132t-59 -108.5t-87.5 -80t-108.5 -54.5v-7q159 -56 214 -297q42 -178 67.5 -272.5t47.5 -133.5h-198q-33 59 -96 353q-33 152 -100.5 217t-197.5 70h-180v-640h-190z M357 784h195q101 0 176.5 35t116 98.5t40.5 147.5q0 138 -91 206t-248 68q-131 0 -189 -15v-540z" />
<glyph unicode="S" horiz-adv-x="1079" d="M92 73l50 159q68 -43 157 -69.5t184 -26.5q143 0 225.5 69t82.5 182q0 102 -64.5 169t-213.5 123q-191 70 -290.5 171t-99.5 250q0 86 34.5 160t96 127t151.5 83.5t195 30.5q104 0 188 -20.5t136 -52.5l-52 -155q-43 28 -115.5 49t-162.5 21q-72 0 -128 -20t-87.5 -53 t-47 -70.5t-15.5 -77.5q0 -99 67 -161t226 -124q194 -75 284.5 -175.5t90.5 -258.5q0 -69 -19.5 -131.5t-61.5 -117t-102 -94t-145 -62.5t-187 -23q-104 0 -209.5 28.5t-167.5 69.5z" />
<glyph unicode="T" horiz-adv-x="1088" d="M-2 1315v162h1093v-162h-451v-1315h-193v1315h-449z" />
<glyph unicode="U" horiz-adv-x="1417" d="M165 607v870h192v-877q0 -120 26 -211t72.5 -146.5t108 -83t137.5 -27.5q169 0 264 116t95 352v877h193v-864q0 -133 -27.5 -240t-77 -180.5t-119.5 -123t-153.5 -72t-181.5 -22.5q-93 0 -171.5 21.5t-145.5 69t-113.5 120t-72.5 179.5t-26 242z" />
<glyph unicode="V" horiz-adv-x="1221" d="M6 1477h209l230 -728q114 -371 157 -552h5q53 220 169 550l249 730h204l-528 -1477h-210z" />
<glyph unicode="W" horiz-adv-x="1853" d="M33 1477h201l176 -747q62 -262 109 -511h4q25 150 121 513l197 745h200l180 -749q78 -330 103 -507h4q28 150 119 511l194 745h195l-418 -1477h-199l-186 769q-75 305 -98 482h-4q-35 -207 -114 -482l-210 -769h-199z" />
<glyph unicode="X" horiz-adv-x="1250" d="M55 0l451 747l-433 730h220l196 -346q91 -161 136 -250h6q52 109 134 250l199 346h222l-450 -718l460 -759h-221l-191 326q-95 155 -169 292h-4q-58 -118 -159 -294l-178 -324h-219z" />
<glyph unicode="Y" horiz-adv-x="1184" d="M27 1477h218l209 -408q121 -247 146 -304h5q11 28 24.5 57t29 60.5t29.5 58t33.5 64.5t32.5 64l212 408h215l-493 -848v-629h-193v627z" />
<glyph unicode="Z" horiz-adv-x="1211" d="M65 0v111l818 1200v6h-747v160h997v-116l-815 -1194v-7h826v-160h-1079z" />
<glyph unicode="[" horiz-adv-x="621" d="M178 -245v1748h401v-121h-251v-1507h251v-120h-401z" />
<glyph unicode="\" horiz-adv-x="746" d="M4 1503h149l596 -1589h-149z" />
<glyph unicode="]" horiz-adv-x="621" d="M44 -125h249v1507h-249v121h401v-1748h-401v120z" />
<glyph unicode="^" horiz-adv-x="1305" d="M134 414l451 1010h138l452 -1010h-154l-366 851h-4l-366 -851h-151z" />
<glyph unicode="_" horiz-adv-x="1095" d="M0 -165h1096v-109h-1096v109z" />
<glyph unicode="`" horiz-adv-x="656" d="M48 1518h211l193 -313h-136z" />
<glyph unicode="a" horiz-adv-x="1056" d="M77 280q0 193 165 295q162 100 461 100h12v22q0 31 -4 59t-19 63.5t-40 61t-71 43t-108 17.5q-50 0 -100 -9.5t-95.5 -27.5t-82.5 -43l-44 130q67 42 160 67t191 25q94 0 166 -25t116 -66t72 -98.5t38.5 -116.5t10.5 -126v-396q0 -153 15 -255h-173l-15 134h-7 q-48 -68 -132.5 -113.5t-191.5 -45.5q-78 0 -141 26t-102 69.5t-60 97.5t-21 112zM270 303q0 -91 51 -137.5t128 -46.5q99 0 167.5 51t93.5 125q9 29 9 62v184h-34q-415 0 -415 -238z" />
<glyph unicode="b" horiz-adv-x="1246" d="M151 0q9 164 9 274v1282h191v-667h4q52 92 144.5 143t217.5 51q131 0 233.5 -68t159 -190.5t56.5 -280.5q0 -93 -19 -174t-52.5 -142.5t-78.5 -110t-98.5 -79.5t-111.5 -47t-118 -16q-241 0 -357 198h-5l-10 -173h-165zM351 425q0 -41 9 -70q26 -101 105 -163.5 t183 -62.5q151 0 236.5 111.5t85.5 296.5q0 81 -20.5 151.5t-59.5 125t-100 86t-137 31.5q-99 0 -180.5 -65t-110.5 -172q-11 -41 -11 -81v-188z" />
<glyph unicode="c" horiz-adv-x="981" d="M83 517q0 121 41 225.5t114 179.5t180 118t235 43q79 0 151.5 -17t115.5 -41l-44 -147q-94 51 -223 51q-89 0 -161 -31.5t-118 -86.5t-71 -127.5t-25 -154.5q0 -181 103.5 -289t264.5 -108q125 0 237 50l33 -145q-29 -14 -69.5 -27t-105 -24t-130.5 -11q-158 0 -278 67.5 t-185 190.5t-65 284z" />
<glyph unicode="d" horiz-adv-x="1235" d="M83 515q0 129 38 237t103 179.5t151.5 111.5t183.5 40q115 0 197.5 -46t121.5 -115h5v634h191v-1282q0 -128 9 -274h-171l-9 184h-6q-29 -61 -79 -107t-122.5 -74t-156.5 -28q-63 0 -122.5 18t-109.5 50.5t-91.5 81t-71 107.5t-45.5 131t-16 152zM278 523 q0 -81 20.5 -151.5t59 -124.5t98.5 -84.5t136 -30.5q64 0 122 27.5t100.5 80t59.5 122.5q9 35 9 83v184q0 49 -9 81q-22 95 -97.5 158t-180.5 63q-97 0 -170 -53.5t-110.5 -145.5t-37.5 -209z" />
<glyph unicode="e" horiz-adv-x="1097" d="M83 513q0 95 22 181.5t65 157t102.5 122.5t138.5 80.5t170 28.5q72 0 133.5 -17.5t106 -47t79 -70.5t56.5 -85t36.5 -94t20.5 -95t6 -89q0 -57 -7 -90h-744q1 -95 30.5 -167t80 -115t114 -64.5t138.5 -21.5q169 0 293 55l36 -138q-149 -69 -355 -69q-161 0 -279.5 68 t-180.5 189t-62 281zM270 633h562v11q0 34 -6 68q-6 40 -24.5 83t-47.5 75.5t-78 53.5t-111 21q-36 0 -68.5 -8t-58.5 -22t-49 -33t-40 -42.5t-31 -48.5t-23.5 -52.5t-15.5 -53.5t-9 -52z" />
<glyph unicode="f" horiz-adv-x="639" d="M33 914v146h147v51q0 250 123 370q102 99 258 99q87 0 164 -31l-26 -148q-53 23 -122 23q-48 0 -84.5 -16.5t-59.5 -44t-37.5 -67.5t-20 -83.5t-5.5 -95.5v-57h257v-146h-257v-914h-190v914h-147z" />
<glyph unicode="g" horiz-adv-x="1224" d="M83 521q0 105 26.5 196t72 157.5t106.5 114t131 71t144 23.5q66 0 122 -15.5t95.5 -43t67 -57.5t47.5 -66h4l6 159h171q-9 -112 -9 -289v-616q0 -181 -37 -297.5t-114 -188.5q-50 -45 -117.5 -74.5t-133.5 -41t-136 -11.5q-99 0 -195 23t-159 65l49 149q58 -38 138 -62 t173 -24q76 0 136.5 20.5t107.5 64t72 116.5t25 171v117h-4q-45 -79 -132 -128.5t-205 -49.5q-129 0 -233 68t-161.5 186t-57.5 263zM278 533q0 -79 20.5 -148t59 -121.5t98.5 -82.5t136 -30q91 0 164.5 53.5t102.5 144.5q15 46 15 103v190q0 55 -11 86q-28 90 -97.5 147.5 t-171.5 57.5q-140 0 -228 -109t-88 -291z" />
<glyph unicode="h" horiz-adv-x="1215" d="M160 0v1556h193v-664h4q51 89 138 138q90 53 197 53q47 0 93.5 -11.5t98 -43.5t90 -80.5t64 -130t25.5 -186.5v-631h-193v609q0 67 -13 121.5t-41 98.5t-76.5 68.5t-114.5 24.5q-90 0 -159.5 -54.5t-99.5 -135.5q-13 -35 -13 -92v-640h-193z" />
<glyph unicode="i" horiz-adv-x="512" d="M136 1359q0 50 33.5 85t87.5 35q52 0 84.5 -34.5t32.5 -85.5t-32.5 -85t-88.5 -34q-52 0 -84.5 34.5t-32.5 84.5zM160 0v1060h193v-1060h-193z" />
<glyph unicode="j" horiz-adv-x="531" d="M-101 -311q146 10 210 83q41 46 58 129.5t17 267.5v891h193v-966q0 -159 -29.5 -262t-98.5 -173q-60 -60 -151.5 -90.5t-176.5 -30.5zM160 1359q0 50 33.5 85t86.5 35q36 0 63.5 -16.5t41.5 -43.5t14 -60q0 -50 -33 -84.5t-90 -34.5q-51 0 -83.5 35t-32.5 84z" />
<glyph unicode="k" horiz-adv-x="1027" d="M160 0v1556h191v-981h4q46 63 92 119l314 366h230l-408 -435l467 -625h-237l-364 508l-98 -109v-399h-191z" />
<glyph unicode="l" horiz-adv-x="516" d="M160 0v1556h193v-1556h-193z" />
<glyph unicode="m" horiz-adv-x="1827" d="M151 1060h169l8 -173h7q114 196 336 196q52 0 99.5 -15.5t85.5 -44t66.5 -67.5t45.5 -86h5q43 79 121 138q49 38 104 56.5t128 18.5q46 0 91 -12t93.5 -44.5t84 -82.5t59 -133t23.5 -188v-623h-189v598q0 104 -25 176.5t-77 111t-128 38.5q-79 0 -140 -49.5t-90 -123.5 q-16 -54 -16 -96v-655h-188v636q0 63 -14 116t-41.5 91.5t-70 59.5t-96.5 21q-56 0 -106.5 -28.5t-83 -71t-48.5 -92.5q-15 -38 -15 -94v-638h-189v774q0 89 -9 286z" />
<glyph unicode="n" horiz-adv-x="1215" d="M151 1060h171l11 -175h4q20 38 52.5 72.5t76 63t101.5 45.5t121 17q48 0 95.5 -11.5t99.5 -43t90.5 -80.5t64 -130.5t25.5 -186.5v-631h-193v611q0 67 -13 121.5t-41 99t-76.5 68.5t-114.5 24q-91 0 -161 -56t-98 -140q-13 -37 -13 -90v-638h-193v774q0 155 -9 286z" />
<glyph unicode="o" horiz-adv-x="1202" d="M83 521q0 129 41.5 236t112.5 178t167 109.5t205 38.5q151 0 267.5 -68.5t180 -192t63.5 -283.5q0 -114 -30.5 -209t-82 -159.5t-120 -109.5t-143 -65.5t-152.5 -20.5q-85 0 -162 24.5t-140 72t-109.5 113t-72 151.5t-25.5 185zM280 529q0 -116 40.5 -208.5t114 -146 t165.5 -53.5q91 0 165 53t115.5 147t41.5 212q0 46 -7.5 92.5t-23.5 92.5t-42.5 85.5t-60.5 70t-81 47.5t-102 17q-66 0 -120.5 -23.5t-92 -63t-63 -92.5t-37.5 -111t-12 -119z" />
<glyph unicode="p" horiz-adv-x="1246" d="M151 1060h171l11 -182h4q29 49 67.5 87t85.5 64t103.5 40t121.5 14q96 0 179.5 -39.5t143.5 -109t94 -170t34 -218.5q0 -111 -26.5 -205.5t-72 -160.5t-107.5 -113t-132.5 -69.5t-145.5 -22.5q-106 0 -193 44.5t-134 122.5h-4v-576h-191v1149q0 119 -9 345zM351 431 q0 -45 9 -78q17 -66 59 -117.5t101.5 -80t127.5 -28.5q100 0 173.5 52t111 144.5t37.5 213.5q0 107 -35.5 195t-108.5 142.5t-171 54.5q-101 0 -183 -65t-108 -172q-13 -49 -13 -77v-184z" />
<glyph unicode="q" horiz-adv-x="1233" d="M83 510q0 116 28.5 212.5t76 162t110 111t129.5 66.5t136 21q117 0 200.5 -50.5t125.5 -131.5h6l6 159h182q-9 -175 -9 -291v-1203h-191v597h-5q-30 -54 -76.5 -95t-116.5 -67t-152 -26q-92 0 -174.5 39t-143 107.5t-96.5 169.5t-36 219zM278 523q0 -81 19.5 -151.5 t57 -125t98.5 -86t139 -31.5q95 0 169 55t107 153q15 51 15 94v200q0 47 -9 79q-24 94 -98 156.5t-178 62.5q-147 0 -233.5 -113t-86.5 -293z" />
<glyph unicode="r" horiz-adv-x="715" d="M151 1060h169l8 -209h7q18 52 48.5 95.5t69 73.5t84.5 46.5t94 16.5q18 0 53 -4v-182q-20 4 -66 4q-66 0 -120.5 -31.5t-89.5 -87t-48 -127.5q-7 -40 -7 -90v-565h-193v730q0 183 -9 330z" />
<glyph unicode="s" horiz-adv-x="867" d="M88 50l46 145q50 -30 120 -52t137 -22q99 0 151 43.5t52 113.5q0 68 -44 110.5t-151 82.5q-282 103 -282 300q0 65 25.5 121.5t72 99t116 67t152.5 24.5q77 0 145 -18.5t112 -48.5l-46 -140q-100 65 -217 65q-82 0 -128 -42t-46 -104q0 -63 44.5 -100.5t154.5 -81.5 q141 -52 209.5 -127.5t68.5 -190.5q0 -94 -46.5 -166t-136.5 -113t-212 -41q-169 0 -297 75z" />
<glyph unicode="t" horiz-adv-x="724" d="M40 914v146h163v198l190 57v-255h276v-146h-276v-573q0 -102 33.5 -153.5t110.5 -51.5q68 0 111 13l9 -147q-78 -27 -170 -27q-134 0 -209 82q-75 84 -75 278v579h-163z" />
<glyph unicode="u" horiz-adv-x="1206" d="M153 441v619h194v-585q0 -339 236 -339q91 0 157.5 52t96.5 126q18 45 18 98v648h193v-769q0 -180 8 -291h-171l-11 173h-4q-20 -35 -49.5 -67.5t-72.5 -63t-102.5 -49t-126.5 -18.5q-44 0 -85 9.5t-83.5 29t-77 56t-62 86t-43 122.5t-15.5 163z" />
<glyph unicode="v" horiz-adv-x="1053" d="M29 1060h205l209 -593q59 -164 86 -274h6q30 107 90 274l205 593h203l-418 -1060h-184z" />
<glyph unicode="w" horiz-adv-x="1612" d="M40 1060h196l143 -539q4 -19 20 -83.5t22.5 -92.5t17 -75t17.5 -86h6q29 124 94 335l174 541h162l164 -529q56 -179 94 -347h7q20 130 81 345l151 531h191l-342 -1060h-175l-162 506q-61 193 -94 349h-5q-32 -154 -97 -351l-170 -504h-175z" />
<glyph unicode="x" horiz-adv-x="1014" d="M17 0l378 541l-360 519h214l152 -228q42 -58 109 -171h5q45 79 108 174l146 225h210l-361 -512l371 -548h-218l-158 239q-32 46 -113 184h-5q-51 -92 -112 -184l-153 -239h-213z" />
<glyph unicode="y" horiz-adv-x="1031" d="M19 1060h211l230 -626q41 -108 71 -217h4q6 20 19 64.5t25 83.5t23 74l211 621h203l-288 -755q-107 -281 -187.5 -430t-176.5 -235q-45 -37 -93.5 -65t-82 -40.5t-61.5 -17.5l-48 161q90 28 168 94q43 34 86.5 90t76.5 125q7 17 11 28t4 18q0 16 -15 50z" />
<glyph unicode="z" horiz-adv-x="937" d="M40 0v111l477 625q41 51 140 167v4h-574v153h806v-119l-473 -617q-99 -127 -136 -167v-4h619v-153h-859z" />
<glyph unicode="{" horiz-adv-x="621" d="M61 577v111q44 0 77 10t51.5 25t29.5 37.5t15 43t5 47.5q0 64 -18 182q-18 134 -18 184q0 73 23.5 129t67 90t101 50.5t128.5 16.5h44v-121h-36q-94 -1 -135 -48t-41 -140q0 -33 15 -155q17 -109 17 -167q3 -192 -159 -236v-5q159 -43 159 -238q0 -60 -17 -169 q-15 -123 -15 -159q0 -94 42.5 -141.5t133.5 -48.5h36v-120h-46q-70 0 -126 16t-100 50.5t-68 93.5t-24 140q0 68 21 179q15 143 15 178q0 165 -178 165z" />
<glyph unicode="|" horiz-adv-x="523" d="M188 -548v2192h147v-2192h-147z" />
<glyph unicode="}" horiz-adv-x="621" d="M55 -125h37q91 1 133.5 48.5t42.5 141.5q0 36 -15 159q-19 116 -19 169q-3 194 161 238v5q-161 43 -161 236q0 51 19 167q15 122 15 155q0 61 -17 101.5t-56 63t-103 23.5h-37v121h43q72 0 129.5 -16.5t100.5 -50.5t66.5 -90t23.5 -129q0 -58 -17 -184q-18 -126 -18 -182 q0 -26 3.5 -47t14.5 -43.5t30 -37.5t52 -25t78 -10v-111q-44 0 -77 -11t-51.5 -26.5t-30 -39t-15 -44t-4.5 -44.5q0 -48 18 -178q17 -117 17 -179q0 -81 -24 -140t-68 -93.5t-99.5 -50.5t-125.5 -16h-46v120z" />
<glyph unicode="~" horiz-adv-x="1305" d="M107 460q-5 159 69 245t192 86q66 0 129 -21t182 -78q71 -34 105 -49t81.5 -29t85.5 -14q115 0 118 184h129q4 -87 -14.5 -153t-55 -103.5t-81.5 -55.5t-98 -18q-44 0 -89 9.5t-98 30t-131 56.5q-12 6 -41.5 21t-42 20.5t-37 17t-38.5 16t-34 11t-36.5 8.5t-33.5 2 q-126 0 -129 -186h-132z" />
<glyph unicode="&#xa1;" horiz-adv-x="503" d="M123 931q0 61 37 99.5t95 38.5q57 0 91.5 -38.5t34.5 -99.5q0 -58 -35 -96t-93 -38q-57 0 -93.5 38.5t-36.5 95.5zM147 -427l31 1045h148l31 -1045h-210z" />
<glyph unicode="&#xa2;" d="M147 715q0 212 120 360t320 181v218h138v-214q136 -2 239 -55l-44 -147q-94 55 -230 55q-105 0 -185.5 -53t-123 -141.5t-42.5 -197.5q0 -71 17.5 -132t48.5 -107t74 -79t95 -49.5t110 -16.5q140 0 249 56l33 -140q-36 -22 -101.5 -41t-139.5 -24v-219h-138v221 q-102 11 -178 49.5t-137 105.5q-125 135 -125 370z" />
<glyph unicode="&#xa3;" d="M123 0v109q112 58 180.5 160.5t68.5 223.5q0 82 -10 153h-226v138h203q-23 144 -23 237q0 95 31.5 175.5t87 135.5t133.5 86t168 31q152 0 239 -55l-42 -145q-81 44 -197 44q-62 0 -109 -21t-74.5 -58.5t-41 -86t-13.5 -108.5q0 -105 23 -235h316v-138h-298 q13 -159 -8 -245q-37 -139 -152 -236v-5h654v-160h-910z" />
<glyph unicode="&#xa5;" d="M35 1424h206l228 -451q47 -101 87 -199h7q33 93 88 203l236 447h202l-392 -663h285v-108h-342v-160h342v-108h-342v-385h-182v385h-339v108h339v160h-339v108h287z" />
<glyph unicode="&#xa8;" horiz-adv-x="656" d="M15 1361q0 46 32.5 78.5t79.5 32.5q45 0 75 -32t30 -79q0 -46 -30.5 -79t-78.5 -33q-45 0 -76.5 33.5t-31.5 78.5zM423 1361q0 30 14.5 55.5t40 40.5t55.5 15q46 0 76.5 -32t30.5 -79q0 -46 -31 -79t-78 -33q-23 0 -43.5 9t-34.5 24.5t-22 36t-8 42.5z" />
<glyph unicode="&#xa9;" horiz-adv-x="1483" d="M79 745q0 137 52 262t141 215.5t213 144t262 53.5q135 0 257.5 -53.5t210 -144t139 -215.5t51.5 -262q0 -139 -51.5 -265t-139.5 -217t-210.5 -144.5t-258.5 -53.5q-137 0 -260.5 53.5t-212.5 144.5t-141 217t-52 265zM188 738q0 -120 43 -228t117 -186t177 -123.5 t220 -45.5q114 -1 216 44t175 124t116 189t43 233q0 120 -43 228.5t-116.5 186.5t-176 124t-216.5 46q-116 0 -219 -46t-176.5 -125t-116.5 -188.5t-43 -232.5zM379 732q0 91 34 168.5t92 129t133.5 81t158.5 29.5q80 0 148 -18.5t94 -40.5l-27 -86q-97 50 -212 50 q-100 0 -170.5 -40.5t-103.5 -108.5t-33 -158q0 -87 35 -156t106 -111t168 -42q64 0 123 16t98 42l27 -84q-105 -68 -270 -68q-93 0 -169.5 31t-127 84.5t-77.5 126t-27 155.5z" />
<glyph unicode="&#xab;" horiz-adv-x="918" d="M63 552l290 404h155l-291 -404l293 -403h-157zM423 552l290 404h155l-291 -404l291 -403h-155z" />
<glyph unicode="&#xad;" horiz-adv-x="671" d="M65 521v140h542v-140h-542z" />
<glyph unicode="&#xae;" horiz-adv-x="918" d="M90 1137q0 75 29 141.5t78.5 114.5t118.5 76t146 28q100 0 184.5 -47.5t133 -130.5t48.5 -182t-48.5 -182t-133 -131t-186 -48t-187 48t-134.5 131t-49 182zM182 1137q0 -121 80 -203.5t200 -82.5q116 -2 195 81.5t79 202.5q0 80 -35.5 146t-99.5 104.5t-143 38.5 q-116 0 -196 -84t-80 -203zM320 951v360q83 10 138 10q81 0 123 -28q37 -27 37 -76q0 -32 -20.5 -54t-53.5 -32v-4q17 -6 29.5 -17.5t20 -28.5t13.5 -42q11 -56 26 -88h-87q-11 13 -29 88q-5 28 -22.5 41.5t-51.5 13.5h-40v-143h-83zM406 1152h39q24 0 42.5 5.5t30 17.5 t11.5 30q0 26 -19.5 40.5t-57.5 14.5q-29 0 -46 -4v-104z" />
<glyph unicode="&#xb4;" horiz-adv-x="656" d="M221 1205l193 313h211l-268 -313h-136z" />
<glyph unicode="&#xb8;" horiz-adv-x="656" d="M119 -401l32 94q58 -30 119 -30q41 0 68 16t26 51q0 78 -171 92l102 184h121l-71 -115q62 -7 107.5 -48.5t45.5 -103.5q0 -47 -18.5 -82t-51 -55.5t-73 -30.5t-87.5 -10q-39 0 -79.5 10.5t-69.5 27.5z" />
<glyph unicode="&#xbb;" horiz-adv-x="918" d="M52 149l293 403l-293 404h155l291 -404l-291 -403h-155zM408 956h155l292 -404l-292 -403h-153l291 403z" />
<glyph unicode="&#xbf;" horiz-adv-x="889" d="M121 -136q0 54 13.5 103t43 98t58 86.5t75.5 93.5q72 87 101 163.5t22 160.5l-3 58h169l7 -58q20 -188 -136 -381q-53 -63 -84.5 -108.5t-50 -94t-18.5 -96.5q0 -86 54 -138t154 -52q40 0 80 8.5t77 24t66 36.5l51 -138q-57 -39 -142.5 -63.5t-170.5 -24.5 q-74 0 -135 17.5t-103.5 48t-71.5 71.5t-42.5 87.5t-13.5 97.5zM391 931q0 61 35.5 99.5t94.5 38.5q38 0 67 -17.5t44.5 -49t15.5 -71.5q0 -39 -15.5 -69.5t-45 -48.5t-68.5 -18q-38 0 -67.5 18t-45 49t-15.5 69z" />
<glyph unicode="&#xc0;" horiz-adv-x="1340" d="M55 0l504 1477h227l504 -1477h-203l-158 464h-523l-153 -464h-198zM353 1813h232l204 -255h-156zM445 613h447l-147 426q-31 91 -76 270h-5q-45 -184 -74 -268z" />
<glyph unicode="&#xc1;" horiz-adv-x="1340" d="M55 0l504 1477h227l504 -1477h-203l-158 464h-523l-153 -464h-198zM445 613h447l-147 426q-31 91 -76 270h-5q-45 -184 -74 -268zM559 1556l204 257h232l-280 -257h-156z" />
<glyph unicode="&#xc2;" horiz-adv-x="1340" d="M55 0l504 1477h227l504 -1477h-203l-158 464h-523l-153 -464h-198zM381 1556l224 250h146l231 -250h-162l-138 151h-5l-140 -151h-156zM445 613h447l-147 426q-31 91 -76 270h-5q-45 -184 -74 -268z" />
<glyph unicode="&#xc3;" horiz-adv-x="1340" d="M55 0l504 1477h227l504 -1477h-203l-158 464h-523l-153 -464h-198zM406 1566q-2 102 38 163t110 61q33 0 61 -10.5t71 -33.5l8 -4q16 -9 25 -13.5t22.5 -10.5t25.5 -8.5t24 -2.5q27 0 41 17.5t19 67.5h100q4 -212 -146 -212q-56 0 -134 42q-8 4 -29 15t-29 14.5t-22 7.5 t-26 4q-46 0 -57 -97h-102zM445 613h447l-147 426q-31 91 -76 270h-5q-45 -184 -74 -268z" />
<glyph unicode="&#xc4;" horiz-adv-x="1340" d="M55 0l504 1477h227l504 -1477h-203l-158 464h-523l-153 -464h-198zM368 1687q0 45 31 77.5t76 32.5q46 0 76 -32t30 -78t-30 -78.5t-78 -32.5q-30 0 -54 15t-37.5 40.5t-13.5 55.5zM445 613h447l-147 426q-31 91 -76 270h-5q-45 -184 -74 -268zM776 1687q0 45 31 77.5 t78 32.5q45 0 75.5 -32t30.5 -78q0 -47 -30.5 -79t-79.5 -32q-46 0 -75.5 32.5t-29.5 78.5z" />
<glyph unicode="&#xc5;" horiz-adv-x="1340" d="M55 0l504 1477h227l504 -1477h-203l-158 464h-523l-153 -464h-198zM445 613h447l-147 426q-31 91 -76 270h-5q-45 -184 -74 -268zM456 1725q0 84 60.5 141.5t160.5 57.5q97 0 156 -57t59 -142q0 -83 -61 -138t-156 -55q-97 0 -158 55.5t-61 137.5zM567 1725q0 -45 30 -79 t76 -34q47 0 76 33.5t29 83.5q0 49 -29.5 82.5t-77.5 33.5q-32 0 -56 -17t-36 -44t-12 -59z" />
<glyph unicode="&#xc6;" horiz-adv-x="1725" d="M-2 0l675 1477h925l-3 -160h-627l57 -471h551v-158h-526l65 -528h541l-2 -160h-703l-66 519h-454l-236 -519h-197zM495 675h368l-48 425q-24 188 -26 239h-9q-29 -78 -94 -233z" />
<glyph unicode="&#xc7;" horiz-adv-x="1281" d="M79 725q0 172 56.5 317t157.5 246t245 157t315 56q122 0 212 -20.5t136 -45.5l-46 -155q-126 61 -298 61q-130 0 -236.5 -41t-182 -118t-117 -192t-41.5 -258q0 -275 150.5 -434.5t418.5 -159.5q86 0 169 16.5t143 44.5l37 -151q-53 -28 -153.5 -48t-229.5 -21l-54 -88 q42 -8 76.5 -29t55.5 -56t21 -78q0 -46 -19 -81.5t-52 -56t-72 -30t-83 -9.5q-86 0 -155 37l30 98q53 -31 121 -31q26 0 46.5 7t34 23t13.5 39q0 40 -44 62t-127 32l92 167q-137 16 -250 71.5t-195.5 147t-128.5 225t-46 296.5z" />
<glyph unicode="&#xc8;" horiz-adv-x="1077" d="M165 0v1477h799v-160h-607v-466h572v-159h-572v-532h640v-160h-832zM261 1813h232l204 -255h-156z" />
<glyph unicode="&#xc9;" horiz-adv-x="1077" d="M165 0v1477h799v-160h-607v-466h572v-159h-572v-532h640v-160h-832zM458 1556l203 257h234l-282 -257h-155z" />
<glyph unicode="&#xca;" horiz-adv-x="1077" d="M165 0v1477h799v-160h-607v-466h572v-159h-572v-532h640v-160h-832zM265 1556l224 250h147l230 -250h-163l-138 151h-4l-140 -151h-156z" />
<glyph unicode="&#xcb;" horiz-adv-x="1077" d="M165 0v1477h799v-160h-607v-466h574v-159h-574v-532h642v-160h-834zM249 1692q0 44 31.5 76.5t77 32.5t75 -31.5t29.5 -77.5q0 -47 -29.5 -79.5t-77.5 -32.5q-45 0 -75.5 32.5t-30.5 79.5zM655 1692q0 44 31.5 76.5t78.5 32.5q45 0 75 -31.5t30 -77.5q0 -47 -30 -79.5 t-79 -32.5q-45 0 -75.5 32.5t-30.5 79.5z" />
<glyph unicode="&#xcc;" horiz-adv-x="523" d="M-55 1813h233l203 -255h-155zM165 0v1477h192v-1477h-192z" />
<glyph unicode="&#xcd;" horiz-adv-x="523" d="M147 1556l204 257h232l-280 -257h-156zM165 0v1477h192v-1477h-192z" />
<glyph unicode="&#xce;" horiz-adv-x="523" d="M-37 1556l223 250h147l230 -250h-162l-138 151h-4l-140 -151h-156zM165 0v1477h192v-1477h-192z" />
<glyph unicode="&#xcf;" horiz-adv-x="523" d="M-46 1692q0 21 8 41.5t22.5 35t34.5 23.5t42 9q45 0 75.5 -31.5t30.5 -77.5q0 -47 -30 -79.5t-78 -32.5q-45 0 -75 32.5t-30 79.5zM165 0v1477h192v-1477h-192zM360 1692q0 45 31 77t78 32q45 0 75.5 -31.5t30.5 -77.5q0 -47 -30.5 -79.5t-80.5 -32.5q-45 0 -74.5 32.5 t-29.5 79.5z" />
<glyph unicode="&#xd1;" horiz-adv-x="1441" d="M167 0v1477h210l472 -747q171 -279 262 -481l6 4q-21 246 -21 606v618h179v-1477h-192l-470 749q-184 296 -274 493l-6 -2q14 -242 14 -609v-631h-180zM460 1566q-1 67 16.5 117.5t51.5 78.5t81 28q23 0 46.5 -6.5t38 -14t44.5 -23.5q2 -1 10.5 -5.5t11 -5.5t10.5 -5.5 t10.5 -5.5t10 -4.5t11 -4.5t10 -3t11 -3t10 -1.5t10.5 -0.5q27 0 41.5 17.5t18.5 67.5h101q3 -212 -147 -212q-52 0 -134 42q-6 4 -22.5 12.5t-23 11.5t-18.5 8t-20.5 7t-17.5 2q-48 0 -58 -97h-103z" />
<glyph unicode="&#xd2;" horiz-adv-x="1509" d="M79 728q0 172 51.5 318t142 246t217 155.5t273.5 55.5q120 0 224.5 -35t185 -101.5t138 -158t87.5 -207t30 -247.5q0 -148 -35 -274.5t-97.5 -218.5t-148.5 -157t-188.5 -97t-215.5 -32q-146 0 -269.5 55t-210 153t-135.5 238.5t-49 306.5zM280 732q0 -68 10.5 -133.5 t31 -125t50 -111.5t69.5 -94.5t87 -72.5t105 -46.5t121 -16.5q75 0 140.5 22t117 62t92.5 96.5t68 124.5t41 146t14 162q0 90 -18 176t-56.5 163.5t-93 136t-132.5 93t-171 34.5q-92 0 -170.5 -33t-134 -91t-94.5 -136t-58 -168t-19 -188zM437 1817h232l203 -255h-155z" />
<glyph unicode="&#xd3;" horiz-adv-x="1509" d="M79 728q0 172 51.5 318t142 246t217 155.5t273.5 55.5q120 0 224.5 -35t185 -101.5t138 -158t87.5 -207t30 -247.5q0 -148 -35 -274.5t-97.5 -218.5t-148.5 -157t-188.5 -97t-215.5 -32q-146 0 -269.5 55t-210 153t-135.5 238.5t-49 306.5zM280 732q0 -68 10.5 -133.5 t31 -125t50 -111.5t69.5 -94.5t87 -72.5t105 -46.5t121 -16.5q75 0 140.5 22t117 62t92.5 96.5t68 124.5t41 146t14 162q0 90 -18 176t-56.5 163.5t-93 136t-132.5 93t-171 34.5q-92 0 -170.5 -33t-134 -91t-94.5 -136t-58 -168t-19 -188zM638 1560l203 257h233l-281 -257 h-155z" />
<glyph unicode="&#xd4;" horiz-adv-x="1509" d="M79 728q0 172 51.5 318t142 246t217 155.5t273.5 55.5q120 0 224.5 -35t185 -101.5t138 -158t87.5 -207t30 -247.5q0 -148 -35 -274.5t-97.5 -218.5t-148.5 -157t-188.5 -97t-215.5 -32q-146 0 -269.5 55t-210 153t-135.5 238.5t-49 306.5zM280 732q0 -68 10.5 -133.5 t31 -125t50 -111.5t69.5 -94.5t87 -72.5t105 -46.5t121 -16.5q75 0 140.5 22t117 62t92.5 96.5t68 124.5t41 146t14 162q0 90 -18 176t-56.5 163.5t-93 136t-132.5 93t-171 34.5q-92 0 -170.5 -33t-134 -91t-94.5 -136t-58 -168t-19 -188zM454 1562l223 251h147l230 -251 h-162l-138 152h-5l-140 -152h-155z" />
<glyph unicode="&#xd5;" horiz-adv-x="1509" d="M79 728q0 172 51.5 318t142 246t217 155.5t273.5 55.5q120 0 224.5 -35t185 -101.5t138 -158t87.5 -207t30 -247.5q0 -148 -35 -274.5t-97.5 -218.5t-148.5 -157t-188.5 -97t-215.5 -32q-146 0 -269.5 55t-210 153t-135.5 238.5t-49 306.5zM280 732q0 -68 10.5 -133.5 t31 -125t50 -111.5t69.5 -94.5t87 -72.5t105 -46.5t121 -16.5q75 0 140.5 22t117 62t92.5 96.5t68 124.5t41 146t14 162q0 90 -18 176t-56.5 163.5t-93 136t-132.5 93t-171 34.5q-92 0 -170.5 -33t-134 -91t-94.5 -136t-58 -168t-19 -188zM483 1573q-2 100 38 160.5 t110 60.5q23 0 46.5 -6.5t38.5 -13.5t45 -23q1 -1 10 -6t11 -6t10 -5.5t11 -5.5t10 -4.5t11 -4.5t10 -3t10.5 -3t10 -1.5t11.5 -0.5q26 0 40 17.5t18 68.5h101q3 -212 -147 -212q-52 0 -133 41q-9 5 -28 15.5t-27.5 14.5t-22 8t-25.5 4q-46 0 -57 -95h-102z" />
<glyph unicode="&#xd6;" horiz-adv-x="1509" d="M79 728q0 172 51.5 318t142 246t217 155.5t273.5 55.5q120 0 224.5 -35t185 -101.5t138 -158t87.5 -207t30 -247.5q0 -148 -35 -274.5t-97.5 -218.5t-148.5 -157t-188.5 -97t-215.5 -32q-146 0 -269.5 55t-210 153t-135.5 238.5t-49 306.5zM280 732q0 -68 10.5 -133.5 t31 -125t50 -111.5t69.5 -94.5t87 -72.5t105 -46.5t121 -16.5q75 0 140.5 22t117 62t92.5 96.5t68 124.5t41 146t14 162q0 90 -18 176t-56.5 163.5t-93 136t-132.5 93t-171 34.5q-92 0 -170.5 -33t-134 -91t-94.5 -136t-58 -168t-19 -188zM445 1692q0 14 4 28t10.5 26 t16.5 22t21.5 17.5t25.5 11.5t29 4q45 0 75 -31.5t30 -77.5q0 -47 -29.5 -79.5t-77.5 -32.5q-45 0 -75 32.5t-30 79.5zM851 1692q0 45 31 77t78 32q45 0 75 -31.5t30 -77.5q0 -47 -30 -79.5t-79 -32.5q-46 0 -75.5 32.5t-29.5 79.5z" />
<glyph unicode="&#xd8;" horiz-adv-x="1509" d="M79 732q0 172 52.5 317t143.5 244t216.5 154.5t269.5 55.5q211 0 368 -118l129 177l116 -79l-136 -188q92 -101 141 -241t49 -303q0 -150 -35.5 -277.5t-98 -218t-148 -154.5t-184 -95t-206.5 -31q-211 0 -373 119l-138 -188l-107 88l136 190q-93 101 -144 242t-51 306z M274 740q0 -117 27 -210.5t80 -184.5l4 2l650 900q-123 103 -279 103q-93 0 -172.5 -33.5t-135.5 -91.5t-96 -135.5t-59 -166t-19 -183.5zM477 234q38 -34 78 -57t90 -35.5t109 -12.5q90 0 167.5 32.5t134.5 89.5t97.5 134t60.5 168.5t20 191.5q0 216 -103 386h-6z" />
<glyph unicode="&#xd9;" horiz-adv-x="1417" d="M165 607v870h192v-877q0 -120 26 -211t72.5 -146.5t108 -83t137.5 -27.5q169 0 264 116t95 352v877h193v-864q0 -133 -27.5 -240t-77 -180.5t-119.5 -123t-153.5 -72t-181.5 -22.5q-93 0 -171.5 21.5t-145.5 69t-113.5 120t-72.5 179.5t-26 242zM401 1813h232l204 -255 h-155z" />
<glyph unicode="&#xda;" horiz-adv-x="1417" d="M165 607v870h192v-877q0 -120 26 -211t72.5 -146.5t108 -83t137.5 -27.5q169 0 264 116t95 352v877h193v-864q0 -133 -27.5 -240t-77 -180.5t-119.5 -123t-153.5 -72t-181.5 -22.5q-93 0 -171.5 21.5t-145.5 69t-113.5 120t-72.5 179.5t-26 242zM600 1556l205 257h232 l-281 -257h-156z" />
<glyph unicode="&#xdb;" horiz-adv-x="1417" d="M165 607v870h192v-877q0 -120 26 -211t72.5 -146.5t108 -83t137.5 -27.5q169 0 264 116t95 352v877h193v-864q0 -133 -27.5 -240t-77 -180.5t-119.5 -123t-153.5 -72t-181.5 -22.5q-93 0 -171.5 21.5t-145.5 69t-113.5 120t-72.5 179.5t-26 242zM423 1556l223 250h147 l230 -250h-162l-138 151h-4l-140 -151h-156z" />
<glyph unicode="&#xdc;" horiz-adv-x="1417" d="M165 607v870h192v-877q0 -120 26 -211t72.5 -146.5t108 -83t137.5 -27.5q169 0 264 116t95 352v877h193v-864q0 -133 -27.5 -240t-77 -180.5t-119.5 -123t-153.5 -72t-181.5 -22.5q-93 0 -171.5 21.5t-145.5 69t-113.5 120t-72.5 179.5t-26 242zM403 1692q0 44 31 76.5 t76.5 32.5t75 -31.5t29.5 -77.5q0 -47 -29.5 -79.5t-77.5 -32.5q-45 0 -75 32.5t-30 79.5zM811 1692q0 45 31.5 77t77.5 32t75.5 -31.5t29.5 -77.5q0 -47 -30 -79.5t-79 -32.5q-45 0 -75 32.5t-30 79.5z" />
<glyph unicode="&#xdd;" horiz-adv-x="1184" d="M27 1477h218l209 -408q121 -247 146 -304h5q11 28 24.5 57t29 60.5t29.5 58t33.5 64.5t32.5 64l212 408h215l-493 -848v-629h-193v627zM498 1545l203 256h232l-280 -256h-155z" />
<glyph unicode="&#xdf;" horiz-adv-x="1200" d="M160 0v991q0 180 40 294t118 183q122 112 320 112q79 0 149 -24.5t124 -70t85.5 -117t31.5 -159.5q0 -52 -15.5 -99.5t-37.5 -79.5q-75 -31 -115 -76.5t-40 -100.5q0 -19 3 -35t11 -33t15.5 -29t23 -30.5t26 -30t32.5 -34.5q34 -34 53 -54t46.5 -56t42 -66.5t25.5 -72.5 t11 -88q0 -156 -106 -252.5t-286 -96.5q-145 0 -232 46l34 148q86 -44 184 -44q68 0 117.5 25.5t73.5 66.5t24 92q0 45 -14 84t-38.5 71t-65.5 71q-42 41 -66.5 67t-52 63.5t-40 77t-12.5 83.5q0 84 50.5 154t146.5 116q17 42 17 94q0 111 -62 174.5t-166 63.5 q-131 0 -196.5 -100.5t-65.5 -328.5v-999h-193z" />
<glyph unicode="&#xe0;" horiz-adv-x="1056" d="M77 280q0 193 165 295t473 100v22q0 31 -4 59t-19 63.5t-40 61t-71 43t-108 17.5q-50 0 -100 -9.5t-95.5 -27.5t-82.5 -43l-44 130q67 42 160 67t191 25q94 0 166 -25t116 -66t72 -98.5t38.5 -116.5t10.5 -126v-396q0 -153 15 -255h-173l-15 134h-7 q-48 -68 -132.5 -113.5t-191.5 -45.5q-78 0 -141 26t-102 69.5t-60 97.5t-21 112zM209 1518h209l193 -313h-136zM270 303q0 -91 51 -137.5t128 -46.5q99 0 167.5 51t93.5 125q9 29 9 62v184q-449 10 -449 -238z" />
<glyph unicode="&#xe1;" horiz-adv-x="1056" d="M77 280q0 193 165 295t473 100v22q0 31 -4 59t-19 63.5t-40 61t-71 43t-108 17.5q-50 0 -100 -9.5t-95.5 -27.5t-82.5 -43l-44 130q67 42 160 67t191 25q94 0 166 -25t116 -66t72 -98.5t38.5 -116.5t10.5 -126v-396q0 -153 15 -255h-173l-15 134h-7 q-48 -68 -132.5 -113.5t-191.5 -45.5q-78 0 -141 26t-102 69.5t-60 97.5t-21 112zM270 303q0 -91 51 -137.5t128 -46.5q99 0 167.5 51t93.5 125q9 29 9 62v184q-449 10 -449 -238zM412 1205l190 313h213l-267 -313h-136z" />
<glyph unicode="&#xe2;" horiz-adv-x="1056" d="M77 280q0 193 165 295t473 100v22q0 31 -4 59t-19 63.5t-40 61t-71 43t-108 17.5q-50 0 -100 -9.5t-95.5 -27.5t-82.5 -43l-44 130q67 42 160 67t191 25q94 0 166 -25t116 -66t72 -98.5t38.5 -116.5t10.5 -126v-396q0 -153 15 -255h-173l-15 134h-7 q-48 -68 -132.5 -113.5t-191.5 -45.5q-78 0 -141 26t-102 69.5t-60 97.5t-21 112zM243 1205l206 313h134l210 -313h-147l-127 206h-4l-128 -206h-144zM270 303q0 -91 51 -137.5t128 -46.5q99 0 167.5 51t93.5 125q9 29 9 62v184q-449 10 -449 -238z" />
<glyph unicode="&#xe3;" horiz-adv-x="1056" d="M77 280q0 193 165 295t473 100v22q0 31 -4 59t-19 63.5t-40 61t-71 43t-108 17.5q-50 0 -100 -9.5t-95.5 -27.5t-82.5 -43l-44 130q67 42 160 67t191 25q94 0 166 -25t116 -66t72 -98.5t38.5 -116.5t10.5 -126v-396q0 -153 15 -255h-173l-15 134h-7 q-48 -68 -132.5 -113.5t-191.5 -45.5q-78 0 -141 26t-102 69.5t-60 97.5t-21 112zM253 1242q-2 53 8 96t29 72t47.5 44.5t63.5 15.5q23 0 48 -7.5t39 -14.5t49 -26q4 -2 11 -6q20 -11 30.5 -16t25 -10t25.5 -5q28 0 43 20t18 72h103q3 -221 -149 -221q-32 0 -62 11.5 t-74 34.5q-35 22 -55 30.5t-39 8.5q-50 0 -57 -99h-104zM270 303q0 -91 51 -137.5t128 -46.5q99 0 167.5 51t93.5 125q9 29 9 62v184q-449 10 -449 -238z" />
<glyph unicode="&#xe4;" horiz-adv-x="1056" d="M77 280q0 193 165 295t473 100v22q0 31 -4 59t-19 63.5t-40 61t-71 43t-108 17.5q-50 0 -100 -9.5t-95.5 -27.5t-82.5 -43l-44 130q67 42 160 67t191 25q94 0 166 -25t116 -66t72 -98.5t38.5 -116.5t10.5 -126v-396q0 -153 15 -255h-173l-15 134h-7 q-48 -68 -132.5 -113.5t-191.5 -45.5q-78 0 -141 26t-102 69.5t-60 97.5t-21 112zM217 1361q0 46 32.5 78.5t78.5 32.5q30 0 54 -14.5t38 -40t14 -56.5q0 -45 -31 -78.5t-79 -33.5q-45 0 -76 33.5t-31 78.5zM270 303q0 -91 51 -137.5t128 -46.5q99 0 167.5 51t93.5 125 q9 29 9 62v184q-449 10 -449 -238zM623 1361q0 30 14.5 55.5t39.5 40.5t55 15q46 0 76.5 -32t30.5 -79q0 -29 -13.5 -55t-39 -41.5t-56.5 -15.5q-46 0 -76.5 33.5t-30.5 78.5z" />
<glyph unicode="&#xe5;" horiz-adv-x="1056" d="M77 280q0 193 165 295t473 100v22q0 31 -4 59t-19 63.5t-40 61t-71 43t-108 17.5q-50 0 -100 -9.5t-95.5 -27.5t-82.5 -43l-44 130q67 42 160 67t191 25q94 0 166 -25t116 -66t72 -98.5t38.5 -116.5t10.5 -126v-396q0 -153 15 -255h-173l-15 134h-7 q-48 -68 -132.5 -113.5t-191.5 -45.5q-78 0 -141 26t-102 69.5t-60 97.5t-21 112zM270 303q0 -91 51 -137.5t128 -46.5q99 0 166.5 51t94.5 125q9 29 9 62v184q-449 10 -449 -238zM305 1376q0 89 61.5 148t162.5 59q64 0 113.5 -27t76 -74t26.5 -106q0 -56 -28.5 -101.5 t-78.5 -71.5t-112 -26q-96 0 -158.5 57.5t-62.5 141.5zM416 1376q0 -30 14 -56.5t39.5 -44t56.5 -17.5q33 0 59 16.5t39.5 43.5t13.5 60q0 52 -31.5 87.5t-83.5 35.5q-49 0 -78 -36t-29 -89z" />
<glyph unicode="&#xe6;" horiz-adv-x="1693" d="M79 278q0 185 166.5 286.5t471.5 96.5v44q0 13 -2.5 29.5t-9 40t-17.5 45.5t-30 44.5t-44 39t-62 27t-81 10.5q-73 0 -148 -23t-124 -57l-46 126q69 44 160 70t172 26q138 0 222.5 -59t118.5 -165h4q54 106 150 165t221 59q67 0 124.5 -18t99 -48t75 -71t54.5 -85t35 -92 t20 -90.5t6 -82.5q0 -57 -7 -86h-711q-3 -92 21.5 -166t70.5 -121.5t109 -72.5t138 -25q164 0 289 59l35 -136q-138 -73 -348 -73q-139 0 -248.5 62.5t-154.5 173.5h-7q-49 -111 -152.5 -173.5t-239.5 -62.5q-80 0 -144.5 26t-104.5 69t-61 96.5t-21 111.5zM270 293 q0 -81 52.5 -127.5t131.5 -46.5q98 -2 164.5 50t91.5 132q11 41 11 76v156q-55 1 -104.5 -2t-102.5 -12t-95.5 -26.5t-77 -43.5t-53 -65.5t-18.5 -90.5zM897 648h534q1 35 -5.5 73t-25 79t-46 73t-72.5 53t-101 21q-55 0 -102.5 -19.5t-79 -50.5t-55 -71t-34.5 -80t-13 -78z " />
<glyph unicode="&#xe7;" horiz-adv-x="979" d="M83 519q0 121 41 225t114 179t180 117.5t235 42.5q79 0 151.5 -17t115.5 -41l-44 -147q-94 51 -223 51q-89 0 -161 -31.5t-118 -86t-71 -127t-25 -155.5q0 -180 103.5 -287.5t264.5 -107.5q130 0 237 50l33 -144q-45 -22 -117 -41t-159 -20l-55 -88q66 -12 109.5 -54.5 t43.5 -106.5q0 -38 -12 -69t-33.5 -51.5t-51 -34.5t-62 -20.5t-69.5 -6.5q-89 0 -153 38l34 98q53 -31 119 -31q42 0 68.5 17t26.5 54q-2 41 -45.5 62t-125.5 30l92 169q-202 25 -322.5 169.5t-120.5 364.5z" />
<glyph unicode="&#xe8;" horiz-adv-x="1097" d="M83 513q0 95 22 181.5t65 157t102.5 122.5t138.5 80.5t170 28.5q72 0 133.5 -17.5t106 -47t79 -70.5t56.5 -85t36.5 -94t20.5 -95t6 -89q0 -57 -7 -90h-744q1 -95 30.5 -167t80 -115t114 -64.5t138.5 -21.5q169 0 293 55l36 -138q-149 -69 -355 -69q-161 0 -279.5 68 t-180.5 189t-62 281zM270 633h562q1 40 -5.5 79.5t-25 82.5t-47.5 75.5t-78 53.5t-111 21q-36 0 -68.5 -8t-58.5 -22t-49 -33t-40 -42.5t-31 -48.5t-23.5 -52.5t-15.5 -53.5t-9 -52zM295 1518h211l193 -313h-136z" />
<glyph unicode="&#xe9;" horiz-adv-x="1097" d="M83 513q0 95 22 181.5t65 157t102.5 122.5t138.5 80.5t170 28.5q72 0 133.5 -17.5t106 -47t79 -70.5t56.5 -85t36.5 -94t20.5 -95t6 -89q0 -57 -7 -90h-744q1 -95 30.5 -167t80 -115t114 -64.5t138.5 -21.5q169 0 293 55l36 -138q-149 -69 -355 -69q-161 0 -279.5 68 t-180.5 189t-62 281zM270 633h562q1 40 -5.5 79.5t-25 82.5t-47.5 75.5t-78 53.5t-111 21q-36 0 -68.5 -8t-58.5 -22t-49 -33t-40 -42.5t-31 -48.5t-23.5 -52.5t-15.5 -53.5t-9 -52zM473 1205l194 313h209l-267 -313h-136z" />
<glyph unicode="&#xea;" horiz-adv-x="1097" d="M83 513q0 95 22 181.5t65 157t102.5 122.5t138.5 80.5t170 28.5q72 0 133.5 -17.5t106 -47t79 -70.5t56.5 -85t36.5 -94t20.5 -95t6 -89q0 -57 -7 -90h-744q1 -95 30.5 -167t80 -115t114 -64.5t138.5 -21.5q169 0 293 55l36 -138q-149 -69 -355 -69q-161 0 -279.5 68 t-180.5 189t-62 281zM270 633h562q1 40 -5.5 79.5t-25 82.5t-47.5 75.5t-78 53.5t-111 21q-36 0 -68.5 -8t-58.5 -22t-49 -33t-40 -42.5t-31 -48.5t-23.5 -52.5t-15.5 -53.5t-9 -52zM301 1205l205 313h134l211 -313h-148l-126 206h-5l-127 -206h-144z" />
<glyph unicode="&#xeb;" horiz-adv-x="1097" d="M83 513q0 95 22 181.5t65 157t102.5 122.5t138.5 80.5t170 28.5q72 0 133.5 -17.5t106 -47t79 -70.5t56.5 -85t36.5 -94t20.5 -95t6 -89q0 -57 -7 -90h-744q1 -95 30.5 -167t80 -115t114 -64.5t138.5 -21.5q169 0 293 55l36 -138q-149 -69 -355 -69q-161 0 -279.5 68 t-180.5 189t-62 281zM270 633h562q1 40 -5.5 79.5t-25 82.5t-47.5 75.5t-78 53.5t-111 21q-36 0 -68.5 -8t-58.5 -22t-49 -33t-40 -42.5t-31 -48.5t-23.5 -52.5t-15.5 -53.5t-9 -52zM276 1361q0 46 32 78.5t79 32.5q45 0 75.5 -32t30.5 -79q0 -45 -31 -78.5t-79 -33.5 q-45 0 -76 33.5t-31 78.5zM682 1361q0 46 31.5 78.5t77.5 32.5q30 0 54.5 -14.5t39 -40t14.5 -56.5q0 -45 -31.5 -78.5t-78.5 -33.5t-77 33.5t-30 78.5z" />
<glyph unicode="&#xec;" horiz-adv-x="512" d="M-59 1518h210l194 -313h-136zM160 0v1060h193v-1060h-193z" />
<glyph unicode="&#xed;" horiz-adv-x="512" d="M149 1205l192 313h211l-267 -313h-136zM160 0v1060h193v-1060h-193z" />
<glyph unicode="&#xee;" horiz-adv-x="512" d="M-17 1205l205 313h134l211 -313h-148l-126 206h-4l-128 -206h-144zM160 0v1060h193v-1060h-193z" />
<glyph unicode="&#xef;" horiz-adv-x="512" d="M-55 1361q0 46 32.5 78.5t79.5 32.5q21 0 41 -8.5t34 -23t22.5 -35.5t8.5 -44q0 -45 -31.5 -78.5t-79.5 -33.5q-44 0 -75.5 33.5t-31.5 78.5zM160 0v1060h193v-1060h-193zM351 1361q0 46 32 78.5t77.5 32.5t76 -32t30.5 -79q0 -46 -30.5 -79t-78.5 -33q-46 0 -76.5 33.5 t-30.5 78.5z" />
<glyph unicode="&#xf1;" horiz-adv-x="1215" d="M151 1060h171l11 -175h4q20 38 52.5 72.5t76 63t101.5 45.5t121 17q48 0 95.5 -11.5t99.5 -43t90.5 -80.5t64 -130.5t25.5 -186.5v-631h-193v611q0 67 -13 121.5t-41 99t-76.5 68.5t-114.5 24q-91 0 -161 -56t-98 -140q-13 -37 -13 -90v-638h-193v774q0 155 -9 286z M339 1242q-3 106 38 167t112 61q23 0 48 -7.5t38.5 -14.5t49.5 -26q5 -3 14.5 -8t14.5 -8t13 -7t13 -6t12 -4.5t13 -3t12 -0.5q27 0 41.5 20t17.5 72h102q4 -221 -148 -221q-33 0 -63.5 11.5t-70.5 34.5q-29 16 -39.5 22t-26 11.5t-28.5 5.5q-50 0 -57 -99h-106z" />
<glyph unicode="&#xf2;" horiz-adv-x="1202" d="M83 521q0 129 41.5 236t112.5 178t167 109.5t205 38.5q151 0 267.5 -68.5t180 -192t63.5 -283.5q0 -114 -30.5 -209t-82 -159.5t-120 -109.5t-143 -65.5t-152.5 -20.5q-85 0 -162 24.5t-140 72t-109.5 113t-72 151.5t-25.5 185zM280 529q0 -116 40.5 -208.5t114 -146 t165.5 -53.5q91 0 165 53t115.5 147t41.5 212q0 46 -7.5 92.5t-23.5 92.5t-42.5 85.5t-60.5 70t-81 47.5t-102 17q-66 0 -120.5 -23.5t-92 -63t-63 -92.5t-37.5 -111t-12 -119zM318 1518h211l192 -313h-136z" />
<glyph unicode="&#xf3;" horiz-adv-x="1202" d="M83 521q0 129 41.5 236t112.5 178t167 109.5t205 38.5q151 0 267.5 -68.5t180 -192t63.5 -283.5q0 -114 -30.5 -209t-82 -159.5t-120 -109.5t-143 -65.5t-152.5 -20.5q-85 0 -162 24.5t-140 72t-109.5 113t-72 151.5t-25.5 185zM280 529q0 -116 40.5 -208.5t114 -146 t165.5 -53.5q91 0 165 53t115.5 147t41.5 212q0 46 -7.5 92.5t-23.5 92.5t-42.5 85.5t-60.5 70t-81 47.5t-102 17q-66 0 -120.5 -23.5t-92 -63t-63 -92.5t-37.5 -111t-12 -119zM487 1205l190 313h212l-266 -313h-136z" />
<glyph unicode="&#xf4;" horiz-adv-x="1202" d="M83 521q0 129 41.5 236t112.5 178t167 109.5t205 38.5q151 0 267.5 -68.5t180 -192t63.5 -283.5q0 -114 -30.5 -209t-82 -159.5t-120 -109.5t-143 -65.5t-152.5 -20.5q-85 0 -162 24.5t-140 72t-109.5 113t-72 151.5t-25.5 185zM280 529q0 -116 40.5 -208.5t114 -146 t165.5 -53.5q91 0 165 53t115.5 147t41.5 212q0 46 -7.5 92.5t-23.5 92.5t-42.5 85.5t-60.5 70t-81 47.5t-102 17q-66 0 -120.5 -23.5t-92 -63t-63 -92.5t-37.5 -111t-12 -119zM326 1205l207 313h134l209 -313h-146l-130 206h-4l-125 -206h-145z" />
<glyph unicode="&#xf5;" horiz-adv-x="1202" d="M83 521q0 129 41.5 236t112.5 178t167 109.5t205 38.5q151 0 267.5 -68.5t180 -192t63.5 -283.5q0 -114 -30.5 -209t-82 -159.5t-120 -109.5t-143 -65.5t-152.5 -20.5q-85 0 -162 24.5t-140 72t-109.5 113t-72 151.5t-25.5 185zM280 529q0 -116 40.5 -208.5t114 -146 t165.5 -53.5q91 0 165 53t115.5 147t41.5 212q0 46 -7.5 92.5t-23.5 92.5t-42.5 85.5t-60.5 70t-81 47.5t-102 17q-66 0 -120.5 -23.5t-92 -63t-63 -92.5t-37.5 -111t-12 -119zM331 1242q-4 106 37 167t112 61q8 0 15.5 -0.5t16 -2.5t14 -3t15.5 -5t13.5 -5.5t16 -7.5 t14.5 -7t16.5 -8.5t16.5 -8.5q5 -2 17 -9t17 -9.5t14.5 -7t15.5 -6.5t13.5 -3.5t14.5 -1.5q27 0 41.5 20t17.5 72h103q3 -221 -149 -221q-32 0 -62 11.5t-74 34.5q-14 9 -24 14.5t-20 10.5t-18 8t-16 4.5t-16 1.5q-50 0 -56 -99h-106z" />
<glyph unicode="&#xf6;" horiz-adv-x="1202" d="M83 521q0 129 41.5 236t112.5 178t167 109.5t205 38.5q151 0 267.5 -68.5t180 -192t63.5 -283.5q0 -114 -30.5 -209t-82 -159.5t-120 -109.5t-143 -65.5t-152.5 -20.5q-85 0 -162 24.5t-140 72t-109.5 113t-72 151.5t-25.5 185zM280 529q0 -116 40.5 -208.5t114 -146 t165.5 -53.5q91 0 165 53t115.5 147t41.5 212q0 46 -7.5 92.5t-23.5 92.5t-42.5 85.5t-60.5 70t-81 47.5t-102 17q-66 0 -120.5 -23.5t-92 -63t-63 -92.5t-37.5 -111t-12 -119zM289 1361q0 23 8.5 43.5t23.5 35.5t36 23.5t44 8.5q29 0 53 -14.5t38 -40t14 -56.5 q0 -46 -30.5 -79t-78.5 -33q-30 0 -55 15.5t-39 41.5t-14 55zM694 1361q0 46 32.5 78.5t78 32.5t76.5 -32t31 -79q0 -29 -13.5 -55t-39 -41.5t-57.5 -15.5q-30 0 -55 15.5t-39 41.5t-14 55z" />
<glyph unicode="&#xf8;" horiz-adv-x="1202" d="M83 523q0 129 41 235.5t112 177t166 109t205 38.5q149 0 267 -75l92 132l86 -59l-94 -138q78 -75 120 -178.5t42 -227.5q0 -94 -21 -175.5t-58 -142t-86.5 -108t-108 -77t-120 -44.5t-124.5 -15q-154 0 -269 75l-97 -133l-81 66l92 130q-164 157 -164 410zM272 529 q0 -157 77 -266l4 -2l433 613q-74 64 -186 64q-57 0 -105.5 -17t-83.5 -47t-62.5 -69t-44 -85.5t-24.5 -94.5t-8 -96zM418 182q73 -61 178 -61q74 0 137 31t106 85t67.5 130t24.5 164q0 148 -74 260h-4z" />
<glyph unicode="&#xf9;" horiz-adv-x="1206" d="M153 441v619h194v-585q0 -339 236 -339q91 0 157.5 52t96.5 126q18 45 18 98v648h193v-769q0 -180 8 -291h-171l-11 173h-4q-20 -35 -49.5 -67.5t-72.5 -63t-102.5 -49t-126.5 -18.5q-44 0 -85 9.5t-83.5 29t-77 56t-62 86t-43 122.5t-15.5 163zM307 1518h210l193 -313 h-135z" />
<glyph unicode="&#xfa;" horiz-adv-x="1206" d="M153 441v619h194v-585q0 -339 236 -339q91 0 157.5 52t96.5 126q18 45 18 98v648h193v-769q0 -180 8 -291h-171l-11 173h-4q-20 -35 -49.5 -67.5t-72.5 -63t-102.5 -49t-126.5 -18.5q-44 0 -85 9.5t-83.5 29t-77 56t-62 86t-43 122.5t-15.5 163zM510 1205l193 313h211 l-268 -313h-136z" />
<glyph unicode="&#xfb;" horiz-adv-x="1206" d="M153 441v619h194v-585q0 -339 236 -339q91 0 157.5 52t96.5 126q18 45 18 98v648h193v-769q0 -180 8 -291h-171l-11 173h-4q-20 -35 -49.5 -67.5t-72.5 -63t-102.5 -49t-126.5 -18.5q-44 0 -85 9.5t-83.5 29t-77 56t-62 86t-43 122.5t-15.5 163zM328 1205l207 313h134 l209 -313h-146l-127 206h-5l-127 -206h-145z" />
<glyph unicode="&#xfc;" horiz-adv-x="1206" d="M153 441v619h194v-585q0 -339 236 -339q91 0 157.5 52t96.5 126q18 45 18 98v648h193v-769q0 -180 8 -291h-171l-11 173h-4q-20 -35 -49.5 -67.5t-72.5 -63t-102.5 -49t-126.5 -18.5q-44 0 -85 9.5t-83.5 29t-77 56t-62 86t-43 122.5t-15.5 163zM299 1361q0 46 32 78.5 t79 32.5q44 0 74.5 -32t30.5 -79q0 -22 -8 -42.5t-22 -36t-35 -24.5t-44 -9q-45 0 -76 33.5t-31 78.5zM703 1361q0 30 14.5 55.5t40 40.5t55.5 15q46 0 76.5 -32t30.5 -79q0 -46 -30.5 -79t-78.5 -33q-31 0 -56 15.5t-38.5 41.5t-13.5 55z" />
<glyph unicode="&#xfd;" horiz-adv-x="1031" d="M19 1060h211l230 -626q41 -108 71 -217h4q6 20 19 64.5t25 83.5t23 74l211 621h203l-288 -755q-107 -281 -187.5 -430t-176.5 -235q-45 -37 -93.5 -65t-82 -40.5t-61.5 -17.5l-48 161q90 28 168 94q43 34 86.5 90t76.5 125q7 17 11 28t4 18q0 16 -15 50zM434 1205 l191 313h212l-268 -313h-135z" />
<glyph unicode="&#xff;" horiz-adv-x="1031" d="M19 1060h211l230 -626q41 -108 71 -217h4q6 20 19 64.5t25 83.5t23 74l211 621h203l-288 -755q-107 -281 -187.5 -430t-176.5 -235q-45 -37 -93.5 -65t-82 -40.5t-61.5 -17.5l-48 161q90 28 168 94q43 34 86.5 90t76.5 125q7 17 11 28t4 18q0 16 -15 50zM230 1361 q0 46 32 78.5t79 32.5q29 0 53.5 -14.5t38.5 -40t14 -56.5q0 -45 -31 -78.5t-79 -33.5q-45 0 -76 33.5t-31 78.5zM636 1361q0 30 14 55.5t39.5 40.5t55.5 15q46 0 77 -32t31 -79q0 -45 -31.5 -78.5t-78.5 -33.5t-77 33.5t-30 78.5z" />
<glyph unicode="&#x104;" horiz-adv-x="1340" d="M55 0l504 1477h227l507 -1477l-81 -4q-24 -25 -46.5 -52t-46 -72t-23.5 -81q0 -53 31 -83t80 -30q55 0 99 21l30 -98q-32 -25 -82 -39t-93 -14q-95 0 -150 49.5t-55 141.5q0 118 129 270l-156 455h-523l-151 -464h-200zM445 613h447l-147 426q-31 91 -76 270h-5 q-45 -184 -74 -268z" />
<glyph unicode="&#x105;" horiz-adv-x="1056" d="M77 280q0 193 165 295t473 100v22q0 31 -4 59t-19 63.5t-40 61t-71 43t-108 17.5q-50 0 -100 -9.5t-95.5 -27.5t-82.5 -43l-44 130q67 42 160 67t191 25q94 0 166 -25t116 -66t72 -98.5t38.5 -116.5t10.5 -126v-396q0 -79 4 -141.5t13 -113.5h-54q-32 -42 -59 -100.5 t-27 -110.5q0 -54 28.5 -81.5t76.5 -27.5q54 0 102 21l30 -100q-74 -53 -182 -53q-87 0 -141 49t-54 138q0 118 105 271l-15 128h-7q-48 -68 -132.5 -113.5t-191.5 -45.5q-78 0 -141 26t-102 69.5t-60 97.5t-21 112zM270 303q0 -91 51 -137.5t128 -46.5q99 0 167.5 51 t93.5 125q9 26 9 62v184q-449 10 -449 -238z" />
<glyph unicode="&#x106;" horiz-adv-x="1270" d="M79 725q0 172 56.5 317t157.5 246t244.5 157t313.5 56q84 0 159.5 -11.5t118 -25t72.5 -29.5l-49 -155q-122 61 -295 61q-130 0 -236.5 -41t-182 -118t-117 -192t-41.5 -258q0 -275 150 -434.5t416 -159.5q89 0 172 16.5t141 44.5l37 -153q-56 -29 -159.5 -50t-229.5 -21 q-157 0 -289.5 49.5t-230.5 142.5t-153 236.5t-55 321.5zM673 1560l203 257h233l-281 -257h-155z" />
<glyph unicode="&#x107;" horiz-adv-x="981" d="M83 517q0 121 41 225.5t114 179.5t180 118t235 43q79 0 151.5 -17t115.5 -41l-44 -147q-94 51 -223 51q-89 0 -161 -31.5t-118 -86.5t-71 -127.5t-25 -154.5q0 -181 103.5 -289t264.5 -108q125 0 237 50l33 -145q-29 -14 -69.5 -27t-105 -24t-130.5 -11q-158 0 -278 67.5 t-185 190.5t-65 284zM469 1205l192 313h211l-267 -313h-136z" />
<glyph unicode="&#x10c;" horiz-adv-x="1270" d="M79 725q0 172 56.5 317t157.5 246t244.5 157t313.5 56q84 0 159.5 -11.5t118 -25t72.5 -29.5l-49 -155q-122 61 -295 61q-130 0 -236.5 -41t-182 -118t-117 -192t-41.5 -258q0 -275 150 -434.5t416 -159.5q89 0 172 16.5t141 44.5l37 -153q-56 -29 -159.5 -50t-229.5 -21 q-157 0 -289.5 49.5t-230.5 142.5t-153 236.5t-55 321.5zM471 1813h162l141 -152h4l138 152h155l-222 -251h-148z" />
<glyph unicode="&#x10d;" horiz-adv-x="981" d="M83 517q0 121 41 225.5t114 179.5t180 118t235 43q79 0 151.5 -17t115.5 -41l-44 -147q-94 51 -223 51q-89 0 -161 -31.5t-118 -86.5t-71 -127.5t-25 -154.5q0 -181 103.5 -289t264.5 -108q125 0 237 50l33 -145q-29 -14 -69.5 -27t-105 -24t-130.5 -11q-158 0 -278 67.5 t-185 190.5t-65 284zM295 1518h148l129 -207h5l128 207h146l-207 -313h-138z" />
<glyph unicode="&#x10e;" horiz-adv-x="1458" d="M167 4v1451q201 33 405 33q398 0 599 -184q209 -189 209 -530q0 -179 -54.5 -325.5t-157.5 -249.5q-105 -103 -272.5 -157.5t-382.5 -54.5q-192 0 -346 17zM357 149q65 -9 193 -9q306 0 467.5 163t161.5 464q1 132 -36 236.5t-110.5 179t-188 114t-263.5 39.5 q-133 0 -224 -19v-1168zM372 1810h163l140 -152h4l138 152h156l-224 -250h-147z" />
<glyph unicode="&#x10f;" horiz-adv-x="1257" d="M83 515q0 129 38 237t103 179.5t151.5 111.5t183.5 40q115 0 197.5 -46t121.5 -115h5v634h191v-1282q0 -128 9 -274h-171l-9 184h-6q-29 -61 -79 -107t-122.5 -74t-156.5 -28q-63 0 -122.5 18t-109.5 50.5t-91.5 81t-71 107.5t-45.5 131t-16 152zM278 523 q0 -81 20.5 -151.5t59 -124.5t98.5 -84.5t136 -30.5q64 0 122 27.5t100.5 80t59.5 122.5q9 35 9 83v184q0 49 -9 81q-22 95 -97.5 158t-180.5 63q-97 0 -170 -53.5t-110.5 -145.5t-37.5 -209zM1173 1207q78 88 78 196q0 26 -9 53t-24 49.5t-35 39.5l138 31q32 -20 56 -64.5 t24 -95.5q0 -45 -12 -86t-26.5 -68t-38 -53.5t-36 -37.5t-30.5 -25q-3 -3 -5 -4z" />
<glyph unicode="&#x110;" horiz-adv-x="1470" d="M-2 673v153h180v636q200 33 405 33q402 0 596 -184q210 -186 210 -537q0 -181 -54.5 -326.5t-157.5 -250.5q-105 -104 -272.5 -158t-381.5 -54q-177 0 -345 15v673h-180zM368 147q64 -9 191 -9q306 0 467.5 163.5t161.5 469.5q1 272 -150 422t-446 150q-133 0 -224 -19 v-498h395v-153h-395v-526z" />
<glyph unicode="&#x111;" horiz-adv-x="1235" d="M83 515q0 129 38 237t103 179.5t151.5 111.5t183.5 40q115 0 197.5 -46t121.5 -115h5v287h-431v121h431v226h191v-226h170v-121h-170v-935q0 -128 9 -274h-171l-9 184h-6q-29 -61 -79 -107t-122.5 -74t-156.5 -28q-63 0 -122.5 18t-109.5 50.5t-91.5 81t-71 107.5 t-45.5 131t-16 152zM278 523q0 -81 20.5 -151.5t59 -124.5t98.5 -84.5t136 -30.5q64 0 122 27.5t100.5 80t59.5 122.5q9 35 9 83v184q0 49 -9 81q-22 95 -97.5 158t-180.5 63q-97 0 -170 -53.5t-110.5 -145.5t-37.5 -209z" />
<glyph unicode="&#x118;" horiz-adv-x="1077" d="M165 0v1477h799v-160h-607v-466h572v-159h-572v-532h640v-160q-5 0 -16.5 -1t-18.5 -1q-47 -30 -86.5 -66.5t-66.5 -80.5t-27 -83q0 -28 13 -48t35 -30t51 -10q52 0 96 17l31 -103q-75 -46 -178 -46q-93 0 -147 47t-54 131q0 56 29 112t67 94.5t82 67.5h-642z" />
<glyph unicode="&#x119;" horiz-adv-x="1097" d="M83 513q0 95 22 181.5t65 157t102.5 122.5t138.5 80.5t170 28.5q72 0 133.5 -17.5t106 -47t79 -70.5t56.5 -85t36.5 -94t20.5 -95t6 -89q0 -61 -7 -90h-744q1 -95 30.5 -167t80 -115t114 -64.5t138.5 -21.5q166 0 293 55l34 -138q-7 -3 -99 -38q-45 -19 -92.5 -56 t-81.5 -86t-34 -92q0 -45 26 -68.5t63 -23.5q59 0 103 21l31 -98q-71 -52 -177 -52q-60 0 -103.5 19.5t-67.5 58.5t-24 93q0 73 47.5 142t109.5 111v4q-9 0 -28.5 -2t-30.5 -2q-158 1 -276 69t-179.5 189t-61.5 280zM272 633h560q1 33 -3.5 66t-15.5 69t-32 67t-49 56 t-70.5 39.5t-94.5 14.5q-57 0 -104.5 -20t-80 -51.5t-56.5 -73t-36.5 -83t-17.5 -84.5z" />
<glyph unicode="&#x11a;" horiz-adv-x="1077" d="M165 0v1477h799v-160h-607v-466h572v-159h-572v-532h640v-160h-832zM261 1806h162l140 -152h4l138 152h156l-223 -250h-147z" />
<glyph unicode="&#x11b;" horiz-adv-x="1097" d="M83 513q0 95 22 181.5t65 157t102.5 122.5t138.5 80.5t170 28.5q72 0 133.5 -17.5t106 -47t79 -70.5t56.5 -85t36.5 -94t20.5 -95t6 -89q0 -57 -7 -90h-744q1 -95 30.5 -167t80 -115t114 -64.5t138.5 -21.5q169 0 293 55l36 -138q-149 -69 -355 -69q-161 0 -279.5 68 t-180.5 189t-62 281zM270 633h562q1 40 -5.5 79.5t-25 82.5t-47.5 75.5t-78 53.5t-111 21q-36 0 -68.5 -8t-58.5 -22t-49 -33t-40 -42.5t-31 -48.5t-23.5 -52.5t-15.5 -53.5t-9 -52zM276 1518h147l129 -207h4l130 207h144l-205 -313h-138z" />
<glyph unicode="&#x139;" horiz-adv-x="1033" d="M165 0v1477h192v-1317h632v-160h-824zM188 1556l205 257h232l-280 -257h-157z" />
<glyph unicode="&#x13a;" horiz-adv-x="516" d="M134 1619l203 257h232l-280 -257h-155zM160 0v1556h193v-1556h-193z" />
<glyph unicode="&#x13d;" horiz-adv-x="1033" d="M165 0v1477h192v-1317h632v-160h-824zM533 1194q71 11 117.5 46.5t46.5 95.5q0 72 -74 134l142 31q36 -24 62 -67.5t26 -94.5q0 -47 -16.5 -85.5t-44 -64.5t-65 -44.5t-76.5 -28t-82 -12.5z" />
<glyph unicode="&#x13e;" horiz-adv-x="533" d="M160 0v1556h193v-1556h-193zM441 1207q76 96 76 196q0 39 -18.5 77.5t-46.5 64.5l135 31q33 -20 56.5 -65t23.5 -100q0 -26 -4 -50t-11 -45t-15 -38.5t-20 -34.5t-20.5 -28.5t-22 -24.5t-19.5 -19t-18 -16t-14 -11z" />
<glyph unicode="&#x13f;" horiz-adv-x="1033" d="M165 0v1477h192v-1317h632v-160h-824zM638 815q0 44 32 76.5t77 32.5q29 0 53.5 -15t38.5 -40.5t14 -53.5q0 -45 -31.5 -78.5t-76.5 -33.5q-23 0 -43 9.5t-34 24.5t-22 36t-8 42z" />
<glyph unicode="&#x140;" horiz-adv-x="595" d="M160 0v1556h193v-1556h-193zM449 857q0 45 31 77t74 32t72 -31.5t29 -77.5q0 -45 -29 -77.5t-74 -32.5q-43 0 -73 32.5t-30 77.5z" />
<glyph unicode="&#x141;" horiz-adv-x="1042" d="M-11 456v146l184 134v741h193v-609l293 213v-150l-293 -212v-559h631v-160h-824v590z" />
<glyph unicode="&#x142;" horiz-adv-x="529" d="M19 504v151l150 127v774h193v-625l155 134v-153l-155 -134v-778h-193v631z" />
<glyph unicode="&#x143;" horiz-adv-x="1441" d="M167 0v1477h210l472 -747q171 -279 262 -481l6 4q-21 246 -21 606v618h179v-1477h-192l-470 749q-184 296 -274 493l-6 -2q14 -242 14 -609v-631h-180zM609 1556l202 257h234l-280 -257h-156z" />
<glyph unicode="&#x144;" horiz-adv-x="1215" d="M151 1060h171l11 -175h4q20 38 52.5 72.5t76 63t101.5 45.5t121 17q48 0 95.5 -11.5t99.5 -43t90.5 -80.5t64 -130.5t25.5 -186.5v-631h-193v611q0 67 -13 121.5t-41 99t-76.5 68.5t-114.5 24q-91 0 -161 -56t-98 -140q-13 -37 -13 -90v-638h-193v774q0 155 -9 286z M504 1205l193 313h210l-267 -313h-136z" />
<glyph unicode="&#x147;" horiz-adv-x="1441" d="M167 0v1477h210l472 -747q171 -279 262 -481l6 4q-21 246 -21 606v618h179v-1477h-192l-470 749q-184 296 -274 493l-6 -2q14 -242 14 -609v-631h-180zM423 1794h162l140 -150h5l138 150h155l-226 -249h-144z" />
<glyph unicode="&#x148;" horiz-adv-x="1215" d="M151 1060h171l11 -175h4q20 38 52.5 72.5t76 63t101.5 45.5t121 17q48 0 95.5 -11.5t99.5 -43t90.5 -80.5t64 -130.5t25.5 -186.5v-631h-193v611q0 67 -13 121.5t-41 99t-76.5 68.5t-114.5 24q-91 0 -161 -56t-98 -140q-13 -37 -13 -90v-638h-193v774q0 155 -9 286z M331 1518h146l130 -207h4l129 207h145l-206 -313h-138z" />
<glyph unicode="&#x150;" horiz-adv-x="1509" d="M79 728q0 172 51.5 318t142 246t217 155.5t273.5 55.5q120 0 224.5 -35t185 -101.5t138 -158t87.5 -207t30 -247.5q0 -148 -35 -274.5t-97.5 -218.5t-148.5 -157t-188.5 -97t-215.5 -32q-146 0 -269.5 55t-210 153t-135.5 238.5t-49 306.5zM280 732q0 -68 10.5 -133.5 t31 -125t50 -111.5t69.5 -94.5t87 -72.5t105 -46.5t121 -16.5q75 0 140.5 22t117 62t92.5 96.5t68 124.5t41 146t14 162q0 90 -18 176t-56.5 163.5t-93 136t-132.5 93t-171 34.5q-92 0 -170.5 -33t-134 -91t-94.5 -136t-58 -168t-19 -188zM523 1573l176 246h208l-243 -246 h-141zM846 1573l175 246h208l-242 -246h-141z" />
<glyph unicode="&#x151;" horiz-adv-x="1202" d="M83 521q0 129 41.5 236t112.5 178t167 109.5t205 38.5q151 0 267.5 -68.5t180 -192t63.5 -283.5q0 -114 -30.5 -209t-82 -159.5t-120 -109.5t-143 -65.5t-152.5 -20.5q-85 0 -162 24.5t-140 72t-109.5 113t-72 151.5t-25.5 185zM280 529q0 -116 40.5 -208.5t114 -146 t165.5 -53.5q91 0 165 53t115.5 147t41.5 212q0 46 -7.5 92.5t-23.5 92.5t-42.5 85.5t-60.5 70t-81 47.5t-102 17q-66 0 -120.5 -23.5t-92 -63t-63 -92.5t-37.5 -111t-12 -119zM349 1221l172 297h189l-241 -297h-120zM664 1221l173 297h188l-241 -297h-120z" />
<glyph unicode="&#x152;" horiz-adv-x="1958" d="M79 728q0 179 54 325.5t150.5 245t230.5 151.5t293 53q83 0 192 -12q119 -14 141 -14h705v-160h-607v-468h572v-159h-572v-530h640v-160h-756q-40 0 -145 -13q-9 -1 -51 -4.5t-71.5 -5.5t-59.5 -2q-135 0 -250.5 38t-200.5 106t-145 161.5t-90 207t-30 240.5zM280 736 q0 -180 64 -316t189.5 -212t296.5 -76q134 0 215 28v1155q-97 33 -234 33q-162 0 -282.5 -77.5t-184.5 -215.5t-64 -319z" />
<glyph unicode="&#x153;" horiz-adv-x="1890" d="M83 523q0 127 39.5 232.5t108 177t161.5 111t200 39.5q136 0 243 -67t156 -186h4q39 83 99 140.5t132.5 85t155.5 27.5q71 0 131 -18t103 -48t77 -71t56 -85.5t36 -93.5t19.5 -93t5.5 -87q0 -51 -4 -89h-721q0 -89 26.5 -159.5t73.5 -116.5t111 -70.5t141 -24.5 q90 0 155 15.5t129 43.5l36 -138q-41 -23 -100.5 -40t-121.5 -25t-122 -8q-142 0 -250.5 62t-169.5 189h-4q-39 -83 -105.5 -140.5t-143.5 -84t-161 -26.5q-105 0 -196 39t-157 109t-104.5 173.5t-38.5 226.5zM280 529q0 -114 40.5 -207.5t112 -147t161.5 -53.5 q92 0 163 51.5t109.5 144.5t38.5 214q0 51 -8 100t-24 95t-42 84t-59.5 67t-79.5 45t-100 16q-56 0 -103 -17.5t-80.5 -48t-58.5 -70.5t-40 -86.5t-22.5 -93t-7.5 -93.5zM1083 636h543q1 38 -5 77.5t-24 82t-46 75t-75.5 53.5t-108.5 21q-54 0 -100.5 -20t-78 -51 t-54.5 -72.5t-35 -83t-16 -82.5z" />
<glyph unicode="&#x154;" horiz-adv-x="1178" d="M167 0v1457q174 31 366 31q151 0 255 -29.5t172 -91.5q55 -49 85.5 -122.5t30.5 -159.5q0 -70 -21 -132t-59 -108.5t-87.5 -80t-108.5 -54.5v-7q159 -56 214 -297q42 -178 67.5 -272.5t47.5 -133.5h-198q-33 59 -96 353q-33 152 -100.5 217t-197.5 70h-180v-640h-190z M357 784h195q101 0 176.5 35t116 98.5t40.5 147.5q0 138 -91 206t-248 68q-131 0 -189 -15v-540zM458 1560l203 257h234l-282 -257h-155z" />
<glyph unicode="&#x155;" horiz-adv-x="715" d="M151 1060h169l8 -209h7q18 52 48.5 95.5t69 73.5t84.5 46.5t94 16.5q18 0 53 -4v-182q-20 4 -66 4q-66 0 -120.5 -31.5t-89.5 -87t-48 -127.5q-7 -40 -7 -90v-565h-193v730q0 183 -9 330zM282 1205l193 313h211l-268 -313h-136z" />
<glyph unicode="&#x158;" horiz-adv-x="1178" d="M167 0v1457q174 31 366 31q151 0 255 -29.5t172 -91.5q55 -49 85.5 -122.5t30.5 -159.5q0 -70 -21 -132t-59 -108.5t-87.5 -80t-108.5 -54.5v-7q159 -56 214 -297q42 -178 67.5 -272.5t47.5 -133.5h-198q-33 59 -96 353q-33 152 -100.5 217t-197.5 70h-180v-640h-190z M276 1813h163l140 -152h4l138 152h155l-223 -251h-147zM357 784h195q101 0 176.5 35t116 98.5t40.5 147.5q0 138 -91 206t-248 68q-131 0 -189 -15v-540z" />
<glyph unicode="&#x159;" horiz-adv-x="715" d="M121 1518h147l129 -207h4l130 207h144l-206 -313h-138zM151 1060h169l8 -209h7q18 52 48.5 95.5t69 73.5t84.5 46.5t94 16.5q18 0 53 -4v-182q-20 4 -66 4q-66 0 -120.5 -31.5t-89.5 -87t-48 -127.5q-7 -40 -7 -90v-565h-193v730q0 183 -9 330z" />
<glyph unicode="&#x15a;" horiz-adv-x="1079" d="M92 73l50 159q68 -43 157 -69.5t184 -26.5q143 0 225.5 69t82.5 182q0 102 -64.5 169t-213.5 123q-191 70 -290.5 171t-99.5 250q0 86 34.5 160t96 127t151.5 83.5t195 30.5q104 0 188 -20.5t136 -52.5l-52 -155q-43 28 -115.5 49t-162.5 21q-72 0 -128 -20t-87.5 -53 t-47 -70.5t-15.5 -77.5q0 -99 67 -161t226 -124q194 -75 284.5 -175.5t90.5 -258.5q0 -69 -19.5 -131.5t-61.5 -117t-102 -94t-145 -62.5t-187 -23q-104 0 -209.5 28.5t-167.5 69.5zM452 1560l201 257h234l-280 -257h-155z" />
<glyph unicode="&#x15b;" horiz-adv-x="867" d="M88 50l46 145q50 -30 120 -52t137 -22q99 0 151 43.5t52 113.5q0 68 -44 110.5t-151 82.5q-282 103 -282 300q0 65 25.5 121.5t72 99t116 67t152.5 24.5q77 0 145 -18.5t112 -48.5l-46 -140q-100 65 -217 65q-82 0 -128 -42t-46 -104q0 -63 44.5 -100.5t154.5 -81.5 q141 -52 209.5 -127.5t68.5 -190.5q0 -94 -46.5 -166t-136.5 -113t-212 -41q-169 0 -297 75zM345 1205l190 313h212l-267 -313h-135z" />
<glyph unicode="&#x160;" horiz-adv-x="1079" d="M92 73l50 159q68 -43 157 -69.5t184 -26.5q143 0 225.5 69t82.5 182q0 102 -64.5 169t-213.5 123q-191 70 -290.5 171t-99.5 250q0 86 34.5 160t96 127t151.5 83.5t195 30.5q104 0 188 -20.5t136 -52.5l-52 -155q-43 28 -115.5 49t-162.5 21q-72 0 -128 -20t-87.5 -53 t-47 -70.5t-15.5 -77.5q0 -99 67 -161t226 -124q194 -75 284.5 -175.5t90.5 -258.5q0 -69 -19.5 -131.5t-61.5 -117t-102 -94t-145 -62.5t-187 -23q-104 0 -209.5 28.5t-167.5 69.5zM263 1813h162l140 -152h4l139 152h155l-223 -251h-147z" />
<glyph unicode="&#x161;" horiz-adv-x="867" d="M88 50l46 145q50 -30 120 -52t137 -22q99 0 151 43.5t52 113.5q0 68 -44 110.5t-151 82.5q-282 103 -282 300q0 65 25.5 121.5t72 99t116 67t152.5 24.5q77 0 145 -18.5t112 -48.5l-46 -140q-100 65 -217 65q-82 0 -128 -42t-46 -104q0 -63 44.5 -100.5t154.5 -81.5 q141 -52 209.5 -127.5t68.5 -190.5q0 -94 -46.5 -166t-136.5 -113t-212 -41q-169 0 -297 75zM167 1518h147l129 -207h4l130 207h144l-206 -313h-138z" />
<glyph unicode="&#x164;" horiz-adv-x="1088" d="M-2 1315v162h1093v-162h-451v-1315h-193v1315h-449zM243 1806h163l140 -152h4l138 152h155l-222 -250h-148z" />
<glyph unicode="&#x165;" horiz-adv-x="742" d="M40 914v146h163v196l190 59v-255h278v-146h-278v-573q0 -103 33.5 -154t112.5 -51q65 0 112 13l8 -147q-78 -27 -172 -27q-134 0 -209 82q-75 84 -75 278v579h-163zM550 1263q83 61 83 163q0 24 -8.5 48t-23.5 44t-34 36l141 29q31 -21 53.5 -62t22.5 -90 q0 -43 -13.5 -81t-33 -64t-45 -47.5t-46 -33.5t-39.5 -19z" />
<glyph unicode="&#x16e;" horiz-adv-x="1417" d="M165 607v870h192v-877q0 -120 26 -211t72.5 -146.5t108 -83t137.5 -27.5q169 0 264 116t95 352v877h193v-864q0 -133 -27.5 -240t-77 -180.5t-119.5 -123t-153.5 -72t-181.5 -22.5q-93 0 -171.5 21.5t-145.5 69t-113.5 120t-72.5 179.5t-26 242zM491 1711 q0 85 60.5 142.5t161.5 57.5q96 0 155 -57t59 -143q0 -83 -61 -138t-156 -55q-97 0 -158 55.5t-61 137.5zM602 1711q0 -44 30.5 -77.5t75.5 -33.5q47 0 76 33t29 83q0 49 -30 82.5t-78 33.5q-47 0 -75 -35.5t-28 -85.5z" />
<glyph unicode="&#x16f;" horiz-adv-x="1206" d="M153 441v619h194v-585q0 -339 236 -339q91 0 157.5 52t96.5 126q18 45 18 98v648h193v-769q0 -180 8 -291h-171l-11 173h-4q-20 -35 -49.5 -67.5t-72.5 -63t-102.5 -49t-126.5 -18.5q-44 0 -85 9.5t-83.5 29t-77 56t-62 86t-43 122.5t-15.5 163zM381 1376q0 44 16 81.5 t45 65.5t71.5 44t93.5 16q97 0 157 -58.5t60 -148.5q0 -85 -63 -142t-156 -57q-98 0 -161 57.5t-63 141.5zM493 1376q0 -46 31 -82t78 -36q26 0 48 9.5t36.5 26t22.5 38.5t8 46q0 52 -32 87.5t-85 35.5q-24 0 -44 -10t-33.5 -27t-21.5 -40t-8 -48z" />
<glyph unicode="&#x170;" horiz-adv-x="1417" d="M165 607v870h192v-877q0 -120 26 -211t72.5 -146.5t108 -83t137.5 -27.5q169 0 264 116t95 352v877h193v-864q0 -133 -27.5 -240t-77 -180.5t-119.5 -123t-153.5 -72t-181.5 -22.5q-93 0 -171.5 21.5t-145.5 69t-113.5 120t-72.5 179.5t-26 242zM445 1566l176 247h207 l-243 -247h-140zM767 1566l176 247h207l-243 -247h-140z" />
<glyph unicode="&#x171;" horiz-adv-x="1206" d="M153 441v619h194v-585q0 -339 236 -339q91 0 157.5 52t96.5 126q18 45 18 98v648h193v-769q0 -180 8 -291h-171l-11 173h-4q-20 -35 -49.5 -67.5t-72.5 -63t-102.5 -49t-126.5 -18.5q-44 0 -85 9.5t-83.5 29t-77 56t-62 86t-43 122.5t-15.5 163zM366 1221l173 297h189 l-241 -297h-121zM682 1221l173 297h188l-241 -297h-120z" />
<glyph unicode="&#x178;" horiz-adv-x="1184" d="M27 1477h218l209 -408q121 -247 146 -304h5q11 28 24.5 57t29 60.5t29.5 58t33.5 64.5t32.5 64l212 408h215l-493 -848v-629h-193v627zM303 1677q0 44 31 76.5t76 32.5t75 -31.5t30 -77.5q0 -47 -30 -80t-77 -33q-45 0 -75 33t-30 80zM708 1677q0 29 14 54t39.5 40 t55.5 15q46 0 75.5 -31.5t29.5 -77.5q0 -48 -30 -80.5t-79 -32.5q-45 0 -75 33t-30 80z" />
<glyph unicode="&#x179;" horiz-adv-x="1211" d="M65 0v111l818 1200v6h-747v160h997v-116l-815 -1194v-7h826v-160h-1079zM508 1556l205 257h232l-281 -257h-156z" />
<glyph unicode="&#x17a;" horiz-adv-x="937" d="M40 0v111l477 625q41 51 140 167v4h-574v153h806v-119l-473 -617q-99 -127 -136 -167v-4h619v-153h-859zM379 1205l190 313h213l-267 -313h-136z" />
<glyph unicode="&#x17b;" horiz-adv-x="1211" d="M65 0v111l818 1200v6h-747v160h997v-116l-815 -1194v-7h826v-160h-1079zM506 1690q0 43 32 76t77 33q44 0 75 -33t31 -76q0 -45 -31.5 -78.5t-76.5 -33.5t-76 33.5t-31 78.5z" />
<glyph unicode="&#x17c;" horiz-adv-x="937" d="M40 0v111l477 625q41 51 140 167v4h-574v153h806v-119l-473 -617q-99 -127 -136 -167v-4h619v-153h-859zM364 1361q0 23 9 44t23.5 36.5t35.5 24t43.5 8.5t42.5 -8.5t34 -24t22.5 -36.5t8.5 -44q0 -45 -31 -78.5t-79 -33.5q-46 0 -77.5 33.5t-31.5 78.5z" />
<glyph unicode="&#x17d;" horiz-adv-x="1211" d="M65 0v111l818 1200v6h-747v160h997v-116l-815 -1194v-7h826v-160h-1079zM326 1806h163l140 -152h4l138 152h156l-226 -250h-145z" />
<glyph unicode="&#x17e;" horiz-adv-x="937" d="M40 0v111l477 625q41 51 140 167v4h-574v153h806v-119l-473 -617q-99 -127 -136 -167v-4h619v-153h-859zM219 1518h147l129 -207h5l129 207h145l-207 -313h-138z" />
<glyph unicode="&#x192;" d="M25 -147l34 136q54 -24 123 -24q97 0 144.5 83t68.5 261l50 431h-202v141h217l13 101q9 70 25.5 132t49 125t77 108t113.5 73.5t154 28.5q95 -3 149 -33l-35 -141q-55 22 -114 22q-54 0 -96.5 -24.5t-69.5 -67.5t-43.5 -95.5t-23.5 -116.5l-13 -112h264v-141h-281 l-52 -447q-9 -74 -23 -134.5t-35 -115.5t-50.5 -95.5t-68.5 -70.5t-90.5 -45.5t-114.5 -15.5q-105 0 -170 37z" />
<glyph unicode="&#x2c6;" horiz-adv-x="656" d="M55 1205l206 313h134l210 -313h-147l-127 206h-5l-127 -206h-144z" />
<glyph unicode="&#x2da;" horiz-adv-x="656" d="M90 1376q0 89 61.5 148t162.5 59q97 0 157 -58.5t60 -148.5q0 -85 -63 -142t-157 -57q-96 0 -158.5 57.5t-62.5 141.5zM201 1376q0 -18 5 -35t15 -32t23.5 -26.5t30.5 -18t36 -6.5q50 0 81 35t31 85q0 52 -31 87.5t-83 35.5q-49 0 -78.5 -36t-29.5 -89z" />
<glyph unicode="&#x2dc;" horiz-adv-x="656" d="M59 1242q-3 106 37.5 167t112.5 61q22 0 47.5 -7.5t39 -14.5t49.5 -26q2 -1 12 -7t13 -7.5l12 -6t12.5 -6t10.5 -4t12 -3.5t10.5 -2t11.5 -1q26 0 41 20t18 72h102q4 -221 -148 -221q-33 0 -63 11.5t-73 34.5q-36 22 -55.5 30.5t-39.5 8.5q-49 0 -56 -99h-106z" />
<glyph unicode="&#x2000;" horiz-adv-x="962" />
<glyph unicode="&#x2001;" horiz-adv-x="1924" />
<glyph unicode="&#x2002;" horiz-adv-x="962" />
<glyph unicode="&#x2003;" horiz-adv-x="1924" />
<glyph unicode="&#x2004;" horiz-adv-x="641" />
<glyph unicode="&#x2005;" horiz-adv-x="481" />
<glyph unicode="&#x2006;" horiz-adv-x="320" />
<glyph unicode="&#x2007;" horiz-adv-x="320" />
<glyph unicode="&#x2008;" horiz-adv-x="240" />
<glyph unicode="&#x2009;" horiz-adv-x="384" />
<glyph unicode="&#x200a;" horiz-adv-x="106" />
<glyph unicode="&#x2010;" horiz-adv-x="671" d="M65 521v140h542v-140h-542z" />
<glyph unicode="&#x2011;" horiz-adv-x="671" d="M65 521v140h542v-140h-542z" />
<glyph unicode="&#x2012;" horiz-adv-x="671" d="M65 521v140h542v-140h-542z" />
<glyph unicode="&#x2013;" horiz-adv-x="1095" d="M65 491v132h965v-132h-965z" />
<glyph unicode="&#x2014;" horiz-adv-x="2191" d="M65 491v132h2061v-132h-2061z" />
<glyph unicode="&#x2018;" horiz-adv-x="452" d="M77 982q37 136 97.5 290t105.5 231l123 13q-35 -100 -73 -249t-56 -263z" />
<glyph unicode="&#x2019;" horiz-adv-x="452" d="M75 982q17 48 36 113t36 133t32 138.5t24 128.5l198 21q-37 -134 -98 -288.5t-106 -232.5z" />
<glyph unicode="&#x201a;" horiz-adv-x="452" d="M46 -259q36 100 73.5 249.5t55.5 264.5l197 21q-37 -135 -97.5 -289.5t-105.5 -231.5z" />
<glyph unicode="&#x201c;" horiz-adv-x="774" d="M77 982q37 136 97.5 290t105.5 231l123 13q-35 -100 -73 -249t-56 -263zM401 982q37 136 97.5 290t106.5 231l123 13q-36 -96 -73.5 -245t-56.5 -267z" />
<glyph unicode="&#x201d;" horiz-adv-x="774" d="M75 982q36 96 73 244.5t55 268.5l198 21q-37 -134 -98 -288.5t-106 -232.5zM399 982q23 65 48.5 154.5t47.5 186t34 172.5l196 21q-36 -134 -97 -288.5t-107 -232.5z" />
<glyph unicode="&#x201e;" horiz-adv-x="780" d="M44 -259q36 96 73.5 245.5t55.5 268.5l197 21q-37 -135 -97.5 -289.5t-105.5 -231.5zM368 -259q36 100 74 249.5t56 264.5l196 21q-37 -135 -97.5 -289.5t-105.5 -231.5z" />
<glyph unicode="&#x2022;" horiz-adv-x="617" d="M79 575q-1 95 66.5 162.5t163.5 67.5t163 -67t67 -163t-67.5 -163t-164.5 -67q-94 0 -161 66.5t-67 163.5z" />
<glyph unicode="&#x2026;" horiz-adv-x="2191" d="M234 113.5q0 59.5 37.5 99.5t94.5 40t93 -39t36 -101q0 -60 -36.5 -99t-96.5 -39q-56 0 -92 39.5t-36 99zM964 113.5q0 59.5 37 99.5t95 40q38 0 67.5 -18t45.5 -49.5t16 -72.5q0 -60 -36.5 -99t-97.5 -39q-55 0 -91 39.5t-36 99zM1694 113.5q0 59.5 37 99.5t94.5 40 t93.5 -39t36 -101q0 -60 -37 -99t-97 -39q-56 0 -91.5 39.5t-35.5 99z" />
<glyph unicode="&#x202f;" horiz-adv-x="384" />
<glyph unicode="&#x2039;" horiz-adv-x="558" d="M63 552l290 404h155l-291 -404l291 -403h-155z" />
<glyph unicode="&#x203a;" horiz-adv-x="558" d="M52 149l293 403l-293 404h155l291 -404l-291 -403h-155z" />
<glyph unicode="&#x205f;" horiz-adv-x="481" />
<glyph unicode="&#x20ab;" d="M147 717q0 92 29 169.5t79.5 128.5t118 79t143.5 28q56 0 104 -15t80.5 -40t52.5 -59h5v193h-276v108h276v146h165v-146h136v-108h-136v-655q0 -117 7 -193h-151l-6 124h-5q-35 -65 -106.5 -103.5t-167.5 -38.5q-149 0 -248.5 106.5t-99.5 275.5zM195 86v129h738v-129 h-738zM322 723q0 -111 58 -185t161 -74q74 0 132 43.5t76 115.5q10 22 10 56v103q0 33 -8 59q-7 30 -25.5 58t-44.5 48.5t-61 33t-72 12.5q-105 0 -165.5 -75.5t-60.5 -194.5z" />
<glyph unicode="&#x20ac;" d="M21 548v109h126v33q0 34 4 96h-130v111h146q40 230 180 370q170 182 431 182q163 0 293 -71l-43 -144q-45 26 -110.5 43.5t-135.5 17.5q-176 0 -291 -118q-96 -100 -129 -280h611v-111h-632q-4 -28 -4 -92v-37h636v-109h-620q25 -185 120 -287q118 -127 309 -127 q79 0 150 22t118 51l37 -142q-56 -38 -141.5 -64t-184.5 -26q-134 0 -250 50.5t-195 145.5q-130 143 -159 377h-136z" />
<glyph unicode="&#x2122;" horiz-adv-x="1355" d="M67 1378v99h498v-99h-191v-497h-117v497h-190zM600 881l44 596h178l102 -291q11 -32 40 -151h2q3 9 18.5 65.5t23.5 80.5l103 296h171l46 -596h-119l-21 351q-1 24 -2.5 81t-2.5 85h-6q-39 -136 -50 -177l-108 -332h-122l-108 340q-4 15 -9.5 38t-11 43.5t-11.5 45.5 t-10 42h-7q0 -57 -4 -166l-21 -351h-115z" />
<glyph unicode="&#xe000;" horiz-adv-x="1062" d="M0 0v1063h1063v-1063h-1063z" />
</font>
</defs>
</svg>
