<?xml version="1.0" standalone="no"?>
<!DOCTYPE svg PUBLIC "-//W3C//DTD SVG 1.1//EN" "http://www.w3.org/Graphics/SVG/1.1/DTD/svg11.dtd" >
<svg xmlns="http://www.w3.org/2000/svg">
<metadata></metadata>
<defs>
<font id="MyriadProLightBold" horiz-adv-x="1162" >
<font-face units-per-em="2048" ascent="1536" descent="-512" />
<missing-glyph horiz-adv-x="448" />
<glyph horiz-adv-x="0" />
<glyph horiz-adv-x="2048" />
<glyph unicode=" "  horiz-adv-x="448" />
<glyph unicode="&#x09;" horiz-adv-x="448" />
<glyph unicode="&#xa0;" horiz-adv-x="448" />
<glyph unicode="!" horiz-adv-x="544" d="M106 145q0 75 46 122.5t119 47.5q74 0 119 -47t47 -123q0 -73 -46.5 -121t-121.5 -48q-71 0 -117 48.5t-46 120.5zM130 1463h282l-39 -1011h-201z" />
<glyph unicode="&#x22;" horiz-adv-x="802" d="M91 1502h245l-43 -558h-158zM466 1502h246l-43 -558h-159z" />
<glyph unicode="#" horiz-adv-x="1141" d="M81 406v167h205l37 276h-184v166h211l54 396h163l-55 -396h211l56 396h163l-54 -396h176v-166h-202l-37 -276h182v-167h-208l-57 -406h-164l56 406h-211l-54 -406h-168l58 406h-178zM452 573h208l36 276h-207z" />
<glyph unicode="$" d="M130 118l59 205q159 -95 339 -95q104 0 168 46.5t64 123.5q0 73 -56.5 123.5t-181.5 95.5q-90 33 -155.5 68t-117 81.5t-78 106t-26.5 132.5q0 141 93.5 241.5t256.5 129.5v211h178v-199q162 -5 300 -75l-59 -199q-29 15 -49.5 24t-60 23t-86.5 21t-99 7q-105 0 -156 -44 t-51 -107q0 -65 60 -111t205 -102q184 -69 267 -164t83 -240q0 -143 -96 -249t-269 -135v-224h-180v211q-100 3 -195.5 29t-156.5 65z" />
<glyph unicode="%" horiz-adv-x="1823" d="M60 992q0 199 104.5 321t270.5 122q108 0 188 -51.5t122.5 -146.5t42.5 -222q0 -108 -30 -195t-81.5 -141t-117 -83t-138.5 -29q-75 0 -139.5 28.5t-114 81t-78 134t-29.5 181.5zM265 1001q-2 -126 41 -205t119 -79q79 0 119 76.5t40 209.5q0 60 -9 109.5t-27.5 89 t-50 61.5t-74.5 22q-51 0 -87.5 -38.5t-53.5 -101.5t-17 -144zM423 -24l818 1459h155l-820 -1459h-153zM1034 408q0 198 103.5 319.5t269 121.5t261 -113.5t95.5 -305.5q0 -86 -19.5 -159.5t-54 -126t-81.5 -89t-101 -54.5t-113 -18t-113 17.5t-98.5 53.5t-77.5 86t-52 119 t-19 149zM1237 414q-1 -81 17.5 -144t56.5 -100.5t89 -37.5q79 0 118.5 75.5t39.5 209.5q0 48 -5 89t-17 77t-30.5 61.5t-45.5 40t-62 14.5q-77 0 -119 -80t-42 -205z" />
<glyph unicode="&#x26;" horiz-adv-x="1399" d="M67 391q0 140 75 246.5t208 176.5v6q-54 64 -86 141t-32 153q0 39 8.5 78t25.5 76t41.5 70t59 61t75 48t91.5 31t107 11q103 0 186 -39.5t131 -115t48 -172.5q0 -116 -72 -210.5t-229 -174.5l-2 -6q206 -239 294 -334q94 143 133 388h238q-63 -365 -227 -549 q26 -30 76.5 -86t92 -102t81.5 -88h-313q-21 21 -60.5 63.5t-55.5 58.5q-169 -146 -412 -146q-116 0 -210 34.5t-152 93t-89 132.5t-31 155zM321 432q0 -109 74.5 -183.5t194.5 -74.5q75 0 137.5 27t107.5 72q-115 118 -366 406q-148 -105 -148 -247zM473 1140 q0 -43 14 -84.5t36 -76t57 -74.5q49 32 83 58t60.5 56.5t39 63t12.5 69.5q0 66 -38 116t-109 50q-72 0 -113.5 -52.5t-41.5 -125.5z" />
<glyph unicode="'" horiz-adv-x="429" d="M91 1502h245l-43 -558h-158z" />
<glyph unicode="(" horiz-adv-x="652" d="M135 621q2 517 265 883h193q-243 -361 -243 -883q0 -507 243 -878h-193q-52 72 -95.5 154t-84 191t-63 246t-22.5 287z" />
<glyph unicode=")" horiz-adv-x="652" d="M60 -257q244 369 244 882q0 507 -244 879h194q264 -359 264 -879q-2 -517 -264 -882h-194z" />
<glyph unicode="*" horiz-adv-x="947" d="M65 986v186l330 -56v4l-217 272l165 95l128 -319h5l127 321l163 -95l-221 -274v-4l339 56v-186l-341 52v-7l223 -265l-167 -95l-128 321l-5 -2l-130 -321l-158 97l220 268v6z" />
<glyph unicode="+" horiz-adv-x="1293" d="M87 495v170h471v490h180v-490h471v-170h-471v-495h-180v495h-471z" />
<glyph unicode="," horiz-adv-x="511" d="M17 -263q44 126 84.5 283.5t61.5 290.5l280 21q-48 -157 -114.5 -316t-129.5 -261z" />
<glyph unicode="-" horiz-adv-x="683" d="M65 487v184h554v-184h-554z" />
<glyph unicode="." horiz-adv-x="511" d="M110 147q0 75 47 123.5t119 48.5q73 0 119 -47.5t46 -124.5q0 -48 -20.5 -87t-59 -61.5t-88.5 -22.5q-71 0 -117 49t-46 122z" />
<glyph unicode="/" horiz-adv-x="731" d="M19 -85l528 1574h187l-529 -1574h-186z" />
<glyph unicode="0" d="M74 702q0 221 60 385.5t177 256t279 91.5q101 0 183 -35t140.5 -98.5t98.5 -153t59 -198t19 -233.5q0 -230 -58 -395t-175 -255.5t-284 -90.5q-158 0 -271.5 92t-170 254.5t-57.5 379.5zM343 704q0 -255 64 -389.5t175 -134.5q79 0 132.5 62.5t79.5 180t26 287.5 q0 166 -25 281t-78.5 177.5t-132.5 62.5q-109 0 -175 -135.5t-66 -391.5z" />
<glyph unicode="1" d="M205 1241l344 170h222v-1411h-259v1170h-4l-258 -130z" />
<glyph unicode="2" d="M93 0v163l168 154q90 84 152 144t121.5 123t96 111.5t65.5 98.5t42 95.5t14 92.5q0 49 -14 90t-43 74.5t-79 52.5t-117 19q-145 0 -302 -118l-77 190q81 66 193.5 105.5t239.5 39.5q114 0 204.5 -34t146.5 -93.5t85.5 -136t29.5 -164.5q0 -72 -21.5 -143.5t-56.5 -134.5 t-92.5 -133t-116 -129.5t-139.5 -134.5l-122 -106v-4h577v-222h-955z" />
<glyph unicode="3" d="M87 74l60 202q52 -32 141.5 -59.5t180.5 -27.5q73 0 130 19.5t89.5 52t49 71.5t16.5 82q0 61 -27 108t-73 75t-102 42t-120 14h-121v196h121q49 0 96 11.5t88.5 33.5t67.5 61t26 89q0 78 -57 128t-169 50q-79 0 -158.5 -27t-130.5 -62l-60 193q66 45 177 77t229 32 q106 0 191.5 -28t139 -76t82 -109.5t28.5 -131.5q0 -56 -16.5 -105.5t-49 -92t-82 -76.5t-113.5 -56v-4q134 -26 221.5 -120t88.5 -232q0 -72 -23 -136.5t-69.5 -117.5t-111.5 -92t-153.5 -60.5t-191.5 -21.5q-120 0 -226 28.5t-169 69.5z" />
<glyph unicode="4" d="M41 358v174l578 879h315v-851h182v-202h-182v-358h-252v358h-641zM298 560h384v384q0 76 8 245h-8q-61 -123 -124 -238l-260 -387v-4z" />
<glyph unicode="5" d="M91 58l54 203q53 -29 138 -51.5t173 -22.5q80 0 148.5 28t113 88t44.5 140q0 62 -23.5 111t-71 84.5t-124.5 54.5t-180 19q-76 0 -193 -13l91 712h731v-222h-543l-41 -282q46 7 100 7q207 0 343 -91q84 -54 134.5 -145t50.5 -214q0 -100 -41 -189.5t-114 -155.5 t-180.5 -104.5t-234.5 -38.5q-115 0 -214 24t-161 58z" />
<glyph unicode="6" d="M70 586q0 198 65.5 360t179.5 270q191 185 501 208q77 11 135 7v-211q-58 3 -135 -6q-108 -13 -194 -51t-141.5 -94.5t-89.5 -123t-48 -142.5h7q119 137 317 137q91 0 169.5 -32t137 -90t91.5 -145.5t33 -192.5q0 -80 -22.5 -155.5t-66 -138.5t-103.5 -110t-138.5 -73.5 t-166.5 -26.5q-126 0 -227.5 46t-167.5 128t-101 193t-35 243zM334 514q2 -96 31 -170.5t90 -121t146 -46.5q102 0 164 80t62 208q0 127 -65 203.5t-180 76.5q-74 0 -136.5 -40t-93.5 -105q-18 -36 -18 -85z" />
<glyph unicode="7" d="M116 1189v222h948v-172l-598 -1239h-279l594 1185v4h-665z" />
<glyph unicode="8" d="M74 365q0 248 264 364v7q-107 52 -160.5 134t-53.5 178q0 113 62 202t169 137t240 48q89 0 163 -20.5t125 -54.5t86.5 -80.5t52 -97t16.5 -103.5q0 -95 -54 -179.5t-164 -139.5v-6q122 -46 196 -138t74 -218q0 -125 -65.5 -221t-182.5 -148.5t-266 -52.5 q-120 0 -217 32.5t-158 87.5t-94 124t-33 145zM348 395q-1 -30 5.5 -59t20 -54.5t34.5 -47t47 -36.5t59 -24t70 -9q105 0 169.5 59t64.5 151q0 103 -68 167t-195 98q-98 -27 -152.5 -92t-54.5 -153zM377 1059q0 -157 230 -221q77 23 126.5 79.5t49.5 132.5q0 25 -5 49 t-15 46.5t-26.5 41.5t-38.5 33.5t-51.5 22.5t-64.5 8q-97 0 -151 -55.5t-54 -136.5z" />
<glyph unicode="9" d="M76 932q0 101 38 193t103.5 160.5t161 109t205.5 40.5q121 0 217.5 -45t158.5 -126t95 -190.5t33 -240.5q0 -423 -245 -657q-92 -84 -215.5 -133.5t-267.5 -59.5q-79 -8 -161 -4v212q55 -6 149 4q166 13 286 109q143 114 182 315h-4q-114 -124 -308 -124q-91 0 -170 32 t-136 88.5t-89.5 138.5t-32.5 178zM341 947q0 -113 62.5 -186t169.5 -73q77 0 136 32.5t92 85.5q15 33 15 78q0 74 -14 136t-42.5 111.5t-77 77.5t-111.5 28q-101 0 -165.5 -81t-64.5 -209z" />
<glyph unicode=":" horiz-adv-x="511" d="M110 145q0 50 21 89t59 61t86 22q73 0 118 -47.5t45 -124.5q0 -73 -46.5 -121t-121.5 -48q-69 0 -115 48.5t-46 120.5zM110 877q0 75 46.5 123t119.5 48t118 -47.5t45 -123.5q0 -73 -46.5 -121t-121.5 -48q-45 0 -82 22t-58 60.5t-21 86.5z" />
<glyph unicode=";" horiz-adv-x="511" d="M19 -263q45 126 85 283.5t61 290.5l278 21q-48 -157 -114.5 -316t-129.5 -261zM126 877q0 75 46 123t118 48q49 0 86 -21.5t57.5 -60.5t20.5 -89q0 -73 -46.5 -121t-121.5 -48q-69 0 -114.5 48.5t-45.5 120.5z" />
<glyph unicode="&#x3c;" horiz-adv-x="1293" d="M132 499v156l1028 500v-196l-817 -379v-4l817 -381v-195z" />
<glyph unicode="=" horiz-adv-x="1293" d="M87 278v169h1120v-169h-1120zM87 717v169h1120v-169h-1120z" />
<glyph unicode="&#x3e;" horiz-adv-x="1293" d="M132 0v193l829 383v4l-829 381v194l1030 -495v-165z" />
<glyph unicode="?" horiz-adv-x="928" d="M106 1400q62 40 152 64.5t189 24.5q98 0 175 -26.5t123.5 -73t71 -105t24.5 -124.5q0 -46 -12 -91t-26.5 -77.5t-44.5 -74t-49 -64.5t-56 -65q-64 -74 -91 -144t-24 -149v-48h-236l-2 57q-17 180 130 356q28 33 46.5 57t38 52.5t30 51.5t17.5 49t7 50q0 71 -45.5 112 t-134.5 42q-59 0 -118.5 -17t-98.5 -48zM250 145q0 49 21 88t58.5 60.5t84.5 21.5q73 0 118.5 -47.5t47.5 -122.5q0 -73 -46.5 -121t-121.5 -48q-46 0 -83.5 22t-58 61t-20.5 86z" />
<glyph unicode="@" horiz-adv-x="1638" d="M102 456q0 133 36.5 257t106.5 228t166.5 181.5t224 121t269.5 43.5q140 0 260.5 -47.5t204.5 -130t132 -199.5t48 -252q0 -117 -31.5 -215t-86 -163.5t-127.5 -102t-155 -36.5q-75 0 -123.5 45t-51.5 133h-7q-109 -178 -293 -178q-67 0 -121 33t-85.5 97t-31.5 150 q0 100 37 192t102.5 162.5t162 112.5t208.5 42q46 0 93.5 -7t86.5 -18.5t67 -25.5l-67 -397q-39 -210 58 -213q31 -1 62 13.5t60 46t51 76t35.5 108t13.5 136.5q0 112 -34.5 206.5t-99.5 164.5t-165 109t-224 39q-128 0 -243.5 -49.5t-202 -138t-137.5 -220.5t-51 -287 q0 -108 26.5 -200.5t76 -161.5t117.5 -118t152.5 -74t180.5 -25q185 0 324 71l37 -110q-93 -45 -186 -64t-207 -19q-108 0 -207.5 30t-183 89t-146 141t-97.5 191t-35 233zM621 439q0 -69 32 -109t94 -40q73 0 137.5 79t81.5 178l37 224q-38 12 -85 12q-81 0 -149.5 -47 t-108 -126t-39.5 -171z" />
<glyph unicode="A" horiz-adv-x="1380" d="M46 0l468 1463h341l475 -1463h-288l-133 414h-462l-126 -414h-275zM491 617h375l-114 360q-27 82 -75 274h-4q-55 -221 -70 -274z" />
<glyph unicode="B" horiz-adv-x="1249" d="M154 4v1438q68 13 175.5 22.5t215.5 9.5q147 0 245.5 -21.5t170.5 -71.5q71 -42 112 -113.5t41 -162.5q0 -104 -63.5 -188t-180.5 -127v-7q60 -15 112 -45t93.5 -74t66 -106.5t24.5 -134.5q0 -182 -139 -303q-157 -135 -545 -135q-171 0 -328 19zM419 193q35 -6 141 -6 q67 0 123.5 13t103 40.5t73 76t26.5 113.5q0 63 -26 110t-72.5 75t-106 42t-130.5 14h-132v-478zM419 864h136q137 0 213.5 58t76.5 153q0 101 -71.5 151t-202.5 50q-105 0 -152 -10v-402z" />
<glyph unicode="C" horiz-adv-x="1276" d="M76 714q0 178 59.5 324t164.5 244t248.5 151.5t311.5 53.5q82 0 157 -11t120.5 -25t76.5 -30l-56 -212q-128 57 -288 57q-112 0 -205.5 -35.5t-162 -102t-106.5 -169t-38 -232.5q0 -244 135 -386t375 -142q52 0 106.5 7t101.5 19t84 27l43 -211q-53 -26 -155 -45.5 t-225 -19.5q-230 0 -399 91t-258.5 258t-89.5 389z" />
<glyph unicode="D" horiz-adv-x="1481" d="M154 4v1440q217 30 426 30q202 0 347 -42t247 -127q230 -186 230 -539q0 -191 -59.5 -337t-167.5 -245q-108 -98 -278 -148.5t-385 -50.5q-200 0 -360 19zM421 201q37 -6 148 -6h5q172 0 294 62q124 63 189.5 190t65.5 315q-1 238 -135 370q-136 134 -385 134 q-114 0 -182 -15v-1050z" />
<glyph unicode="E" horiz-adv-x="1117" d="M154 0v1463h851v-219h-584v-378h552v-217h-552v-430h617v-219h-884z" />
<glyph unicode="F" horiz-adv-x="1104" d="M154 0v1463h847v-219h-580v-403h538v-218h-538v-623h-267z" />
<glyph unicode="G" horiz-adv-x="1444" d="M78 719q1 172 60.5 314t166 240t257 152t331.5 54q85 0 165 -11t133 -26t89 -33l-58 -215q-138 63 -332 63q-117 0 -214.5 -34.5t-168.5 -100t-110 -165.5t-39 -226q0 -122 37 -222t103 -167.5t160 -104t208 -36.5q135 0 202 29v367h-258v211h516v-741q-85 -32 -211 -57 t-257 -25q-372 0 -576 195q-98 93 -151 233t-53 306z" />
<glyph unicode="H" horiz-adv-x="1458" d="M154 0v1463h267v-586h619v586h267v-1463h-267v644h-619v-644h-267z" />
<glyph unicode="I" horiz-adv-x="572" d="M154 0v1463h267v-1463h-267z" />
<glyph unicode="J" horiz-adv-x="850" d="M2 11l33 215q78 -27 164 -27q60 0 103 15.5t76.5 51.5t50 100t16.5 158v939h267v-949q0 -119 -23 -211t-64 -153.5t-102.5 -100.5t-133.5 -56t-161 -17q-58 0 -120 9.5t-106 25.5z" />
<glyph unicode="K" horiz-adv-x="1262" d="M154 0v1463h265v-673h6q36 57 107 159l384 514h328l-504 -622l536 -841h-312l-413 671l-132 -157v-514h-265z" />
<glyph unicode="L" horiz-adv-x="1069" d="M154 0v1463h267v-1239h602v-224h-869z" />
<glyph unicode="M" horiz-adv-x="1794" d="M118 0l97 1463h352l191 -589q77 -255 135 -507h6q66 268 145 510l203 586h346l85 -1463h-261l-27 597q-18 402 -18 581v34h-7q-73 -275 -174 -561l-214 -634h-204l-195 625q-87 290 -148 570h-5q-13 -389 -25 -624l-33 -588h-249z" />
<glyph unicode="N" horiz-adv-x="1467" d="M152 0v1463h306l377 -628q158 -270 250 -489h5q-24 238 -24 607v510h247v-1463h-277l-383 644q-163 282 -260 504l-9 -2q16 -283 16 -622v-524h-248z" />
<glyph unicode="O" horiz-adv-x="1527" d="M78 721q0 167 51.5 310t142.5 243.5t220.5 157.5t282.5 57q156 0 284.5 -57t214 -157t132 -235.5t46.5 -292.5q0 -180 -52.5 -326.5t-146 -243.5t-221.5 -149t-278 -52q-153 0 -280.5 56.5t-213.5 155.5t-134 236t-48 297zM360 727q0 -151 47.5 -271.5t141 -192.5 t217.5 -72q64 0 120 19t100 54.5t79 85t58 110.5t35 131t12 147q0 69 -11.5 135t-33.5 126t-56.5 110t-78.5 87t-101 57.5t-123 20.5q-96 0 -174 -43t-128 -117.5t-77 -173.5t-27 -213z" />
<glyph unicode="P" horiz-adv-x="1212" d="M154 0v1444q176 30 408 30q288 0 430 -119q67 -56 105 -139.5t38 -184.5q0 -209 -124 -329q-80 -79 -199 -119t-263 -40q-84 0 -130 10v-553h-265zM419 764q42 -12 130 -12q150 0 235.5 71t85.5 198q0 80 -36 136t-102 83.5t-159 27.5q-97 0 -154 -13v-491z" />
<glyph unicode="Q" horiz-adv-x="1527" d="M78 719q0 168 51 311t141.5 244.5t221 158t285.5 56.5t283.5 -57t213.5 -157t131.5 -235t46.5 -291q0 -128 -28.5 -240.5t-79.5 -196.5t-119 -144.5t-150 -93.5v-9q175 -49 386 -86l-76 -213q-297 82 -571 188q-43 18 -95 22q-86 4 -165.5 28t-151 66t-130.5 105.5 t-102.5 142.5t-67.5 181.5t-24 219.5zM360 727q0 -110 28 -207t79 -170.5t128.5 -116t170.5 -42.5q125 0 218 72.5t139.5 195.5t46.5 279q0 60 -8 117t-25 110.5t-41.5 100t-58 85t-73.5 66t-90 42.5t-106 15q-78 0 -144.5 -28.5t-114.5 -79.5t-82 -120t-50.5 -149.5 t-16.5 -169.5z" />
<glyph unicode="R" horiz-adv-x="1234" d="M154 0v1442q175 32 404 32q106 0 188.5 -12t147.5 -38t115 -67q61 -51 93.5 -126.5t32.5 -169.5q0 -68 -22 -129t-59.5 -106.5t-84.5 -78t-101 -51.5v-6q148 -55 205 -282q11 -42 27 -105t26 -102.5t22 -83t21.5 -72.5t17.5 -45h-273q-42 85 -98 346q-32 141 -90 196.5 t-173 58.5h-134v-601h-265zM419 797h159q134 0 212 65.5t78 175.5q0 116 -75 175t-209 59q-112 0 -165 -13v-462z" />
<glyph unicode="S" horiz-adv-x="1125" d="M89 70l60 220q69 -40 163 -66.5t192 -26.5q83 0 143 25.5t90.5 70t30.5 105.5q0 55 -26.5 97t-82 76.5t-149.5 68.5t-165 74.5t-124.5 92t-81 117t-27.5 142.5q0 72 23.5 136.5t68 116t107 89.5t145 58.5t176.5 20.5q205 0 350 -74l-64 -215q-132 70 -293 70 q-61 0 -108.5 -15t-76 -40.5t-42.5 -56t-14 -64.5q0 -42 15.5 -74t52.5 -60.5t85.5 -52t127.5 -54.5q193 -72 284 -175t91 -259q0 -91 -34.5 -169.5t-101 -140t-174 -96.5t-243.5 -35q-113 0 -224 27.5t-174 66.5z" />
<glyph unicode="T" horiz-adv-x="1139" d="M17 1239v224h1106v-224h-421v-1239h-267v1239h-418z" />
<glyph unicode="U" horiz-adv-x="1444" d="M152 625v838h267v-853q0 -209 80 -314t220 -105q148 0 228 104t80 315v853h267v-835q0 -167 -41.5 -292.5t-119 -204t-183.5 -117t-240 -38.5q-129 0 -230 37t-175.5 114.5t-113.5 203t-39 294.5z" />
<glyph unicode="V" horiz-adv-x="1303" d="M15 1463h291l200 -666q102 -335 143 -532h4q42 186 150 530l212 668h286l-506 -1463h-306z" />
<glyph unicode="W" horiz-adv-x="1885" d="M33 1463h284l139 -664q49 -238 95 -511h4q7 44 15.5 90t22 109t20 93.5t26 116.5t23.5 104l158 662h280l147 -673q68 -342 89 -494h4q33 204 99 507l152 660h271l-395 -1463h-284l-152 688q-58 266 -82 464h-5q-38 -243 -95 -464l-170 -688h-288z" />
<glyph unicode="X" horiz-adv-x="1288" d="M43 0l435 740l-420 723h309l159 -301q59 -113 118 -246h7q54 127 115 246l156 301h307l-428 -714l446 -749h-311l-157 290q-70 126 -147 277h-4q-43 -104 -133 -277l-145 -290h-307z" />
<glyph unicode="Y" horiz-adv-x="1247" d="M24 1463h306l174 -375q77 -169 128 -291h4q41 109 126 291l176 375h301l-485 -846v-617h-267v610z" />
<glyph unicode="Z" horiz-adv-x="1228" d="M56 0v147l747 1088v6h-681v222h1028v-156l-738 -1079v-6h750v-222h-1106z" />
<glyph unicode="[" horiz-adv-x="652" d="M161 -243v1732h423v-153h-226v-1425h226v-154h-423z" />
<glyph unicode="\" horiz-adv-x="727" d="M15 1489h186l509 -1574h-186z" />
<glyph unicode="]" horiz-adv-x="652" d="M67 -89h226v1425h-226v153h424v-1732h-424v154z" />
<glyph unicode="^" horiz-adv-x="1293" d="M110 395l452 1016h172l451 -1016h-197l-339 806h-5l-338 -806h-196z" />
<glyph unicode="_" horiz-adv-x="1085" d="M0 -163h1085v-108h-1085v108z" />
<glyph unicode="`" horiz-adv-x="650" d="M26 1516h260l190 -322h-186z" />
<glyph unicode="a" horiz-adv-x="1102" d="M70 290q0 198 164 300q161 101 451 100h11v18q0 24 -4 46.5t-17.5 48.5t-36 45t-62.5 32t-94 13q-50 0 -103 -10.5t-99.5 -28t-82.5 -40.5l-52 174q66 40 166 66.5t217 26.5q98 0 174.5 -24.5t125 -65.5t79.5 -99.5t44 -121.5t13 -136v-380q0 -162 18 -254h-242l-19 118 h-7q-31 -43 -77 -74t-107 -49.5t-128 -18.5q-78 0 -142 26t-104.5 70.5t-63 100.5t-22.5 117zM334 319q0 -74 42.5 -113t110.5 -39q77 0 132.5 42t76.5 104q8 22 8 58v145h-14q-356 0 -356 -197z" />
<glyph unicode="b" horiz-adv-x="1269" d="M135 0q8 144 8 298v1243h267v-629h4q51 79 137.5 124t202.5 45q128 0 228.5 -66.5t156.5 -188.5q55 -120 55 -275v-6q0 -80 -14 -151t-39.5 -128t-60.5 -104.5t-77 -81.5t-89.5 -57.5t-97.5 -35t-102 -11.5q-227 0 -335 183h-4l-12 -159h-228zM410 437q0 -35 7 -64 q14 -54 47.5 -96t82.5 -66t106 -24q125 0 197 93t72 254q0 96 -29 171t-90.5 121t-147.5 46q-82 0 -148.5 -53.5t-87.5 -141.5q-9 -38 -9 -70v-170z" />
<glyph unicode="c" horiz-adv-x="974" d="M76 518q0 95 25.5 180.5t75.5 155t120 120.5t164 79t204 28q70 0 140 -13.5t117 -33.5l-48 -203q-84 41 -201 41q-100 0 -174.5 -45.5t-112.5 -122.5q-37 -75 -36 -169v-5q0 -80 25 -145t68.5 -107.5t102.5 -65.5t127 -23q110 0 211 41l36 -197q-30 -14 -72.5 -26 t-103 -20t-123.5 -8q-247 0 -396 147t-149 392z" />
<glyph unicode="d" horiz-adv-x="1260" d="M76 516q0 129 37.5 237t103 179t151 110t181.5 39q105 0 183 -37.5t115 -99.5h4v597h267v-1243q0 -154 9 -298h-237l-13 167h-5q-31 -58 -82 -101.5t-118 -66.5t-142 -23q-95 0 -178 39t-144 108.5t-96.5 171.5t-35.5 221zM348 528q0 -98 30.5 -174t91 -119.5 t143.5 -43.5q82 0 146 51.5t84 136.5q8 33 8 79v159q0 39 -6 71q-13 52 -43 93.5t-79 67t-108 25.5q-84 0 -145 -46t-91.5 -123.5t-30.5 -176.5z" />
<glyph unicode="e" horiz-adv-x="1119" d="M76 512q0 89 21 171.5t64 155t103.5 126.5t145 85t183.5 31t178.5 -31.5t130 -82.5t84.5 -119t48 -138t14 -143q0 -65 -8 -113h-708q2 -70 29 -123.5t72.5 -85.5t102 -48.5t122.5 -16.5q155 0 293 48l39 -182q-155 -67 -369 -67q-255 0 -400 144t-145 389zM332 640h465 v10q-1 26 -5 54q-6 32 -20.5 68.5t-38.5 63.5t-64 45t-91 18q-48 0 -88 -16.5t-67.5 -43t-47 -61.5t-30 -69t-13.5 -69z" />
<glyph unicode="f" horiz-adv-x="692" d="M31 858v199h143v45q0 71 12.5 135t42 124t73.5 102q38 36 85.5 59.5t94.5 33.5t96 10q83 0 169 -27l-18 -207q-58 21 -114 21q-48 0 -83 -19t-55 -53t-29 -76t-9 -93v-55h230v-199h-228v-858h-267v858h-143z" />
<glyph unicode="g" horiz-adv-x="1243" d="M76 524q0 126 39 232.5t105.5 177t153 109t181.5 38.5q78 0 141 -24t101 -59t65 -82h4l11 141h233q-10 -162 -10 -303v-600q0 -170 -37 -288t-119 -191q-142 -129 -408 -129q-102 0 -201.5 22.5t-167.5 62.5l59 202q57 -34 138 -57t170 -23q67 0 121.5 18t96 55.5t64 100 t22.5 145.5v91h-5q-31 -47 -75 -82t-103.5 -55t-128.5 -20q-130 0 -232.5 66.5t-160 184.5t-57.5 267zM348 532q0 -68 17 -127t48.5 -103t81 -69.5t110.5 -25.5q75 0 135 44.5t83 117.5q10 33 10 93v172q0 44 -8 72q-23 76 -79.5 123.5t-138.5 47.5q-114 0 -186.5 -93 t-72.5 -252z" />
<glyph unicode="h" horiz-adv-x="1241" d="M143 0v1541h267v-627h4q51 76 133 120q84 47 184 47q57 0 108.5 -14.5t99.5 -49.5t83.5 -86.5t56.5 -130.5t21 -177v-623h-267v595q0 58 -11.5 106t-35 85t-63.5 57.5t-93 20.5q-74 0 -129.5 -42.5t-79.5 -107.5q-11 -30 -11 -80v-634h-267z" />
<glyph unicode="i" horiz-adv-x="555" d="M128 1353q0 62 42 103.5t108 41.5q67 0 107.5 -41t41.5 -104q0 -61 -41.5 -102.5t-109.5 -41.5q-66 0 -107 41.5t-41 102.5zM143 0v1057h267v-1057h-267z" />
<glyph unicode="j" horiz-adv-x="585" d="M-91 -254q136 10 199 76q39 42 54.5 120.5t15.5 246.5v868h267v-945q0 -163 -33.5 -270.5t-105.5 -179.5q-65 -62 -164.5 -93t-206.5 -31zM163 1353q0 62 42 103.5t110 41.5q43 0 76.5 -19t51.5 -52t19 -74q0 -61 -41 -102.5t-110 -41.5q-67 0 -107.5 41.5t-40.5 102.5z " />
<glyph unicode="k" horiz-adv-x="1104" d="M143 0v1541h267v-948h4q52 80 83 124l259 340h321l-393 -432l447 -625h-328l-304 466l-89 -106v-360h-267z" />
<glyph unicode="l" horiz-adv-x="557" d="M143 0v1541h267v-1541h-267z" />
<glyph unicode="m" horiz-adv-x="1840" d="M135 1057h228l12 -156h7q20 35 47 64t66 56.5t94 43.5t119 16q103 0 180.5 -52.5t112.5 -142.5h4q54 85 128 133q92 62 217 62q55 0 104 -14.5t95 -49.5t79.5 -86.5t53.5 -130.5t20 -177v-623h-260v584q0 135 -47.5 207.5t-141.5 72.5q-65 0 -114.5 -40t-72.5 -101 q-13 -40 -13 -89v-634h-260v613q0 75 -19.5 130.5t-61.5 88t-102 32.5q-70 0 -120.5 -44t-72.5 -106q-13 -42 -13 -89v-625h-261v742q0 133 -8 315z" />
<glyph unicode="n" horiz-adv-x="1241" d="M135 1057h232l12 -158h8q19 33 49 63.5t71.5 58t98 44t119.5 16.5q31 0 61.5 -4.5t60.5 -14t57.5 -24.5t53 -36t47 -47.5t39.5 -61t30.5 -74t19 -88.5t6.5 -103v-628h-267v597q0 58 -11 105.5t-34.5 84.5t-63 57t-92.5 20q-75 0 -130.5 -45t-78.5 -111q-13 -32 -13 -85 v-623h-267v742q0 133 -8 315z" />
<glyph unicode="o" horiz-adv-x="1224" d="M76 522q0 170 70.5 298t194 194.5t282.5 66.5q156 0 275.5 -68.5t184.5 -191.5t65 -283q0 -113 -30.5 -207t-83 -159t-122 -110t-147 -65.5t-160.5 -20.5q-111 0 -208 37.5t-168 106.5t-112 172.5t-41 229.5zM352 528q0 -156 72 -257t191 -101q114 0 185.5 100.5 t71.5 261.5q0 51 -8.5 100.5t-28.5 96.5t-49 82t-72.5 56t-96.5 21q-68 0 -120.5 -31t-83 -83.5t-46 -114.5t-15.5 -131z" />
<glyph unicode="p" horiz-adv-x="1269" d="M135 1057h234l13 -162h5q122 186 362 186q91 0 172 -38t141.5 -107t96 -171t35.5 -222q0 -111 -27 -205t-73.5 -160t-108 -112.5t-130.5 -68t-143 -21.5q-97 0 -176.5 38.5t-121.5 103.5h-4v-548h-267v1136q0 152 -8 351zM410 443q0 -38 7 -74q14 -54 47.5 -96 t82.5 -66.5t106 -24.5q126 0 197.5 95.5t71.5 254.5q0 95 -29 170.5t-89 121.5t-144 46q-83 0 -151.5 -55t-89.5 -142q-9 -42 -9 -68v-162z" />
<glyph unicode="q" horiz-adv-x="1260" d="M76 512q0 112 27.5 207t74 161t107.5 112t128 67.5t136 21.5q72 0 132.5 -20.5t104 -56.5t72.5 -86l4 -2l6 141h259q-9 -191 -9 -305v-1182h-267v575h-4q-49 -79 -133 -124t-196 -45q-89 0 -169.5 38t-141 106t-96 169.5t-35.5 222.5zM348 526q0 -150 69 -244.5 t193 -94.5q80 0 142.5 48t85.5 128q13 36 13 82v176q0 36 -6 65q-19 78 -80.5 131t-147.5 53q-85 0 -146.5 -44.5t-92 -122t-30.5 -177.5z" />
<glyph unicode="r" horiz-adv-x="772" d="M135 1057h230l10 -199h7q25 71 72.5 122.5t103.5 76t115 24.5q31 0 63 -6v-250q-37 6 -81 6q-93 0 -156.5 -54.5t-81.5 -146.5q-7 -37 -7 -81v-549h-267v717q0 215 -8 340z" />
<glyph unicode="s" horiz-adv-x="905" d="M78 52l54 195q48 -30 125 -53.5t145 -23.5q85 0 127 31.5t42 86.5q0 19 -3.5 33.5t-12.5 28t-22 25t-33 23t-44.5 22.5t-57.5 23q-150 51 -221 130.5t-71 178.5q0 69 28.5 129.5t79.5 105t126.5 69.5t165.5 25q56 0 110.5 -8.5t96.5 -22t75 -31.5l-54 -188 q-40 24 -100.5 43t-123.5 19q-70 0 -108.5 -32t-38.5 -82q0 -48 39 -78t145 -69q145 -50 212.5 -127.5t69.5 -193.5q0 -149 -112.5 -240.5t-316.5 -91.5q-190 0 -322 73z" />
<glyph unicode="t" horiz-adv-x="761" d="M37 858v199h150v198l262 73v-271h255v-199h-255v-467q0 -101 31.5 -148.5t105.5 -47.5q62 0 104 12l4 -203q-75 -28 -193 -28q-73 0 -132.5 22.5t-97.5 64.5q-84 87 -84 297v498h-150z" />
<glyph unicode="u" horiz-adv-x="1234" d="M139 437v620h267v-575q0 -289 197 -289q76 0 129 42t76 101q15 30 15 83v638h267v-740q0 -143 8 -317h-232l-13 159h-6q-20 -32 -47 -60.5t-68 -58t-100 -47t-126 -17.5q-50 0 -94 10t-86 32t-75.5 59t-59 86.5t-39 119t-13.5 154.5z" />
<glyph unicode="v" horiz-adv-x="1102" d="M24 1057h289l171 -535q39 -117 71 -265h7q20 92 72 265l169 535h280l-404 -1057h-262z" />
<glyph unicode="w" horiz-adv-x="1624" d="M31 1057h273l108 -479q45 -188 70 -344h5q7 41 18.5 89.5t20 81.5t24 90t21.5 81l139 481h216l133 -469q50 -187 85 -354h4q15 115 70 354l118 469h261l-331 -1057h-247l-126 430q-45 151 -81 338h-4q-34 -179 -81 -338l-134 -430h-250z" />
<glyph unicode="x" horiz-adv-x="1071" d="M11 0l366 538l-353 519h297l126 -199q30 -48 96 -164h4q56 106 93 168l118 195h290l-354 -508l361 -549h-303l-129 211q-35 57 -95 171h-4q-14 -27 -30 -55.5t-36 -62t-31 -53.5l-121 -211h-295z" />
<glyph unicode="y" horiz-adv-x="1085" d="M17 1057h296l188 -566q38 -114 61 -205h7q38 150 56 207l165 564h285l-265 -721q-73 -199 -133 -329t-115.5 -212.5t-118.5 -137.5q-72 -62 -146.5 -94.5t-133.5 -40.5l-61 224q77 18 155 74q40 25 80 70t67 97q15 27 15 48q0 20 -13 52z" />
<glyph unicode="z" horiz-adv-x="976" d="M43 0v154l398 508q80 97 154 179v4h-512v212h837v-162l-386 -497q-104 -126 -157 -181v-4h557v-213h-891z" />
<glyph unicode="{" horiz-adv-x="652" d="M63 553v141q43 1 74.5 11t49.5 24.5t28.5 36t13.5 40.5t3 43q0 59 -13 176q-14 102 -14 176q0 146 85.5 217t237.5 71h60v-153h-39q-54 -1 -87.5 -22t-47.5 -57t-14 -91q0 -39 12 -139q13 -95 13 -155q2 -110 -41 -167t-130 -77v-5q87 -20 130 -78t41 -168 q0 -62 -12.5 -157.5t-12.5 -136.5q0 -84 35.5 -127t115.5 -45h37v-154h-62q-73 0 -129.5 16t-100.5 50t-67.5 92.5t-23.5 138.5q0 72 14 174q13 116 13 172q0 22 -3 40t-13.5 40t-28 37t-49.5 25.5t-75 10.5z" />
<glyph unicode="|" horiz-adv-x="570" d="M189 -543v2171h193v-2171h-193z" />
<glyph unicode="}" horiz-adv-x="652" d="M63 -89h37q80 2 116 45t36 127q0 33 -14 136q-12 96 -12 158q-1 75 19.5 125.5t57.5 79t95 41.5v5q-58 13 -95 40.5t-57.5 78t-19.5 125.5q0 60 12 155q14 108 14 139q0 55 -14.5 91t-48 57t-87.5 22h-39v153h61q152 0 237.5 -71t85.5 -217q0 -59 -12 -176 q-16 -109 -16 -176q0 -24 3 -43t13 -40.5t28 -36t50 -24.5t75 -11v-141q-169 -2 -169 -153q0 -63 16 -172q12 -117 12 -174q0 -80 -23.5 -138.5t-67.5 -92.5t-100.5 -50t-129.5 -16h-63v154z" />
<glyph unicode="~" horiz-adv-x="1293" d="M100 437q-3 184 74 276.5t208 92.5q69 0 130.5 -21.5t175.5 -78.5q91 -48 140.5 -68.5t93.5 -20.5q97 0 103 180h171q4 -101 -16.5 -175.5t-59.5 -117t-87.5 -62t-108.5 -19.5q-67 0 -132.5 23t-174.5 78q-6 3 -19 10q-43 23 -64 34t-51 24.5t-52.5 19t-43.5 5.5 q-52 0 -81.5 -42t-34.5 -138h-171z" />
<glyph unicode="&#xa1;" horiz-adv-x="544" d="M108 897q0 74 46.5 121.5t121.5 47.5q71 0 116 -48t45 -121q0 -49 -20.5 -87.5t-58.5 -60.5t-87 -22q-71 0 -117 48t-46 122zM132 -419l42 1005h201l39 -1005h-282z" />
<glyph unicode="&#xa2;" d="M154 710q0 135 51.5 248t152.5 190t237 101v212h178v-204q120 -3 219 -48l-48 -200q-85 46 -208 46q-141 0 -226 -94.5t-85 -239.5q0 -79 24.5 -142.5t66.5 -104.5t97.5 -63t120.5 -22q128 0 230 46l37 -194q-93 -48 -228 -57v-213h-178v218q-194 23 -319 159 q-59 66 -90.5 159t-31.5 203z" />
<glyph unicode="&#xa3;" d="M116 0v145q102 49 172 143t70 205q0 73 -8 114h-215v186h184q-19 131 -19 201q0 66 15.5 125.5t43.5 108t69 87.5t91.5 65.5t111 40.5t127.5 14q155 0 245 -52l-48 -202q-81 41 -187 41q-59 0 -102.5 -18.5t-68.5 -52t-36.5 -74.5t-11.5 -91q0 -94 24 -193h304v-186h-280 q4 -123 -15 -193q-30 -104 -126 -190v-5h610v-219h-950z" />
<glyph unicode="&#xa5;" d="M19 1411h287l185 -392q41 -90 89 -220h4l34.5 88t56.5 136l191 388h280l-378 -636h270v-133h-342v-147h342v-132h-342v-363h-251v363h-337v132h337v147h-337v133h269z" />
<glyph unicode="&#xa8;" horiz-adv-x="650" d="M-24 1355q0 57 39 95.5t97 38.5q55 0 92 -38t37 -96q0 -56 -37.5 -94.5t-95.5 -38.5q-56 0 -94 39t-38 94zM408 1355q0 57 38.5 95.5t96.5 38.5q56 0 93 -38t37 -96q0 -55 -37 -94t-93 -39h-5q-55 0 -92.5 39t-37.5 94z" />
<glyph unicode="&#xa9;" horiz-adv-x="1469" d="M72 738q0 136 52.5 259.5t141.5 213.5t213 143t261 53q135 0 257 -53t210 -143t139.5 -213.5t51.5 -259.5q0 -92 -23.5 -179.5t-65.5 -161.5t-103 -136t-133 -105t-158 -67t-177 -24q-137 0 -260.5 53t-212 143t-141 214.5t-52.5 262.5zM199 734q0 -116 42 -219.5 t113.5 -178.5t171 -118.5t210.5 -43.5q109 -1 208 43t170.5 119t113.5 179.5t42 220.5q0 115 -42 219t-113.5 179.5t-171 119.5t-209.5 44t-209 -44t-170.5 -119.5t-113.5 -180t-42 -220.5zM371 725q0 90 34.5 167t92 128t133.5 80t159 29q76 0 146 -18.5t93 -39.5l-28 -105 q-18 10 -45.5 20.5t-73.5 19.5t-92 9q-135 0 -209.5 -76.5t-74.5 -207.5q0 -82 33.5 -146.5t99.5 -102t154 -37.5q134 0 216 54l31 -97q-103 -70 -269 -70q-124 0 -216 52.5t-138 140.5t-46 200z" />
<glyph unicode="&#xab;" horiz-adv-x="963" d="M58 547l267 408h197l-272 -408l274 -406h-199zM452 547l267 408h195l-274 -408l274 -406h-195z" />
<glyph unicode="&#xad;" horiz-adv-x="683" d="M65 487v184h554v-184h-554z" />
<glyph unicode="&#xae;" horiz-adv-x="957" d="M102 1120q0 100 50.5 183.5t138.5 132.5t191 49q77 0 146.5 -29t119 -77.5t78.5 -116t29 -142.5q0 -101 -49 -186t-135.5 -133.5t-190.5 -48.5q-103 0 -190 48.5t-137.5 133.5t-50.5 186zM207 1118q0 -118 78.5 -200.5t194.5 -82.5q116 -1 194 82t78 201q0 121 -78 201.5 t-198 80.5q-114 0 -191.5 -81t-77.5 -201zM332 938v349q62 14 146 14q88 0 129 -29q37 -22 37 -74q0 -29 -20.5 -50.5t-54.5 -31.5v-4q51 -18 67 -89q13 -63 24 -85h-105q-9 12 -25 81q-5 27 -20.5 39.5t-45.5 12.5h-37v-133h-95zM430 1137h34q34 0 54 12t20 36 q0 15 -7.5 26t-23 16.5t-36.5 5.5q-10 0 -23.5 -1t-17.5 -1v-94z" />
<glyph unicode="&#xb4;" horiz-adv-x="650" d="M189 1194l188 322h261l-265 -322h-184z" />
<glyph unicode="&#xb8;" horiz-adv-x="650" d="M108 -398l39 108q64 -33 118 -33q37 0 61 14t24 46q0 72 -170 85l98 184h149l-62 -108q64 -8 108.5 -50t44.5 -105q0 -32 -9 -59.5t-26 -47t-39.5 -34.5t-50.5 -23.5t-58 -13t-64 -4.5q-98 0 -163 41z" />
<glyph unicode="&#xbb;" horiz-adv-x="963" d="M50 141l273 406l-273 408h193l269 -408l-269 -406h-193zM437 955h195l269 -408l-269 -406h-193l271 406z" />
<glyph unicode="&#xbf;" horiz-adv-x="928" d="M104 -118q0 46 11.5 91t26 77.5t44 74t49 65t55.5 64.5q65 74 92 145t24 150v46h234l4 -57q14 -181 -132 -356q-46 -54 -73.5 -93t-45.5 -83t-18 -84q0 -71 45.5 -112t134.5 -42q56 0 116 17.5t102 47.5l62 -191q-61 -39 -151 -64t-187 -25q-98 0 -174.5 26.5t-123.5 73 t-71 105t-24 124.5zM363 897q0 74 46.5 121.5t120.5 47.5q71 0 116.5 -48t45.5 -121q0 -74 -45 -122t-119 -48q-73 0 -119 48t-46 122z" />
<glyph unicode="&#xc0;" horiz-adv-x="1380" d="M46 0l468 1463h341l475 -1463h-288l-133 414h-462l-126 -414h-275zM338 1802h296l191 -259h-215zM491 617h375l-114 360q-27 82 -75 274h-4q-55 -221 -70 -274z" />
<glyph unicode="&#xc1;" horiz-adv-x="1380" d="M46 0l468 1463h341l475 -1463h-288l-133 414h-462l-126 -414h-275zM491 617h375l-114 360q-27 82 -75 274h-4q-55 -221 -70 -274zM551 1541l191 261h296l-272 -261h-215z" />
<glyph unicode="&#xc2;" horiz-adv-x="1380" d="M46 0l468 1463h341l475 -1463h-288l-133 414h-462l-126 -414h-275zM373 1541l220 259h202l224 -259h-201l-122 141h-4l-121 -141h-198zM491 617h375l-114 360q-27 82 -75 274h-4q-55 -221 -70 -274z" />
<glyph unicode="&#xc3;" horiz-adv-x="1380" d="M46 0l468 1463h341l475 -1463h-286l-132 414h-465l-126 -414h-275zM408 1552q-3 119 40 185.5t119 66.5q61 0 135 -43q3 -2 12 -7t12 -7t11 -6.5t11.5 -6l10.5 -4.5t11.5 -4.5t10 -3t10.5 -2.5t10 -1q19 0 30 7.5t18.5 27t10.5 54.5h128q6 -242 -161 -242q-67 0 -137 41 l-27 15t-26.5 14t-21 7.5t-22.5 3.5q-12 0 -21.5 -6.5t-16 -18.5t-11 -30t-6.5 -40h-130zM491 617h377l-116 360q-27 82 -75 274h-4q-55 -221 -70 -274z" />
<glyph unicode="&#xc4;" horiz-adv-x="1380" d="M46 0l468 1463h341l475 -1463h-288l-133 414h-462l-126 -414h-275zM354 1682q0 56 37.5 94.5t92.5 38.5q54 0 90 -38t36 -95q0 -54 -36 -92t-92 -38q-54 0 -91 38.5t-37 91.5zM491 617h375l-114 360q-27 82 -75 274h-4q-55 -221 -70 -274zM783 1682q0 56 37 94.5t94 38.5 q54 0 90 -38t36 -95q0 -54 -36.5 -92t-94.5 -38q-54 0 -90 38.5t-36 91.5z" />
<glyph unicode="&#xc5;" horiz-adv-x="1380" d="M46 0l468 1463h341l475 -1463h-288l-133 414h-462l-126 -414h-275zM454 1724q0 87 64 146.5t174 59.5q107 0 168.5 -58.5t61.5 -147.5q0 -86 -64 -144t-168 -58q-106 0 -171 58t-65 144zM491 617h375l-114 360q-27 82 -75 274h-4q-55 -221 -70 -274zM588 1724 q0 -41 28 -72.5t70 -31.5q46 0 74 30.5t28 75.5q0 22 -7.5 41.5t-20.5 34.5t-33 24t-43 9q-44 0 -70 -33.5t-26 -77.5z" />
<glyph unicode="&#xc6;" horiz-adv-x="1805" d="M2 0l642 1463h1026v-219h-609l46 -382h550v-218h-517l54 -425h547v-219h-777l-57 452h-436l-193 -452h-276zM553 667h324l-46 383q-19 148 -25 224h-9q-38 -112 -83 -221z" />
<glyph unicode="&#xc7;" horiz-adv-x="1284" d="M76 714q0 178 59.5 324t164.5 244t248.5 151.5t311.5 53.5q82 0 157 -11t120.5 -25t76.5 -30l-59 -212q-122 57 -285 57q-112 0 -205.5 -35.5t-162 -102t-106.5 -169t-38 -232.5q0 -244 134.5 -386t373.5 -142q79 0 158.5 15t135.5 38l43 -209q-50 -25 -145 -44t-215 -20 l-46 -81q66 -14 110 -58t44 -111q0 -41 -14 -74t-37 -54.5t-55 -36t-66 -20.5t-71 -6q-104 0 -172 39l40 119q47 -30 118 -30q37 0 61 15t24 46q0 68 -169 84l86 176q-291 36 -455.5 228.5t-164.5 498.5z" />
<glyph unicode="&#xc8;" horiz-adv-x="1117" d="M154 0v1463h851v-219h-584v-378h552v-217h-552v-430h617v-219h-884zM247 1802h296l191 -259h-216z" />
<glyph unicode="&#xc9;" horiz-adv-x="1117" d="M154 0v1463h851v-219h-584v-378h552v-217h-552v-430h617v-219h-884zM449 1541l191 261h296l-271 -261h-216z" />
<glyph unicode="&#xca;" horiz-adv-x="1117" d="M154 0v1463h851v-219h-584v-378h552v-217h-552v-430h617v-219h-884zM263 1541l219 259h202l223 -259h-199l-122 141h-4l-122 -141h-197z" />
<glyph unicode="&#xcb;" horiz-adv-x="1117" d="M154 0v1463h851v-219h-584v-378h552v-217h-552v-430h617v-219h-884zM230 1684q0 56 37.5 94.5t92.5 38.5t91 -38t36 -95q0 -53 -36.5 -91.5t-92.5 -38.5q-54 0 -91 38.5t-37 91.5zM660 1684q0 56 37 94.5t93 38.5q54 0 90 -38t36 -95q0 -53 -36 -91.5t-92 -38.5 q-55 0 -91.5 38.5t-36.5 91.5z" />
<glyph unicode="&#xcc;" horiz-adv-x="572" d="M-56 1802h294l192 -259h-215zM154 0v1463h267v-1463h-267z" />
<glyph unicode="&#xcd;" horiz-adv-x="572" d="M147 1541l191 261h296l-271 -261h-216zM154 0v1463h267v-1463h-267z" />
<glyph unicode="&#xce;" horiz-adv-x="572" d="M-35 1541l219 259h203l223 -259h-200l-122 141h-4l-121 -141h-198zM154 0v1463h267v-1463h-267z" />
<glyph unicode="&#xcf;" horiz-adv-x="572" d="M-56 1684q0 56 37.5 94.5t92.5 38.5q54 0 89.5 -37.5t35.5 -95.5q0 -54 -35.5 -92t-91.5 -38q-55 0 -91.5 38.5t-36.5 91.5zM154 0v1463h267v-1463h-267zM373 1684q0 28 10 52.5t27 42t41 28t53 10.5q54 0 90 -38t36 -95q0 -54 -36.5 -92t-94.5 -38q-36 0 -65 18 t-45 47.5t-16 64.5z" />
<glyph unicode="&#xd1;" horiz-adv-x="1467" d="M152 0v1463h306l377 -628q158 -270 250 -489h5q-24 238 -24 607v510h247v-1463h-277l-383 644q-163 282 -260 504l-9 -2q16 -283 16 -622v-524h-248zM452 1552q-4 119 39 185.5t119 66.5q36 0 65 -10.5t69 -32.5q3 -2 8 -5q16 -9 25 -14t22.5 -11t24.5 -9t21 -3 q18 0 29 7.5t18.5 27t10.5 54.5h128q7 -242 -161 -242q-65 0 -139 41q-7 4 -18 10t-17.5 10t-15 8t-15 6.5t-14.5 4t-15 1.5q-15 0 -26.5 -11t-18.5 -32.5t-9 -51.5h-130z" />
<glyph unicode="&#xd2;" horiz-adv-x="1527" d="M78 721q0 167 51.5 310t142.5 243.5t220.5 157.5t282.5 57q156 0 284.5 -57t214 -157t132 -235.5t46.5 -292.5q0 -180 -52.5 -326.5t-146 -243.5t-221.5 -149t-278 -52q-153 0 -280.5 56.5t-213.5 155.5t-134 236t-48 297zM360 727q0 -151 47.5 -271.5t141 -192.5 t217.5 -72q64 0 120 19t100 54.5t79 85t58 110.5t35 131t12 147q0 69 -11.5 135t-33.5 126t-56.5 110t-78.5 87t-101 57.5t-123 20.5q-96 0 -174 -43t-128 -117.5t-77 -173.5t-27 -213zM419 1806h295l191 -258h-215z" />
<glyph unicode="&#xd3;" horiz-adv-x="1527" d="M78 721q0 167 51.5 310t142.5 243.5t220.5 157.5t282.5 57q156 0 284.5 -57t214 -157t132 -235.5t46.5 -292.5q0 -180 -52.5 -326.5t-146 -243.5t-221.5 -149t-278 -52q-153 0 -280.5 56.5t-213.5 155.5t-134 236t-48 297zM360 727q0 -151 47.5 -271.5t141 -192.5 t217.5 -72q64 0 120 19t100 54.5t79 85t58 110.5t35 131t12 147q0 69 -11.5 135t-33.5 126t-56.5 110t-78.5 87t-101 57.5t-123 20.5q-96 0 -174 -43t-128 -117.5t-77 -173.5t-27 -213zM630 1545l190 261h296l-271 -261h-215z" />
<glyph unicode="&#xd4;" horiz-adv-x="1527" d="M78 721q0 167 51.5 310t142.5 243.5t220.5 157.5t282.5 57q156 0 284.5 -57t214 -157t132 -235.5t46.5 -292.5q0 -180 -52.5 -326.5t-146 -243.5t-221.5 -149t-278 -52q-153 0 -280.5 56.5t-213.5 155.5t-134 236t-48 297zM360 727q0 -151 47.5 -271.5t141 -192.5 t217.5 -72q64 0 120 19t100 54.5t79 85t58 110.5t35 131t12 147q0 69 -11.5 135t-33.5 126t-56.5 110t-78.5 87t-101 57.5t-123 20.5q-96 0 -174 -43t-128 -117.5t-77 -173.5t-27 -213zM443 1543l219 259h202l224 -259h-200l-122 141h-4l-122 -141h-197z" />
<glyph unicode="&#xd5;" horiz-adv-x="1527" d="M78 721q0 167 51.5 310t142.5 243.5t220.5 157.5t282.5 57q156 0 284.5 -57t214 -157t132 -235.5t46.5 -292.5q0 -180 -52.5 -326.5t-146 -243.5t-221.5 -149t-278 -52q-153 0 -280.5 56.5t-213.5 155.5t-134 236t-48 297zM360 727q0 -151 47.5 -271.5t141 -192.5 t217.5 -72q64 0 120 19t100 54.5t79 85t58 110.5t35 131t12 147q0 69 -11.5 135t-33.5 126t-56.5 110t-78.5 87t-101 57.5t-123 20.5q-96 0 -174 -43t-128 -117.5t-77 -173.5t-27 -213zM476 1554q-3 118 39.5 184t118.5 66q25 0 51 -6.5t41 -13.5t42 -21q4 -2 12.5 -7t12 -7 t11.5 -6.5t11.5 -6l10.5 -4.5t11.5 -4.5t10 -3t10.5 -2.5t10 -1q28 0 41 18.5t17 70.5h129q6 -242 -160 -242q-66 0 -139 41q-6 3 -18.5 10t-17.5 9.5t-14.5 7.5t-15.5 6.5t-14 3t-16 1.5q-23 0 -37.5 -24t-17.5 -69h-129z" />
<glyph unicode="&#xd6;" horiz-adv-x="1527" d="M78 721q0 167 51.5 310t142.5 243.5t220.5 157.5t282.5 57q156 0 284.5 -57t214 -157t132 -235.5t46.5 -292.5q0 -180 -52.5 -326.5t-146 -243.5t-221.5 -149t-278 -52q-153 0 -280.5 56.5t-213.5 155.5t-134 236t-48 297zM360 727q0 -151 47.5 -271.5t141 -192.5 t217.5 -72q64 0 120 19t100 54.5t79 85t58 110.5t35 131t12 147q0 69 -11.5 135t-33.5 126t-56.5 110t-78.5 87t-101 57.5t-123 20.5q-96 0 -174 -43t-128 -117.5t-77 -173.5t-27 -213zM421 1684q0 56 37.5 94.5t92.5 38.5q54 0 90 -38t36 -95q0 -53 -36 -91.5t-92 -38.5 q-55 0 -91.5 38.5t-36.5 91.5zM851 1684q0 57 37 95t94 38q54 0 89.5 -37.5t35.5 -95.5q0 -54 -36 -92t-94 -38q-54 0 -90 38.5t-36 91.5z" />
<glyph unicode="&#xd8;" horiz-adv-x="1527" d="M78 729q0 164 51.5 305.5t142.5 241.5t219.5 156.5t279.5 56.5q199 0 341 -97l123 176l155 -105l-126 -185q92 -100 140 -239t48 -297q0 -145 -34.5 -268.5t-97 -214.5t-148 -155t-188.5 -96t-218 -32q-187 0 -339 94l-131 -192l-149 118l129 186q-95 102 -146.5 242.5 t-51.5 304.5zM348 734q0 -172 77 -324h5l556 793q-96 75 -218 75q-99 0 -180 -43t-133 -117.5t-79.5 -173t-27.5 -210.5zM553 263q86 -76 213 -76q129 0 224.5 72.5t144 196.5t48.5 282q0 169 -71 308h-7z" />
<glyph unicode="&#xd9;" horiz-adv-x="1444" d="M152 625v838h267v-853q0 -209 80 -314t220 -105q148 0 228 104t80 315v853h267v-835q0 -167 -41.5 -292.5t-119 -204t-183.5 -117t-240 -38.5q-129 0 -230 37t-175.5 114.5t-113.5 203t-39 294.5zM387 1802h295l190 -259h-214z" />
<glyph unicode="&#xda;" horiz-adv-x="1444" d="M152 625v838h267v-853q0 -209 80 -314t220 -105q148 0 228 104t80 315v853h267v-835q0 -167 -41.5 -292.5t-119 -204t-183.5 -117t-240 -38.5q-129 0 -230 37t-175.5 114.5t-113.5 203t-39 294.5zM582 1541l191 261h295l-271 -261h-215z" />
<glyph unicode="&#xdb;" horiz-adv-x="1444" d="M152 625v838h267v-853q0 -209 80 -314t220 -105q148 0 228 104t80 315v853h267v-835q0 -167 -41.5 -292.5t-119 -204t-183.5 -117t-240 -38.5q-129 0 -230 37t-175.5 114.5t-113.5 203t-39 294.5zM419 1541l219 259h203l223 -259h-200l-122 141h-4l-121 -141h-198z" />
<glyph unicode="&#xdc;" horiz-adv-x="1444" d="M152 625v838h267v-853q0 -209 80 -314t220 -105q148 0 228 104t80 315v853h267v-835q0 -167 -41.5 -292.5t-119 -204t-183.5 -117t-240 -38.5q-129 0 -230 37t-175.5 114.5t-113.5 203t-39 294.5zM389 1684q0 56 37 94.5t92 38.5t90.5 -38t35.5 -95q0 -53 -36 -91.5 t-92 -38.5q-54 0 -90.5 38.5t-36.5 91.5zM818 1684q0 57 37 95t94 38q54 0 90 -38t36 -95q0 -54 -36.5 -92t-94.5 -38q-36 0 -65 18t-45 47.5t-16 64.5z" />
<glyph unicode="&#xdd;" horiz-adv-x="1247" d="M24 1463h306l174 -375q77 -169 128 -291h4q41 109 126 291l176 375h301l-485 -846v-617h-267v610zM501 1535l191 261h296l-271 -261h-216z" />
<glyph unicode="&#xdf;" horiz-adv-x="1249" d="M143 0v955q0 121 20 215t54.5 157.5t86.5 111.5q136 127 361 127q88 0 166.5 -27t136.5 -75.5t92 -122t34 -162.5q0 -52 -14 -100t-36 -78q-68 -31 -103.5 -72t-35.5 -88q0 -43 21 -79t68 -87q25 -25 36 -36.5t33.5 -37.5t33.5 -43t27.5 -45t24 -52.5t13.5 -56.5t6 -66 q0 -164 -110.5 -263t-303.5 -99q-140 0 -232 39l38 200q75 -35 165 -35q82 0 129 40.5t47 102.5q0 50 -22.5 90t-72.5 93q-32 31 -49 49t-43.5 51t-40 60t-24.5 64t-11 76q0 82 47 152t135 115q18 41 18 85q0 60 -23.5 105.5t-68 70.5t-104.5 25q-54 0 -95.5 -20.5 t-72.5 -64.5t-47.5 -119t-16.5 -180v-975h-267z" />
<glyph unicode="&#xe0;" horiz-adv-x="1102" d="M70 290q0 197 164.5 299.5t461.5 100.5v18q0 24 -4 46.5t-17.5 48.5t-36 45t-62.5 32t-94 13q-50 0 -103 -10.5t-99.5 -28t-82.5 -40.5l-52 174q66 40 166 66.5t217 26.5q98 0 174.5 -24.5t125 -65.5t79.5 -99.5t44 -121.5t13 -136v-380q0 -162 18 -254h-242l-19 118h-7 q-31 -43 -77 -74t-107 -49.5t-128 -18.5q-78 0 -142 26t-104.5 70.5t-63 100.5t-22.5 117zM213 1516h260l189 -322h-184zM334 319q0 -74 42.5 -113t110.5 -39q77 0 132.5 42t76.5 104q8 22 8 58v145q-370 4 -370 -197z" />
<glyph unicode="&#xe1;" horiz-adv-x="1102" d="M70 290q0 197 164.5 299.5t461.5 100.5v18q0 24 -4 46.5t-17.5 48.5t-36 45t-62.5 32t-94 13q-50 0 -103 -10.5t-99.5 -28t-82.5 -40.5l-52 174q66 40 166 66.5t217 26.5q98 0 174.5 -24.5t125 -65.5t79.5 -99.5t44 -121.5t13 -136v-380q0 -162 18 -254h-242l-19 118h-7 q-31 -43 -77 -74t-107 -49.5t-128 -18.5q-78 0 -142 26t-104.5 70.5t-63 100.5t-22.5 117zM334 319q0 -74 42.5 -113t110.5 -39q77 0 132.5 42t76.5 104q8 22 8 58v145q-370 4 -370 -197zM417 1194l188 322h261l-265 -322h-184z" />
<glyph unicode="&#xe2;" horiz-adv-x="1102" d="M70 290q0 197 164.5 299.5t461.5 100.5v18q0 24 -4 46.5t-17.5 48.5t-36 45t-62.5 32t-94 13q-50 0 -103 -10.5t-99.5 -28t-82.5 -40.5l-52 174q66 40 166 66.5t217 26.5q98 0 174.5 -24.5t125 -65.5t79.5 -99.5t44 -121.5t13 -136v-380q0 -162 18 -254h-242l-19 118h-7 q-31 -43 -77 -74t-107 -49.5t-128 -18.5q-78 0 -142 26t-104.5 70.5t-63 100.5t-22.5 117zM241 1194l211 322h180l213 -322h-185l-115 196h-4l-118 -196h-182zM334 319q0 -74 42.5 -113t110.5 -39q77 0 132.5 42t76.5 104q8 22 8 58v145q-370 4 -370 -197z" />
<glyph unicode="&#xe3;" horiz-adv-x="1102" d="M70 290q0 197 164.5 299.5t461.5 100.5v18q0 24 -4 46.5t-17.5 48.5t-36 45t-62.5 32t-94 13q-50 0 -103 -10.5t-99.5 -28t-82.5 -40.5l-52 174q66 40 166 66.5t217 26.5q98 0 174.5 -24.5t125 -65.5t79.5 -99.5t44 -121.5t13 -136v-380q0 -162 18 -254h-242l-19 118h-7 q-31 -43 -77 -74t-107 -49.5t-128 -18.5q-78 0 -142 26t-104.5 70.5t-63 100.5t-22.5 117zM247 1220q-5 122 40.5 190.5t124.5 68.5q34 0 64 -11.5t73 -34.5q6 -3 20 -11t20.5 -11.5t17 -8t19 -6.5t16.5 -2q13 0 22.5 4t16.5 14.5t11.5 29t6.5 45.5h130q6 -252 -164 -252 q-60 0 -141 45q-4 2 -10 6q-13 8 -19 11.5t-15.5 8.5t-15.5 7t-14 3.5t-15 1.5q-49 0 -56 -98h-132zM334 319q0 -74 42.5 -113t110.5 -39q77 0 132.5 42t76.5 104q8 22 8 58v145q-370 4 -370 -197z" />
<glyph unicode="&#xe4;" horiz-adv-x="1102" d="M70 290q0 197 164.5 299.5t461.5 100.5v18q0 24 -4 46.5t-17.5 48.5t-36 45t-62.5 32t-94 13q-50 0 -103 -10.5t-99.5 -28t-82.5 -40.5l-52 174q66 40 166 66.5t217 26.5q98 0 174.5 -24.5t125 -65.5t79.5 -99.5t44 -121.5t13 -136v-380q0 -162 18 -254h-242l-19 118h-7 q-31 -43 -77 -74t-107 -49.5t-128 -18.5q-78 0 -142 26t-104.5 70.5t-63 100.5t-22.5 117zM201 1355q0 57 39 95.5t98 38.5q55 0 91.5 -38t36.5 -96q0 -56 -37 -94.5t-95 -38.5q-37 0 -68 18t-48 48.5t-17 66.5zM334 319q0 -74 42.5 -113t110.5 -39q77 0 132.5 42t76.5 104 q8 22 8 58v145q-370 4 -370 -197zM634 1355q0 57 38.5 95.5t95.5 38.5q56 0 93.5 -38t37.5 -96q0 -55 -37 -94t-94 -39h-4q-55 0 -92.5 39t-37.5 94z" />
<glyph unicode="&#xe5;" horiz-adv-x="1102" d="M70 290q0 197 164.5 299.5t461.5 100.5v18q0 24 -4 46.5t-17.5 48.5t-36 45t-62.5 32t-94 13q-50 0 -103 -10.5t-99.5 -28t-82.5 -40.5l-52 174q66 40 166 66.5t217 26.5q98 0 174.5 -24.5t125 -65.5t79.5 -99.5t44 -121.5t13 -136v-380q0 -162 18 -254h-242l-19 118h-7 q-31 -43 -77 -74t-107 -49.5t-128 -18.5q-78 0 -142 26t-104.5 70.5t-63 100.5t-22.5 117zM315 1372q0 92 64 152.5t174 60.5q107 0 169.5 -59t62.5 -152q0 -90 -65 -148t-169 -58q-106 0 -171 58t-65 146zM334 319q0 -74 42.5 -113t110.5 -39q75 0 131.5 42.5t77.5 103.5 q8 22 8 58v145q-370 4 -370 -197zM447 1374q0 -43 28.5 -76.5t73.5 -33.5q32 0 56.5 15.5t37 40.5t12.5 55.5t-12.5 56.5t-37 41.5t-56.5 15.5q-46 0 -74 -34.5t-28 -80.5z" />
<glyph unicode="&#xe6;" horiz-adv-x="1714" d="M70 293q0 187 167 287.5t465 98.5v38q0 14 -4.5 33t-19.5 45t-38.5 47t-65.5 36t-96 15q-74 0 -150 -23.5t-129 -57.5l-54 172q70 41 165 69t189 28q259 0 346 -193h6q59 92 151.5 142.5t211.5 50.5q92 0 166.5 -32t122.5 -83t80.5 -119t46 -136t13.5 -138q0 -31 -6 -104 h-686q0 -138 85 -215.5t223 -77.5q93 0 159.5 15t131.5 43l41 -182q-149 -76 -369 -76q-136 0 -245 54.5t-157 153.5h-6q-59 -98 -159.5 -153t-235.5 -55q-82 0 -149.5 25.5t-110.5 69.5t-66 101t-23 121zM332 313q0 -68 45 -107t112 -39q78 0 131 40t76 101q12 30 12 71 v131q-42 0 -80.5 -2t-76.5 -8.5t-70 -16.5t-60 -25.5t-47.5 -35.5t-30.5 -48t-11 -61zM949 653h445q0 19 -2 40.5t-9 46t-17 47t-27 43.5t-38.5 36.5t-52 25t-65.5 9.5q-46 0 -85.5 -16.5t-65.5 -42.5t-45 -59.5t-28 -66t-10 -63.5z" />
<glyph unicode="&#xe7;" horiz-adv-x="974" d="M76 518q0 95 25.5 180.5t75.5 155t120 120.5t164 79t204 28q70 0 139 -13.5t118 -33.5l-48 -203q-84 41 -203 41q-74 0 -135 -26t-102 -72t-63 -109t-21 -135q0 -80 25 -145t68.5 -107.5t102.5 -65.5t127 -23q110 0 211 41l36 -197q-41 -21 -109 -37t-151 -17l-45 -81 q66 -14 111 -57t45 -110q0 -52 -21 -90.5t-56.5 -60t-77.5 -32t-90 -10.5q-103 0 -168 39l37 119q51 -30 119 -30q85 0 85 61q0 36 -41.5 56t-127.5 28l86 176q-202 28 -321 170.5t-119 360.5z" />
<glyph unicode="&#xe8;" horiz-adv-x="1119" d="M76 512q0 89 21 171.5t64 155t103.5 126.5t145 85t183.5 31t178.5 -31.5t130 -82.5t84.5 -119t48 -138t14 -143q0 -65 -8 -113h-708q2 -70 29 -123.5t72.5 -85.5t102 -48.5t122.5 -16.5q155 0 293 48l39 -182q-155 -67 -369 -67q-255 0 -400 144t-145 389zM276 1516h260 l189 -322h-184zM332 640h465q1 32 -4.5 64.5t-20.5 68.5t-39 63t-64 45t-91 18q-48 0 -88 -16.5t-67.5 -43t-47 -61.5t-30 -69t-13.5 -69z" />
<glyph unicode="&#xe9;" horiz-adv-x="1119" d="M76 512q0 89 21 171.5t64 155t103.5 126.5t145 85t183.5 31t178.5 -31.5t130 -82.5t84.5 -119t48 -138t14 -143q0 -65 -8 -113h-708q2 -70 29 -123.5t72.5 -85.5t102 -48.5t122.5 -16.5q155 0 293 48l39 -182q-155 -67 -369 -67q-255 0 -400 144t-145 389zM332 640h465 q1 32 -4.5 64.5t-20.5 68.5t-39 63t-64 45t-91 18q-48 0 -88 -16.5t-67.5 -43t-47 -61.5t-30 -69t-13.5 -69zM466 1194l189 322h261l-265 -322h-185z" />
<glyph unicode="&#xea;" horiz-adv-x="1119" d="M76 512q0 89 21 171.5t64 155t103.5 126.5t145 85t183.5 31t178.5 -31.5t130 -82.5t84.5 -119t48 -138t14 -143q0 -65 -8 -113h-708q2 -70 29 -123.5t72.5 -85.5t102 -48.5t122.5 -16.5q155 0 293 48l39 -182q-155 -67 -369 -67q-255 0 -400 144t-145 389zM282 1194 l211 322h180l213 -322h-184l-116 196h-4l-118 -196h-182zM332 640h465q1 32 -4.5 64.5t-20.5 68.5t-39 63t-64 45t-91 18q-48 0 -88 -16.5t-67.5 -43t-47 -61.5t-30 -69t-13.5 -69z" />
<glyph unicode="&#xeb;" horiz-adv-x="1119" d="M76 512q0 89 21 171.5t64 155t103.5 126.5t145 85t183.5 31t178.5 -31.5t130 -82.5t84.5 -119t48 -138t14 -143q0 -65 -8 -113h-708q2 -70 29 -123.5t72.5 -85.5t102 -48.5t122.5 -16.5q155 0 293 48l39 -182q-155 -67 -369 -67q-255 0 -400 144t-145 389zM247 1355 q0 57 39 95.5t98 38.5q54 0 91 -38t37 -96q0 -56 -37.5 -94.5t-95.5 -38.5q-37 0 -67.5 18t-47.5 48.5t-17 66.5zM332 640h465q1 32 -4.5 64.5t-20.5 68.5t-39 63t-64 45t-91 18q-48 0 -88 -16.5t-67.5 -43t-47 -61.5t-30 -69t-13.5 -69zM679 1355q0 57 39 95.5t96 38.5 q56 0 93 -38t37 -96q0 -55 -37 -94t-93 -39h-4q-55 0 -93 39t-38 94z" />
<glyph unicode="&#xec;" horiz-adv-x="555" d="M-63 1516h260l190 -322h-186zM143 0v1057h267v-1057h-267z" />
<glyph unicode="&#xed;" horiz-adv-x="555" d="M143 0v1057h267v-1057h-267zM154 1194l187 322h262l-265 -322h-184z" />
<glyph unicode="&#xee;" horiz-adv-x="555" d="M-24 1194l211 322h180l213 -322h-185l-117 196h-5l-114 -196h-183zM143 0v1057h267v-1057h-267z" />
<glyph unicode="&#xef;" horiz-adv-x="555" d="M-72 1355q0 57 39 95.5t98 38.5q54 0 91 -38t37 -96q0 -56 -37.5 -94.5t-95.5 -38.5q-56 0 -94 39t-38 94zM143 0v1057h267v-1057h-267zM363 1355q0 57 38.5 95.5t95.5 38.5q56 0 93.5 -38t37.5 -96q0 -55 -37.5 -94t-93.5 -39h-4q-36 0 -66.5 18t-47 48.5t-16.5 66.5z " />
<glyph unicode="&#xf1;" horiz-adv-x="1241" d="M135 1057h232l12 -158h8q19 33 49 63.5t71.5 58t98 44t119.5 16.5q31 0 61.5 -4.5t60.5 -14t57.5 -24.5t53 -36t47 -47.5t39.5 -61t30.5 -74t19 -88.5t6.5 -103v-628h-267v597q0 58 -11 105.5t-34.5 84.5t-63 57t-92.5 20q-75 0 -130.5 -45t-78.5 -111q-13 -32 -13 -85 v-623h-267v742q0 133 -8 315zM332 1220q-5 122 40.5 190.5t124.5 68.5q34 0 64 -11.5t73 -34.5q6 -3 16.5 -9t17 -9.5t15 -8t15 -7t14 -4t13.5 -1.5q28 0 41.5 20t16.5 73h131q6 -252 -165 -252q-60 0 -142 45l-9 6q-21 13 -31 18t-23 9.5t-26 4.5q-47 0 -54 -98h-132z" />
<glyph unicode="&#xf2;" horiz-adv-x="1224" d="M76 522q0 170 70.5 298t194 194.5t282.5 66.5q156 0 275.5 -68.5t184.5 -191.5t65 -283q0 -113 -30.5 -207t-83 -159t-122 -110t-147 -65.5t-160.5 -20.5q-111 0 -208 37.5t-168 106.5t-112 172.5t-41 229.5zM300 1516h260l189 -322h-185zM352 528q0 -156 72 -257 t191 -101q114 0 185.5 100.5t71.5 261.5q0 51 -8.5 100.5t-28.5 96.5t-49 82t-72.5 56t-96.5 21q-68 0 -120.5 -31t-83 -83.5t-46 -114.5t-15.5 -131z" />
<glyph unicode="&#xf3;" horiz-adv-x="1224" d="M76 522q0 170 70.5 298t194 194.5t282.5 66.5q156 0 275.5 -68.5t184.5 -191.5t65 -283q0 -113 -30.5 -207t-83 -159t-122 -110t-147 -65.5t-160.5 -20.5q-111 0 -208 37.5t-168 106.5t-112 172.5t-41 229.5zM352 528q0 -156 72 -257t191 -101q114 0 185.5 100.5 t71.5 261.5q0 51 -8.5 100.5t-28.5 96.5t-49 82t-72.5 56t-96.5 21q-68 0 -120.5 -31t-83 -83.5t-46 -114.5t-15.5 -131zM480 1194l189 322h261l-265 -322h-185z" />
<glyph unicode="&#xf4;" horiz-adv-x="1224" d="M76 522q0 170 70.5 298t194 194.5t282.5 66.5q156 0 275.5 -68.5t184.5 -191.5t65 -283q0 -113 -30.5 -207t-83 -159t-122 -110t-147 -65.5t-160.5 -20.5q-111 0 -208 37.5t-168 106.5t-112 172.5t-41 229.5zM311 1194l211 322h180l212 -322h-185l-114 196h-5l-117 -196 h-182zM352 528q0 -156 72 -257t191 -101q114 0 185.5 100.5t71.5 261.5q0 51 -8.5 100.5t-28.5 96.5t-49 82t-72.5 56t-96.5 21q-68 0 -120.5 -31t-83 -83.5t-46 -114.5t-15.5 -131z" />
<glyph unicode="&#xf5;" horiz-adv-x="1224" d="M76 522q0 170 70.5 298t194 194.5t282.5 66.5q156 0 275.5 -68.5t184.5 -191.5t65 -283q0 -113 -30.5 -207t-83 -159t-122 -110t-147 -65.5t-160.5 -20.5q-111 0 -208 37.5t-168 106.5t-112 172.5t-41 229.5zM321 1220q-5 122 40.5 190.5t125.5 68.5q33 0 63 -11.5 t73 -34.5q9 -4 26 -13.5t25 -13.5t20 -8t23 -4q27 0 40 19.5t16 73.5h130q3 -127 -39.5 -189.5t-125.5 -62.5q-60 0 -141 45l-9 6q-22 13 -32 18t-23 9.5t-25 4.5q-48 0 -54 -98h-133zM352 528q0 -156 72 -257t191 -101q114 0 185.5 100.5t71.5 261.5q0 51 -8.5 100.5 t-28.5 96.5t-49 82t-72.5 56t-96.5 21q-68 0 -120.5 -31t-83 -83.5t-46 -114.5t-15.5 -131z" />
<glyph unicode="&#xf6;" horiz-adv-x="1224" d="M76 522q0 170 70.5 298t194 194.5t282.5 66.5q156 0 275.5 -68.5t184.5 -191.5t65 -283q0 -113 -30.5 -207t-83 -159t-122 -110t-147 -65.5t-160.5 -20.5q-111 0 -208 37.5t-168 106.5t-112 172.5t-41 229.5zM263 1355q0 57 39 95.5t98 38.5q54 0 91 -38t37 -96 q0 -36 -16.5 -66.5t-47 -48.5t-69.5 -18q-56 0 -94 39t-38 94zM352 528q0 -156 72 -257t191 -101q114 0 185.5 100.5t71.5 261.5q0 51 -8.5 100.5t-28.5 96.5t-49 82t-72.5 56t-96.5 21q-68 0 -120.5 -31t-83 -83.5t-46 -114.5t-15.5 -131zM694 1355q0 57 39 95.5t96 38.5 q56 0 93 -38t37 -96q0 -55 -37 -94t-93 -39h-4q-37 0 -67 18t-47 48.5t-17 66.5z" />
<glyph unicode="&#xf8;" horiz-adv-x="1224" d="M76 526q0 126 41 230.5t112.5 175.5t171 110t216.5 39q141 0 260 -66l96 143l102 -73l-96 -138q82 -74 125.5 -179.5t43.5 -233.5q0 -111 -30.5 -204t-81.5 -157.5t-120 -109.5t-145 -66t-156 -21q-149 0 -261 63l-100 -143l-98 78l94 134q-83 72 -128.5 178t-45.5 240z M334 528q0 -125 55 -213h6l365 523q-59 50 -150 50q-58 0 -105.5 -21.5t-78.5 -57t-52.5 -82.5t-30.5 -97t-9 -102zM469 219q52 -49 141 -49q127 0 203.5 99t76.5 259q0 120 -52 206l-5 2z" />
<glyph unicode="&#xf9;" horiz-adv-x="1234" d="M139 437v620h267v-575q0 -289 197 -289q76 0 129 42t76 101q15 30 15 83v638h267v-740q0 -143 8 -317h-232l-13 159h-6q-20 -32 -47 -60.5t-68 -58t-100 -47t-126 -17.5q-50 0 -94 10t-86 32t-75.5 59t-59 86.5t-39 119t-13.5 154.5zM296 1516h259l189 -322h-184z" />
<glyph unicode="&#xfa;" horiz-adv-x="1234" d="M139 437v620h267v-575q0 -289 197 -289q76 0 129 42t76 101q15 30 15 83v638h267v-740q0 -143 8 -317h-232l-13 159h-6q-20 -32 -47 -60.5t-68 -58t-100 -47t-126 -17.5q-50 0 -94 10t-86 32t-75.5 59t-59 86.5t-39 119t-13.5 154.5zM501 1194l189 322h261l-265 -322 h-185z" />
<glyph unicode="&#xfb;" horiz-adv-x="1234" d="M139 437v620h267v-575q0 -289 197 -289q76 0 129 42t76 101q15 30 15 83v638h267v-740q0 -143 8 -317h-232l-13 159h-6q-20 -32 -47 -60.5t-68 -58t-100 -47t-126 -17.5q-50 0 -94 10t-86 32t-75.5 59t-59 86.5t-39 119t-13.5 154.5zM317 1194l209 322h182l212 -322h-184 l-117 196h-4l-116 -196h-182z" />
<glyph unicode="&#xfc;" horiz-adv-x="1234" d="M139 437v620h267v-575q0 -289 197 -289q76 0 129 42t76 101q15 30 15 83v638h267v-740q0 -143 8 -317h-232l-13 159h-6q-20 -32 -47 -60.5t-68 -58t-100 -47t-126 -17.5q-50 0 -94 10t-86 32t-75.5 59t-59 86.5t-39 119t-13.5 154.5zM273 1355q0 57 39.5 95.5t97.5 38.5 q55 0 91.5 -38t36.5 -96q0 -56 -37 -94.5t-95 -38.5q-37 0 -67.5 18t-48 48.5t-17.5 66.5zM708 1355q0 57 38.5 95.5t96.5 38.5q56 0 93 -38t37 -96q0 -55 -37 -94t-93 -39h-5q-55 0 -92.5 39t-37.5 94z" />
<glyph unicode="&#xfd;" horiz-adv-x="1085" d="M17 1057h296l188 -566q38 -114 61 -205h7q38 150 56 207l165 564h285l-265 -721q-73 -199 -133 -329t-115.5 -212.5t-118.5 -137.5q-72 -62 -146.5 -94.5t-133.5 -40.5l-61 224q77 18 155 74q40 25 80 70t67 97q15 27 15 48q0 20 -13 52zM445 1194l189 322h261l-265 -322 h-185z" />
<glyph unicode="&#xff;" horiz-adv-x="1085" d="M17 1057h296l188 -566q38 -114 61 -205h7q38 150 56 207l165 564h285l-265 -721q-73 -199 -133 -329t-115.5 -212.5t-118.5 -137.5q-72 -62 -146.5 -94.5t-133.5 -40.5l-61 224q77 18 155 74q40 25 80 70t67 97q15 27 15 48q0 20 -13 52zM217 1355q0 57 39 95.5t98 38.5 q55 0 91.5 -38t36.5 -96q0 -36 -16.5 -66.5t-47 -48.5t-68.5 -18q-57 0 -95 39t-38 94zM651 1355q0 57 38.5 95.5t95.5 38.5q56 0 93.5 -38t37.5 -96q0 -55 -37 -94t-94 -39h-4q-55 0 -92.5 39t-37.5 94z" />
<glyph unicode="&#x104;" horiz-adv-x="1380" d="M46 0l468 1463h341l475 -1463l-134 -2q-80 -105 -80 -174q0 -52 32 -84.5t83 -32.5q46 0 95 17l39 -126q-25 -19 -60.5 -33.5t-70.5 -20.5t-68 -6q-105 0 -165.5 54t-60.5 156q0 69 31.5 138t70.5 120l-130 408h-465l-126 -414h-275zM491 617h375l-114 360 q-27 82 -75 274h-4q-5 -22 -20 -83t-26.5 -106.5t-23.5 -84.5z" />
<glyph unicode="&#x105;" horiz-adv-x="1102" d="M70 290q0 197 164.5 299.5t461.5 100.5v18q0 24 -4 46.5t-17.5 48.5t-36 45t-62.5 32t-94 13q-50 0 -103 -10.5t-99.5 -28t-82.5 -40.5l-52 174q66 40 166 66.5t217 26.5q98 0 174.5 -24.5t125 -65.5t79.5 -99.5t44 -121.5t13 -136v-380q0 -76 4 -142t11 -112h-89 q-63 -99 -63 -178q0 -54 29 -82t76 -28q50 0 97 21l39 -131q-84 -64 -208 -64q-93 0 -151 53.5t-58 149.5q0 39 8.5 78t24.5 76.5t26.5 58t27.5 50.5l-17 114h-7q-31 -43 -77 -74t-107 -49.5t-128 -18.5q-78 0 -142 26t-104.5 70.5t-63 100.5t-22.5 117zM334 319 q0 -74 42.5 -113t110.5 -39q77 0 132.5 42t76.5 104q8 22 8 58v145q-370 4 -370 -197z" />
<glyph unicode="&#x106;" horiz-adv-x="1276" d="M76 714q0 178 59.5 324t164.5 244t248.5 151.5t311.5 53.5q82 0 157 -11t120.5 -25t76.5 -30l-56 -212q-128 57 -288 57q-112 0 -205.5 -35.5t-162 -102t-106.5 -169t-38 -232.5q0 -244 135 -386t375 -142q52 0 106.5 7t101.5 19t84 27l43 -211q-53 -26 -155 -45.5 t-225 -19.5q-230 0 -399 91t-258.5 258t-89.5 389zM649 1543l192 261h294l-271 -261h-215z" />
<glyph unicode="&#x107;" horiz-adv-x="974" d="M76 518q0 95 25.5 180.5t75.5 155t120 120.5t164 79t204 28q70 0 140 -13.5t117 -33.5l-48 -203q-84 41 -201 41q-100 0 -174.5 -45.5t-112 -122.5t-36.5 -174q0 -80 25 -145t68.5 -107.5t102.5 -65.5t127 -23q110 0 211 41l36 -197q-30 -14 -72.5 -26t-103 -20 t-123.5 -8q-247 0 -396 147t-149 392zM454 1194l188 322h261l-265 -322h-184z" />
<glyph unicode="&#x10c;" horiz-adv-x="1276" d="M76 714q0 178 59.5 324t164.5 244t248.5 151.5t311.5 53.5q82 0 157 -11t120.5 -25t76.5 -30l-56 -212q-128 57 -288 57q-112 0 -205.5 -35.5t-162 -102t-106.5 -169t-38 -232.5q0 -244 135 -386t375 -142q52 0 106.5 7t101.5 19t84 27l43 -211q-53 -26 -155 -45.5 t-225 -19.5q-230 0 -399 91t-258.5 258t-89.5 389zM452 1802h199l124 -143h4l120 143h197l-219 -259h-202z" />
<glyph unicode="&#x10d;" horiz-adv-x="974" d="M76 518q0 95 25.5 180.5t75.5 155t120 120.5t164 79t204 28q70 0 140 -13.5t117 -33.5l-48 -203q-84 41 -201 41q-100 0 -174.5 -45.5t-112 -122.5t-36.5 -174q0 -80 25 -145t68.5 -107.5t102.5 -65.5t127 -23q110 0 211 41l36 -197q-30 -14 -72.5 -26t-103 -20 t-123.5 -8q-247 0 -396 147t-149 392zM271 1516h185l120 -198h4l116 198h183l-210 -322h-185z" />
<glyph unicode="&#x10e;" horiz-adv-x="1481" d="M154 4v1440q217 30 426 30q202 0 347 -42t247 -127q230 -186 230 -539q0 -191 -59.5 -337t-167.5 -245q-108 -98 -278 -148.5t-385 -50.5q-200 0 -360 19zM363 1802h199l124 -143h4l120 143h197l-219 -259h-202zM421 201q37 -6 148 -6q175 -1 298.5 62t189.5 190t66 311 q1 241 -134.5 374.5t-385.5 133.5q-114 0 -182 -15v-1050z" />
<glyph unicode="&#x10f;" horiz-adv-x="1282" d="M76 516q0 129 37.5 237t103 179t151 110t181.5 39q105 0 183 -37.5t115 -99.5h4v597h267v-1243q0 -154 9 -298h-237l-13 167h-5q-31 -58 -82 -101.5t-118 -66.5t-142 -23q-95 0 -178 39t-144 108.5t-96.5 171.5t-35.5 221zM348 528q0 -98 30.5 -174t91 -119.5 t143.5 -43.5q82 0 146 51.5t84 136.5q8 33 8 79v159q0 39 -6 71q-13 52 -43 93.5t-79 67t-108 25.5q-84 0 -145 -46t-91.5 -123.5t-30.5 -176.5zM1209 1179q67 97 67 206q0 41 -15 79.5t-39 66.5l176 33q30 -22 52 -66.5t22 -95.5q0 -179 -150 -302z" />
<glyph unicode="&#x110;" horiz-adv-x="1495" d="M2 638v211h165v601q218 31 426 31q204 0 349 -41.5t247 -126.5q230 -185 230 -547q0 -375 -228 -586q-109 -99 -278 -149t-385 -50q-200 0 -361 19v638h-165zM435 197q37 -6 149 -6q132 0 234.5 36t173.5 106.5t108 178.5t37 248q2 249 -132.5 380.5t-387.5 131.5 q-114 0 -182 -15v-408h336v-211h-336v-441z" />
<glyph unicode="&#x111;" horiz-adv-x="1260" d="M76 516q0 129 37.5 237t103 179t151 110t181.5 39q105 0 183 -37.5t115 -99.5h4v239h-410v155h410v203h267v-203h172v-155h-172v-885q0 -154 9 -298h-237l-13 167h-5q-31 -58 -82 -101.5t-118 -66.5t-142 -23q-95 0 -178 39t-144 108.5t-96.5 171.5t-35.5 221zM348 528 q0 -98 30.5 -174t91 -119.5t143.5 -43.5q82 0 146 51.5t84 136.5q8 33 8 79v159q0 39 -6 71q-13 52 -43 93.5t-79 67t-108 25.5q-84 0 -145 -46t-91.5 -123.5t-30.5 -176.5z" />
<glyph unicode="&#x118;" horiz-adv-x="1117" d="M154 0v1463h851v-219h-584v-378h552v-217h-552v-430h617v-219h-48q-65 -43 -113 -102t-48 -111q0 -37 24.5 -57t64.5 -20q52 0 93 17l39 -131q-83 -58 -207 -58q-99 0 -156 49.5t-57 139.5q0 57 26 113t61 93.5t76 66.5h-639z" />
<glyph unicode="&#x119;" horiz-adv-x="1119" d="M76 512q0 89 21 171.5t64 155t103.5 126.5t145 85t183.5 31t179 -31.5t130.5 -82t84.5 -119t47.5 -138t13.5 -143.5q0 -71 -8 -113h-708q2 -56 20 -102t48.5 -77.5t72 -53t88.5 -31.5t99 -10q157 0 291 48l39 -182q-42 -19 -95 -35q-70 -33 -133 -99.5t-63 -122.5 q0 -27 11.5 -45.5t29 -26t39.5 -7.5q56 0 100 21l41 -129q-84 -64 -208 -64q-96 0 -152 48t-56 132q0 52 25.5 106t57 89.5t68.5 65.5v2q-15 -2 -42 -2q-250 1 -393.5 145.5t-143.5 387.5zM332 640h465q1 32 -4.5 64.5t-20.5 68.5t-39 63t-64 45t-91 18q-35 0 -65.5 -9 t-54 -23.5t-43 -35.5t-33.5 -43.5t-24.5 -48.5t-16.5 -50.5t-9 -48.5z" />
<glyph unicode="&#x11a;" horiz-adv-x="1117" d="M154 0v1463h851v-219h-584v-378h552v-217h-552v-430h617v-219h-884zM252 1800h200l124 -143h4l119 143h198l-220 -259h-201z" />
<glyph unicode="&#x11b;" horiz-adv-x="1119" d="M76 512q0 89 21 171.5t64 155t103.5 126.5t145 85t183.5 31t178.5 -31.5t130 -82.5t84.5 -119t48 -138t14 -143q0 -65 -8 -113h-708q2 -70 29 -123.5t72.5 -85.5t102 -48.5t122.5 -16.5q155 0 293 48l39 -182q-155 -67 -369 -67q-255 0 -400 144t-145 389zM263 1516h184 l117 -198h5l119 198h182l-210 -322h-184zM332 640h465q1 32 -4.5 64.5t-20.5 68.5t-39 63t-64 45t-91 18q-48 0 -88 -16.5t-67.5 -43t-47 -61.5t-30 -69t-13.5 -69z" />
<glyph unicode="&#x139;" horiz-adv-x="1069" d="M154 0v1463h267v-1239h602v-224h-869zM180 1541l191 261h296l-272 -261h-215z" />
<glyph unicode="&#x13a;" horiz-adv-x="557" d="M132 1607l191 260h296l-271 -260h-216zM143 0v1541h267v-1541h-267z" />
<glyph unicode="&#x13d;" horiz-adv-x="1069" d="M154 0v1463h267v-1239h602v-224h-869zM560 1187q41 8 74 24.5t55.5 46t22.5 66.5q0 62 -68 130l189 35q17 -12 32 -28.5t27 -37.5t19 -47.5t7 -53.5q0 -62 -25.5 -110t-70 -77.5t-100 -45.5t-119.5 -18z" />
<glyph unicode="&#x13e;" horiz-adv-x="576" d="M143 0v1541h267v-1541h-267zM495 1179q67 105 67 206q0 41 -15 79.5t-39 66.5l176 33q30 -22 52 -68t22 -100q0 -28 -3.5 -54t-11 -49t-14 -42t-19 -38t-20 -31t-22 -28t-19.5 -21.5t-18.5 -18.5t-13.5 -14z" />
<glyph unicode="&#x13f;" horiz-adv-x="1069" d="M154 0v1463h267v-1239h602v-224h-869zM658 814q0 56 39 94.5t96 38.5q54 0 89.5 -38.5t35.5 -94.5q0 -33 -16.5 -63t-46.5 -48.5t-67 -18.5q-36 0 -66.5 18.5t-47 48.5t-16.5 63z" />
<glyph unicode="&#x140;" horiz-adv-x="687" d="M143 0v1541h267v-1541h-267zM499 858q0 55 36 92.5t90 37.5q49 0 83 -37.5t34 -92.5q0 -54 -34 -92.5t-87 -38.5q-52 0 -87 38.5t-35 92.5z" />
<glyph unicode="&#x141;" horiz-adv-x="1082" d="M-6 423v192l171 121v727h267v-549l280 198v-194l-280 -197v-497h602v-224h-869v545z" />
<glyph unicode="&#x142;" horiz-adv-x="578" d="M13 437v197l143 120v787h267v-588l155 128v-200l-155 -125v-756h-267v555z" />
<glyph unicode="&#x143;" horiz-adv-x="1467" d="M152 0v1463h306l377 -628q158 -270 250 -489h5q-24 238 -24 607v510h247v-1463h-277l-383 644q-163 282 -260 504l-9 -2q16 -283 16 -622v-524h-248zM590 1541l191 261h296l-271 -261h-216z" />
<glyph unicode="&#x144;" horiz-adv-x="1241" d="M135 1057h232l12 -158h8q19 33 49 63.5t71.5 58t98 44t119.5 16.5q31 0 61.5 -4.5t60.5 -14t57.5 -24.5t53 -36t47 -47.5t39.5 -61t30.5 -74t19 -88.5t6.5 -103v-628h-267v597q0 58 -11 105.5t-34.5 84.5t-63 57t-92.5 20q-75 0 -130.5 -45t-78.5 -111q-13 -32 -13 -85 v-623h-267v742q0 133 -8 315zM487 1194l186 322h263l-265 -322h-184z" />
<glyph unicode="&#x147;" horiz-adv-x="1467" d="M152 0v1463h306l377 -628q158 -270 250 -489h5q-24 238 -24 607v510h247v-1463h-277l-383 644q-163 282 -260 504l-9 -2q16 -283 16 -622v-524h-248zM417 1794h200l123 -145h4l120 145h197l-220 -259h-201z" />
<glyph unicode="&#x148;" horiz-adv-x="1241" d="M135 1057h232l12 -158h8q19 33 49 63.5t71.5 58t98 44t119.5 16.5q31 0 61.5 -4.5t60.5 -14t57.5 -24.5t53 -36t47 -47.5t39.5 -61t30.5 -74t19 -88.5t6.5 -103v-628h-267v597q0 58 -11 105.5t-34.5 84.5t-63 57t-92.5 20q-75 0 -130.5 -45t-78.5 -111q-13 -32 -13 -85 v-623h-267v742q0 133 -8 315zM317 1516h184l118 -198h4l119 198h182l-212 -322h-182z" />
<glyph unicode="&#x150;" horiz-adv-x="1527" d="M78 721q0 167 51.5 310t142.5 243.5t220.5 157.5t282.5 57q156 0 284.5 -57t214 -157t132 -235.5t46.5 -292.5q0 -180 -52.5 -326.5t-146 -243.5t-221.5 -149t-278 -52q-153 0 -280.5 56.5t-213.5 155.5t-134 236t-48 297zM360 727q0 -151 47.5 -271.5t141 -192.5 t217.5 -72q64 0 120 19t100 54.5t79 85t58 110.5t35 131t12 147q0 69 -11.5 135t-33.5 126t-56.5 110t-78.5 87t-101 57.5t-123 20.5q-96 0 -174 -43t-128 -117.5t-77 -173.5t-27 -213zM493 1561l156 247h260l-230 -247h-186zM853 1561l154 247h263l-230 -247h-187z" />
<glyph unicode="&#x151;" horiz-adv-x="1224" d="M76 522q0 170 70.5 298t194 194.5t282.5 66.5q156 0 275.5 -68.5t184.5 -191.5t65 -283q0 -113 -30.5 -207t-83 -159t-122 -110t-147 -65.5t-160.5 -20.5q-111 0 -208 37.5t-168 106.5t-112 172.5t-41 229.5zM319 1203l152 310h228l-223 -310h-157zM352 528 q0 -156 72 -257t191 -101q114 0 185.5 100.5t71.5 261.5q0 51 -8.5 100.5t-28.5 96.5t-49 82t-72.5 56t-96.5 21q-68 0 -120.5 -31t-83 -83.5t-46 -114.5t-15.5 -131zM667 1203l153 310h226l-223 -310h-156z" />
<glyph unicode="&#x152;" horiz-adv-x="1990" d="M78 721q0 176 53.5 320.5t149 242.5t230.5 151.5t297 53.5q102 0 193 -15q13 -1 64.5 -6t74.5 -5h735v-219h-583v-378h551v-217h-551v-427h616v-222h-790q-18 0 -39.5 -1.5t-52 -4.5t-47.5 -5q-112 -13 -178 -13q-140 0 -258.5 38.5t-203.5 106.5t-144 162t-88 204.5 t-29 233.5zM360 731q0 -160 56.5 -281.5t167.5 -190t263 -68.5q110 0 178 26v1027q-74 30 -198 30q-82 0 -153.5 -24t-129 -70.5t-98.5 -111.5t-63.5 -151t-22.5 -186z" />
<glyph unicode="&#x153;" horiz-adv-x="1879" d="M76 524q0 84 18 159.5t51 136.5t80 110t105 82.5t126 51t143 17.5q127 0 230 -56.5t155 -160.5h4q61 107 158.5 162t218.5 55q97 0 175 -32t127 -83t82 -120t46 -138t13 -141q0 -52 -6 -109h-690q3 -130 92 -205t225 -75q87 0 151.5 14.5t136.5 41.5l39 -182 q-70 -39 -171 -57.5t-193 -18.5q-277 0 -402 215h-6q-62 -107 -169 -161t-233 -54q-106 0 -198 38.5t-160.5 108t-108 173.5t-39.5 228zM352 526q0 -100 31 -180.5t89.5 -128t134.5 -47.5q117 0 186 98t69 260q0 70 -15 133t-45 115t-80 82t-115 30q-55 0 -100 -22t-73 -58 t-47 -84.5t-27 -97.5t-8 -100zM1107 642h451q1 32 -3.5 64t-19 67.5t-37.5 62.5t-63.5 45t-92.5 18q-46 0 -84.5 -16.5t-64.5 -43t-45.5 -61t-29 -68.5t-11.5 -68z" />
<glyph unicode="&#x154;" horiz-adv-x="1234" d="M154 0v1442q175 32 404 32q106 0 188.5 -12t147.5 -38t115 -67q61 -51 93.5 -126.5t32.5 -169.5q0 -68 -22 -129t-59.5 -106.5t-84.5 -78t-101 -51.5v-6q148 -55 205 -282q11 -42 27 -105t26 -102.5t22 -83t21.5 -72.5t17.5 -45h-273q-42 85 -98 346q-32 141 -90 196.5 t-173 58.5h-134v-601h-265zM419 797h159q134 0 212 65.5t78 175.5q0 116 -75 175t-209 59q-112 0 -165 -13v-462zM456 1545l191 261h295l-271 -261h-215z" />
<glyph unicode="&#x155;" horiz-adv-x="772" d="M135 1057h230l10 -199h7q25 71 72.5 122.5t103.5 76t115 24.5q31 0 63 -6v-250q-37 6 -81 6q-93 0 -156.5 -54.5t-81.5 -146.5q-7 -37 -7 -81v-549h-267v717q0 215 -8 340zM276 1194l186 322h263l-265 -322h-184z" />
<glyph unicode="&#x158;" horiz-adv-x="1234" d="M154 0v1442q175 32 404 32q106 0 188.5 -12t147.5 -38t115 -67q61 -51 93.5 -126.5t32.5 -169.5q0 -68 -22 -129t-59.5 -106.5t-84.5 -78t-101 -51.5v-6q148 -55 205 -282q11 -42 27 -105t26 -102.5t22 -83t21.5 -72.5t17.5 -45h-273q-42 85 -98 346q-32 141 -90 196.5 t-173 58.5h-134v-601h-265zM280 1802h200l123 -143h4l120 143h197l-218 -259h-202zM419 797h159q134 0 212 65.5t78 175.5q0 116 -75 175t-209 59q-112 0 -165 -13v-462z" />
<glyph unicode="&#x159;" horiz-adv-x="772" d="M112 1516h186l114 -198h5l121 198h183l-213 -322h-183zM135 1057h230l10 -199h7q25 71 72.5 122.5t103.5 76t115 24.5q31 0 63 -6v-250q-37 6 -81 6q-93 0 -156.5 -54.5t-81.5 -146.5q-7 -37 -7 -81v-549h-267v717q0 215 -8 340z" />
<glyph unicode="&#x15a;" horiz-adv-x="1125" d="M89 70l60 220q69 -40 163 -66.5t192 -26.5q83 0 143 25.5t90.5 70t30.5 105.5q0 55 -26.5 97t-82 76.5t-149.5 68.5t-165 74.5t-124.5 92t-81 117t-27.5 142.5q0 72 23.5 136.5t68 116t107 89.5t145 58.5t176.5 20.5q205 0 350 -74l-64 -215q-132 70 -293 70 q-61 0 -108.5 -15t-76 -40.5t-42.5 -56t-14 -64.5q0 -42 15.5 -74t52.5 -60.5t85.5 -52t127.5 -54.5q193 -72 284 -175t91 -259q0 -91 -34.5 -169.5t-101 -140t-174 -96.5t-243.5 -35q-113 0 -224 27.5t-174 66.5zM449 1545l193 261h294l-271 -261h-216z" />
<glyph unicode="&#x15b;" horiz-adv-x="905" d="M78 52l54 195q48 -30 125 -53.5t145 -23.5q85 0 127 31.5t42 86.5q0 19 -3.5 33.5t-12.5 28t-22 25t-33 23t-44.5 22.5t-57.5 23q-150 51 -221 130.5t-71 178.5q0 69 28.5 129.5t79.5 105t126.5 69.5t165.5 25q56 0 110.5 -8.5t96.5 -22t75 -31.5l-54 -188 q-40 24 -100.5 43t-123.5 19q-70 0 -108.5 -32t-38.5 -82q0 -48 39 -78t145 -69q145 -50 212.5 -127.5t69.5 -193.5q0 -149 -112.5 -240.5t-316.5 -91.5q-190 0 -322 73zM341 1194l189 322h260l-264 -322h-185z" />
<glyph unicode="&#x160;" horiz-adv-x="1125" d="M89 70l60 220q69 -40 163 -66.5t192 -26.5q83 0 143 25.5t90.5 70t30.5 105.5q0 55 -26.5 97t-82 76.5t-149.5 68.5t-165 74.5t-124.5 92t-81 117t-27.5 142.5q0 72 23.5 136.5t68 116t107 89.5t145 58.5t176.5 20.5q205 0 350 -74l-64 -215q-132 70 -293 70 q-61 0 -108.5 -15t-76 -40.5t-42.5 -56t-14 -64.5q0 -42 15.5 -74t52.5 -60.5t85.5 -52t127.5 -54.5q193 -72 284 -175t91 -259q0 -91 -34.5 -169.5t-101 -140t-174 -96.5t-243.5 -35q-113 0 -224 27.5t-174 66.5zM263 1802h199l124 -143h4l120 143h197l-219 -259h-201z" />
<glyph unicode="&#x161;" horiz-adv-x="905" d="M78 52l54 195q48 -30 125 -53.5t145 -23.5q85 0 127 31.5t42 86.5q0 19 -3.5 33.5t-12.5 28t-22 25t-33 23t-44.5 22.5t-57.5 23q-150 51 -221 130.5t-71 178.5q0 69 28.5 129.5t79.5 105t126.5 69.5t165.5 25q56 0 110.5 -8.5t96.5 -22t75 -31.5l-54 -188 q-40 24 -100.5 43t-123.5 19q-70 0 -108.5 -32t-38.5 -82q0 -48 39 -78t145 -69q145 -50 212.5 -127.5t69.5 -193.5q0 -149 -112.5 -240.5t-316.5 -91.5q-190 0 -322 73zM156 1516h185l119 -198h4l118 198h182l-211 -322h-184z" />
<glyph unicode="&#x164;" horiz-adv-x="1139" d="M17 1239v224h1106v-224h-421v-1239h-267v1239h-418zM245 1800h200l124 -143h4l119 143h198l-219 -259h-202z" />
<glyph unicode="&#x165;" horiz-adv-x="774" d="M37 858v199h150v198l262 73v-271h255v-199h-255v-467q0 -101 31.5 -148.5t105.5 -47.5q62 0 104 12l4 -203q-75 -28 -193 -28q-73 0 -132.5 22.5t-97.5 64.5q-84 87 -84 297v498h-150zM593 1270q31 23 53.5 64.5t22.5 89.5q0 66 -52 121l180 33q28 -19 49.5 -61t21.5 -88 q0 -55 -21.5 -102.5t-55 -78t-66 -50t-63.5 -28.5z" />
<glyph unicode="&#x16e;" horiz-adv-x="1444" d="M152 625v838h267v-853q0 -209 80 -314t220 -105q148 0 228 104t80 315v853h267v-835q0 -167 -41.5 -292.5t-119 -204t-183.5 -117t-240 -38.5q-129 0 -230 37t-175.5 114.5t-113.5 203t-39 294.5zM489 1702q0 90 64 149t174 59q72 0 125 -27.5t79 -73.5t26 -105 q0 -57 -28 -103.5t-81.5 -73.5t-122.5 -27q-106 0 -171 58.5t-65 143.5zM623 1702q0 -41 28 -73t70 -32q46 0 74 31.5t28 78.5q0 28 -12.5 52.5t-36.5 40t-55 15.5q-29 0 -51.5 -16t-33.5 -41.5t-11 -55.5z" />
<glyph unicode="&#x16f;" horiz-adv-x="1234" d="M139 437v620h267v-575q0 -289 197 -289q76 0 129 42t76 101q15 30 15 83v638h267v-740q0 -143 8 -317h-232l-13 159h-6q-20 -32 -47 -60.5t-68 -58t-100 -47t-126 -17.5q-50 0 -94 10t-86 32t-75.5 59t-59 86.5t-39 119t-13.5 154.5zM382 1372q0 60 27.5 108t82.5 76.5 t129 28.5q70 0 123 -27.5t80 -75t27 -108.5q0 -90 -65 -148t-167 -58q-106 0 -171.5 58t-65.5 146zM514 1374q0 -43 29 -76.5t74 -33.5q47 0 75.5 32.5t28.5 79.5q0 30 -12.5 56t-37 41.5t-56.5 15.5q-45 0 -73 -34.5t-28 -80.5z" />
<glyph unicode="&#x170;" horiz-adv-x="1444" d="M152 625v838h267v-853q0 -209 80 -314t220 -105q148 0 228 104t80 315v853h267v-835q0 -167 -41.5 -292.5t-119 -204t-183.5 -117t-240 -38.5q-129 0 -230 37t-175.5 114.5t-113.5 203t-39 294.5zM427 1556l157 248h261l-230 -248h-188zM788 1556l154 248h263l-230 -248 h-187z" />
<glyph unicode="&#x171;" horiz-adv-x="1234" d="M139 437v620h267v-575q0 -289 197 -289q76 0 129 42t76 101q15 30 15 83v638h267v-740q0 -143 8 -317h-232l-13 159h-6q-20 -32 -47 -60.5t-68 -58t-100 -47t-126 -17.5q-50 0 -94 10t-86 32t-75.5 59t-59 86.5t-39 119t-13.5 154.5zM350 1203l151 310h228l-223 -310 h-156zM696 1203l155 310h226l-224 -310h-157z" />
<glyph unicode="&#x178;" horiz-adv-x="1247" d="M24 1463h306l174 -375q77 -169 128 -291h4q41 109 126 291l176 375h301l-485 -846v-617h-267v610zM300 1676q0 56 37.5 94t92.5 38q54 0 89.5 -37.5t35.5 -94.5q0 -54 -36 -92.5t-92 -38.5q-27 0 -51 11t-40.5 28.5t-26 41.5t-9.5 50zM729 1676q0 56 37 94t94 38 q54 0 90 -37.5t36 -94.5q0 -54 -36.5 -92.5t-94.5 -38.5q-54 0 -90 38.5t-36 92.5z" />
<glyph unicode="&#x179;" horiz-adv-x="1228" d="M56 0v147l747 1088v6h-681v222h1028v-156l-738 -1079v-6h750v-222h-1106zM482 1541l191 261h295l-272 -261h-214z" />
<glyph unicode="&#x17a;" horiz-adv-x="976" d="M43 0v154l398 508q80 97 154 179v4h-512v212h837v-162l-386 -497q-104 -126 -157 -181v-4h557v-213h-891zM375 1194l187 322h263l-265 -322h-185z" />
<glyph unicode="&#x17b;" horiz-adv-x="1228" d="M56 0v147l747 1088v6h-681v222h1028v-156l-738 -1079v-6h750v-222h-1106zM491 1684q0 56 38.5 94.5t95.5 38.5q27 0 50.5 -10.5t40 -28t26.5 -42t10 -52.5q0 -51 -37.5 -90.5t-93.5 -39.5q-54 0 -92 39.5t-38 90.5z" />
<glyph unicode="&#x17c;" horiz-adv-x="976" d="M43 0v154l398 508q80 97 154 179v4h-512v212h837v-162l-386 -497q-104 -126 -157 -181v-4h557v-213h-891zM360 1355q0 57 39 95.5t98 38.5q54 0 91 -38.5t37 -95.5t-37 -96t-95 -39q-56 0 -94.5 39.5t-38.5 95.5z" />
<glyph unicode="&#x17d;" horiz-adv-x="1228" d="M56 0v147l747 1088v6h-681v222h1028v-156l-738 -1079v-6h750v-222h-1106zM308 1800h200l124 -143h4l120 143h197l-222 -259h-199z" />
<glyph unicode="&#x17e;" horiz-adv-x="976" d="M43 0v154l398 508q80 97 154 179v4h-512v212h837v-162l-386 -497q-104 -126 -157 -181v-4h557v-213h-891zM205 1516h184l117 -198h4l120 198h182l-213 -322h-182z" />
<glyph unicode="&#x192;" d="M43 -156l42 189q52 -22 110 -22q88 1 129 72.5t63 250.5l40 360h-182v190h204l11 84q5 41 13 81t24.5 88t39 89t57.5 80.5t78 67t103 44.5t130 17q107 -3 166 -35l-44 -188q-55 19 -109 19q-46 0 -81.5 -18.5t-59 -52t-37 -76.5t-19.5 -96l-13 -104h239v-190h-263 l-50 -412q-7 -61 -18 -112.5t-27.5 -101t-38.5 -88t-53.5 -71.5t-70 -54.5t-88.5 -33.5t-110 -12q-119 3 -185 35z" />
<glyph unicode="&#x2c6;" horiz-adv-x="650" d="M24 1194l210 322h180l214 -322h-185l-115 196h-5l-116 -196h-183z" />
<glyph unicode="&#x2da;" horiz-adv-x="650" d="M72 1372q0 92 64 152.5t175 60.5q107 0 169.5 -59t62.5 -152q0 -90 -65.5 -148t-169.5 -58q-70 0 -124 27t-83 73t-29 104zM205 1374q0 -43 28.5 -76.5t72.5 -33.5q49 0 77.5 32.5t28.5 79.5q0 30 -12 56t-36.5 41.5t-57.5 15.5q-31 0 -54.5 -17t-35 -42.5t-11.5 -55.5z " />
<glyph unicode="&#x2dc;" horiz-adv-x="650" d="M35 1220q-5 122 40 190.5t124 68.5q24 0 49.5 -7.5t42 -15t47.5 -23.5q5 -3 20 -11t21 -11t17 -8t19 -7t15 -2q28 0 42 20t17 73h130q3 -127 -39.5 -189.5t-125.5 -62.5q-37 0 -69 11.5t-74 33.5q-4 2 -10 6q-21 13 -31 18t-23 9.5t-25 4.5q-48 0 -55 -98h-132z" />
<glyph unicode="&#x2000;" horiz-adv-x="965" />
<glyph unicode="&#x2001;" horiz-adv-x="1930" />
<glyph unicode="&#x2002;" horiz-adv-x="965" />
<glyph unicode="&#x2003;" horiz-adv-x="1930" />
<glyph unicode="&#x2004;" horiz-adv-x="643" />
<glyph unicode="&#x2005;" horiz-adv-x="482" />
<glyph unicode="&#x2006;" horiz-adv-x="321" />
<glyph unicode="&#x2007;" horiz-adv-x="321" />
<glyph unicode="&#x2008;" horiz-adv-x="241" />
<glyph unicode="&#x2009;" horiz-adv-x="386" />
<glyph unicode="&#x200a;" horiz-adv-x="107" />
<glyph unicode="&#x2010;" horiz-adv-x="683" d="M65 487v184h554v-184h-554z" />
<glyph unicode="&#x2011;" horiz-adv-x="683" d="M65 487v184h554v-184h-554z" />
<glyph unicode="&#x2012;" horiz-adv-x="683" d="M65 487v184h554v-184h-554z" />
<glyph unicode="&#x2013;" horiz-adv-x="1085" d="M65 466v170h956v-170h-956z" />
<glyph unicode="&#x2014;" horiz-adv-x="2170" d="M65 466v170h2041v-170h-2041z" />
<glyph unicode="&#x2018;" horiz-adv-x="511" d="M65 932q43 145 108.5 298.5t126.5 256.5l164 15q-28 -81 -55 -173.5t-50 -192.5t-36 -185z" />
<glyph unicode="&#x2019;" horiz-adv-x="511" d="M63 932q103 298 142 551l257 21q-21 -73 -49.5 -151.5t-59 -150.5t-63 -137.5t-62.5 -115.5z" />
<glyph unicode="&#x201a;" horiz-adv-x="511" d="M39 -238q44 124 83 273.5t58 275.5l259 21q-44 -147 -109 -300t-125 -254z" />
<glyph unicode="&#x201c;" horiz-adv-x="887" d="M65 932q43 145 108.5 298.5t126.5 256.5l164 15q-44 -121 -82.5 -271t-58.5 -280zM443 932q46 149 110.5 302t123.5 253l166 15q-29 -81 -56 -173.5t-49.5 -192.5t-35.5 -185z" />
<glyph unicode="&#x201d;" horiz-adv-x="887" d="M63 932q103 298 142 551l257 21q-30 -99 -69 -202t-82 -195t-83 -158zM441 932q45 123 83 272t58 279l259 21q-43 -146 -108.5 -299t-127.5 -256z" />
<glyph unicode="&#x201e;" horiz-adv-x="893" d="M37 -238q44 124 83 273.5t58 275.5l259 21q-46 -149 -111 -302t-125 -252zM414 -238q45 120 83.5 269.5t57.5 279.5l259 21q-43 -147 -108 -300t-126 -254z" />
<glyph unicode="&#x2022;" horiz-adv-x="679" d="M83 567q-2 107 74.5 182.5t184 75.5t182.5 -74.5t75 -183.5q0 -71 -34.5 -130.5t-94.5 -94t-132 -34.5q-106 0 -180.5 74.5t-74.5 184.5z" />
<glyph unicode="&#x2026;" horiz-adv-x="2170" d="M197 147q0 49 21.5 88.5t59 61.5t85.5 22q73 0 119 -47.5t46 -124.5q0 -48 -20.5 -87t-59 -61.5t-88.5 -22.5q-71 0 -117 49t-46 122zM922 147q0 75 47 123.5t119 48.5q73 0 119 -47.5t46 -124.5q0 -74 -46 -122.5t-122 -48.5q-71 0 -117 49t-46 122zM1647 147 q0 75 47 123.5t119 48.5q73 0 119 -47.5t46 -124.5q0 -74 -46 -122.5t-122 -48.5q-71 0 -117 49t-46 122z" />
<glyph unicode="&#x202f;" horiz-adv-x="386" />
<glyph unicode="&#x2039;" horiz-adv-x="572" d="M60 547l268 408h196l-272 -408l272 -406h-196z" />
<glyph unicode="&#x203a;" horiz-adv-x="572" d="M50 141l271 406l-271 408h193l269 -408l-269 -406h-193z" />
<glyph unicode="&#x205f;" horiz-adv-x="482" />
<glyph unicode="&#x20ab;" d="M143 714q-1 76 18 141.5t53 114t80.5 83t102 52.5t115.5 18q77 0 136 -27.5t90 -72.5h4v162h-264v135h264v134h226v-134h139v-135h-139v-630q0 -37 7 -212h-202l-9 117h-4q-38 -64 -108 -100.5t-159 -36.5q-74 0 -138 28.5t-111 78.5t-74 124t-27 160zM191 56v163h788 v-163h-788zM373 721q0 -100 50 -162t137 -62q63 0 113 35.5t63 95.5q6 22 6 54v95q0 35 -4 48q-12 53 -60 90.5t-111 37.5q-92 0 -143 -64t-51 -168z" />
<glyph unicode="&#x20ac;" d="M15 522v133h122v33q0 32 4 80h-126v135h146q39 196 162 330q186 202 470 202q170 0 309 -68l-54 -199q-110 56 -242 56q-169 0 -276 -119q-69 -73 -95 -202h568v-135h-595q-4 -24 -4 -78v-35h599v-133h-576q22 -136 95 -211q108 -118 290 -118q72 0 141 19.5t115 44.5 l46 -194q-61 -37 -148.5 -62t-184.5 -25q-149 0 -277 57.5t-214 165.5q-108 125 -136 323h-139z" />
<glyph unicode="&#x2122;" horiz-adv-x="1380" d="M63 1340v123h506v-123h-178v-470h-153v470h-175zM607 870l40 593h232l68 -210q16 -58 37 -172h2q26 109 41 170l71 212h220l37 -593h-148l-18 300q0 123 -2 202h-8q-7 -30 -50 -206l-83 -285h-147l-76 289q-39 188 -42 202h-8q0 -81 -5 -202l-16 -300h-145z" />
<glyph unicode="&#xe000;" horiz-adv-x="1052" d="M0 0v1053h1053v-1053h-1053z" />
</font>
</defs>
</svg>
